<?xml version="1.0" encoding="utf-8"?>
<svg viewBox="162.037 130.041 2285.43 2269" xmlns="http://www.w3.org/2000/svg">
  <g id="layer1" transform="matrix(1, 0, 0, 1, 486.040802, 2049.008545)">
    <path style="fill:#fff;fill-opacity:1;fill-rule:nonzero;stroke:#bbbbbb;stroke-width:10;stroke-miterlimit:4;stroke-dasharray:none;stroke-opacity:1" d="M 68.623 -1918.938 L 58.409 -1915.906 L 50.588 -1901.383 L 49.791 -1900.106 L 42.449 -1894.839 L 43.247 -1869.783 L 41.811 -1860.845 L 28.405 -1843.769 L 28.086 -1838.821 L 39.257 -1831.48 L 36.544 -1821.426 L 34.469 -1818.553 L 33.831 -1812.648 L 39.896 -1800.997 L 40.853 -1794.773 L 41.651 -1788.868 L 46.758 -1777.856 L 46.439 -1759.183 L 51.387 -1748.49 L 50.908 -1741.149 L 49.152 -1741.149 L 50.588 -1734.765 L 53.461 -1729.019 L 63.675 -1717.21 L 65.909 -1710.028 L 64.952 -1702.687 L 68.304 -1696.462 L 68.304 -1688.802 L 72.293 -1681.939 L 78.039 -1677.471 L 85.061 -1675.396 L 90.647 -1670.448 L 98.308 -1669.81 L 105.17 -1672.364 L 114.586 -1669.331 L 118.097 -1664.703 L 118.097 -1660.075 L 117.299 -1655.127 L 113.629 -1651.776 L 111.873 -1641.242 L 112.352 -1635.656 L 111.394 -1624.485 L 108.043 -1615.228 L 104.532 -1611.717 L 99.904 -1602.62 L 98.467 -1597.673 L 98.467 -1592.725 L 93.839 -1590.97 L 86.817 -1584.107 L 85.221 -1578.362 L 88.094 -1574.212 L 93.36 -1568.786 L 94.158 -1560.806 L 81.55 -1552.188 L 74.528 -1556.178 L 67.665 -1553.465 L 64.154 -1546.602 L 64.314 -1539.58 L 67.505 -1533.515 L 75.326 -1526.493 L 75.326 -1521.865 L 70.538 -1517.396 L 72.612 -1512.608 L 72.293 -1506.224 L 76.603 -1502.235 L 77.4 -1497.287 L 82.029 -1495.851 L 85.38 -1491.063 L 90.487 -1488.19 L 92.243 -1483.721 L 95.116 -1479.253 L 97.19 -1474.625 L 98.308 -1468.879 L 97.669 -1463.453 L 99.744 -1453.718 L 102.776 -1448.132 L 100.542 -1443.344 L 102.936 -1438.396 L 100.223 -1433.768 L 103.095 -1427.225 L 102.297 -1421.798 L 104.372 -1417.17 L 99.904 -1395.625 L 101.34 -1390.518 L 101.34 -1385.889 L 104.212 -1381.74 L 104.212 -1376.792 L 99.744 -1374.079 L 96.871 -1369.77 L 96.392 -1364.823 L 100.542 -1362.11 L 99.744 -1352.534 L 96.552 -1349.023 L 95.275 -1344.235 L 95.275 -1339.288 L 98.786 -1335.138 L 97.35 -1325.722 L 95.275 -1320.455 L 91.924 -1316.146 L 92.562 -1311.199 L 91.126 -1306.411 L 87.455 -1301.463 L 85.38 -1296.835 L 81.391 -1293.803 L 79.954 -1289.175 L 79.156 -1283.589 L 79.156 -1278.162 L 76.443 -1274.013 L 76.922 -1268.268 L 75.645 -1258.851 L 69.9 -1248.956 L 70.378 -1241.455 L 65.59 -1231.88 L 65.59 -1227.092 L 70.378 -1227.092 L 77.4 -1224.538 L 77.241 -1217.835 L 70.697 -1214.005 L 65.75 -1207.462 L 66.867 -1200.12 L 66.867 -1194.694 L 70.378 -1190.864 L 44.843 -1109.789 L 39.576 -1104.682 L 29.841 -1091.276 L 33.193 -1087.925 L 17.552 -1059.197 L 11.009 -1052.973 L 6.7 -1046.908 L 5.423 -1041.482 L 5.263 -1041.003 L 3.508 -1036.216 L 0.156 -1031.747 L -4.313 -1029.513 L -11.016 -1031.268 L -18.676 -1026.48 L -27.933 -1013.393 L -33.359 -1007.648 L -32.082 -1000.466 L -25.698 -997.753 L -21.07 -992.008 L -10.537 -987.22 L -9.898 -984.507 L -8.781 -979.878 L -8.621 -972.856 L -9.898 -958.812 L -7.504 -950.034 L -4.951 -944.448 L -9.579 -937.745 L -20.431 -931.521 L -18.995 -926.573 L -19.315 -924.18 L -28.252 -921.786 L -36.551 -922.584 L -42.136 -916.838 L -43.413 -910.135 L -43.573 -902.634 L -46.924 -895.612 L -53.627 -892.26 L -60.65 -892.58 L -68.31 -890.984 L -75.173 -888.43 L -93.845 -864.172 L -96.718 -857.947 L -97.356 -849.648 L -98.952 -842.945 L -103.102 -837.519 L -118.902 -834.008 L -133.106 -832.572 L -142.203 -829.859 L -148.427 -826.667 L -153.853 -821.879 L -156.088 -814.857 L -152.417 -808.632 L -160.078 -809.43 L -166.302 -804.643 L -170.611 -797.301 L -171.728 -789.96 L -173.962 -783.257 L -180.825 -780.065 L -186.411 -774.319 L -192.475 -770.329 L -196.944 -763.307 L -202.37 -758.519 L -206.361 -752.295 L -203.807 -745.592 L -202.53 -738.57 L -199.019 -730.431 L -196.785 -723.728 L -184.496 -711.917 L -184.017 -704.576 L -188.645 -698.99 L -189.443 -691.968 L -183.857 -678.243 L -176.676 -675.211 L -169.494 -676.328 L -154.492 -672.497 L -146.193 -675.53 L -132.468 -675.849 L -126.244 -670.742 L -125.445 -662.922 L -130.552 -655.421 L -130.393 -648.558 L -128.478 -641.376 L -117.625 -631.481 L -116.987 -624.459 L -122.413 -619.512 L -135.5 -603.233 L -141.724 -597.807 L -145.395 -591.263 L -148.587 -583.283 L -150.661 -576.261 L -164.387 -570.356 L -171.409 -569.558 L -178.272 -570.356 L -185.613 -568.282 L -190.56 -558.546 L -190.082 -553.758 L -184.815 -545.459 L -183.857 -540.033 L -183.857 -535.245 L -184.656 -529.5 L -188.167 -520.403 L -186.411 -515.296 L -187.049 -509.87 L -191.359 -506.518 L -192.475 -501.571 L -191.837 -496.783 L -193.912 -491.995 L -195.508 -490.558 L -202.849 -484.973 L -206.201 -480.983 L -210.191 -474.599 L -206.041 -469.651 L -199.178 -464.864 L -179.389 -453.532 L -175.878 -446.031 L -170.451 -440.765 L -170.611 -433.742 L -174.441 -427.837 L -178.112 -426.401 L -178.591 -427.039 L -185.932 -420.017 L -188.645 -415.868 L -186.73 -411.24 L -182.102 -409.165 L -178.431 -405.813 L -173.803 -404.536 L -171.409 -399.749 L -174.761 -390.013 L -179.229 -386.981 L -176.357 -385.704 L -171.409 -380.118 L -170.132 -372.617 L -166.142 -364.318 L -170.132 -358.733 L -171.728 -351.551 L -169.973 -344.209 L -171.249 -337.028 L -171.409 -329.207 L -178.272 -326.813 L -181.623 -320.43 L -187.209 -315.961 L -200.934 -316.121 L -208.595 -310.535 L -212.584 -304.949 L -215.617 -298.246 L -219.128 -284.521 L -217.532 -276.541 L -219.926 -269.678 L -220.724 -262.656 L -222.479 -255.474 L -227.746 -250.686 L -240.035 -242.547 L -248.334 -240.951 L -254.878 -243.345 L -259.346 -236.482 L -259.186 -229.46 L -263.974 -224.194 L -270.837 -223.555 L -277.061 -228.503 L -283.924 -227.385 L -289.51 -221.8 L -290.786 -215.097 L -290.308 -206.798 L -292.542 -199.775 L -293.819 -192.434 L -291.105 -185.731 L -278.817 -176.634 L -283.924 -167.537 L -283.764 -160.036 L -277.859 -156.525 L -275.625 -149.982 L -279.934 -142.959 L -275.784 -136.895 L -269.56 -133.384 L -263.017 -136.576 L -256.154 -135.458 L -253.92 -127.798 L -246.419 -126.202 L -239.556 -127 L -235.566 -120.776 L -241.791 -115.828 L -248.015 -113.434 L -248.015 -106.412 L -241.472 -102.422 L -241.312 -95.56 L -235.885 -90.133 L -233.173 -83.749 L -231.896 -76.568 L -225.193 -72.897 L -231.417 -68.269 L -233.651 -61.087 L -238.439 -55.182 L -241.791 -49.117 L -239.556 -42.095 L -250.728 -32.041 L -252.962 -25.338 L -252.483 -17.677 L -256.314 -10.814 L -261.581 2.592 L -263.017 9.454 L -253.441 20.466 L -253.282 27.329 L -255.675 40.895 L -252.483 46.959 L -243.387 59.567 L -240.195 65.632 L -242.429 72.335 L -247.217 78.4 L -254.718 90.688 L -260.144 95.955 L -266.528 99.626 L -269.4 114.309 L -274.827 119.894 L -283.126 123.565 L -289.19 127.395 L -302.916 133.141 L -309.619 132.981 L -310.417 139.844 L -316.481 143.195 L -321.269 137.929 L -323.504 145.43 L -318.077 149.42 L -315.364 158.197 L -310.736 160.751 L -303.873 161.07 L -296.372 164.741 L -290.148 160.751 L -284.722 155.963 L -278.498 153.09 L -277.221 161.868 L -276.583 175.593 L -272.592 181.818 L -270.039 188.201 L -263.177 184.531 L -256.314 181.977 L -242.908 188.68 L -231.896 199.054 L -227.108 204.64 L -231.896 210.226 L -237.641 214.694 L -241.631 220.28 L -245.302 226.664 L -246.738 233.207 L -239.876 245.975 L -235.247 251.561 L -228.544 255.072 L -221.682 255.231 L -215.457 257.945 L -210.031 263.052 L -203.328 265.446 L -195.987 266.403 L -183.06 270.872 L -168.855 273.585 L -154.492 273.585 L -149.065 278.373 L -143.799 285.714 L -138.373 291.3 L -132.148 294.971 L -125.924 297.684 L -122.732 303.749 L -126.244 310.452 L -123.69 317.314 L -122.413 324.496 L -116.987 329.284 L -110.124 333.752 L -103.421 333.274 L -97.037 337.423 L -89.217 339.498 L -82.195 342.53 L -76.45 345.882 L -66.874 350.031 L -66.874 349.552 L -64.32 337.902 L -48.042 307.579 L -39.424 300.397 L -24.422 279.65 L -11.016 267.999 L -2.717 257.466 L 1.912 255.71 L 25.372 252.997 L 37.661 252.04 L 46.599 251.401 L 55.695 243.262 L 72.134 243.102 L 76.762 240.868 L 89.21 242.623 L 94.956 245.017 L 95.594 248.369 L 83.944 271.67 L 72.293 283.48 L 67.825 287.789 L 63.516 289.066 L 54.419 287.789 L 49.631 284.757 L 38.459 285.395 L 35.427 287.789 L 33.671 292.258 L 26.17 290.502 L 12.285 292.736 L 6.061 291.3 L 2.071 297.365 L -2.397 297.205 L -3.355 300.237 L -2.238 305.504 L 9.253 310.771 L 19.787 314.761 L 21.702 314.601 L 26.17 314.282 L 43.726 317.314 L 52.503 311.888 L 63.356 302.951 L 75.804 290.502 L 91.764 264.967 L 103.095 242.145 L 103.255 241.985 L 103.893 243.102 L 104.053 242.783 L 105.649 241.666 L 105.808 241.347 L 105.808 240.868 L 105.968 240.708 L 106.447 240.708 L 108.043 238.314 L 107.883 237.836 L 112.831 234.165 L 131.504 225.068 L 136.93 218.844 L 144.91 213.577 L 166.135 211.502 L 173.637 207.832 L 177.626 204.161 L 177.148 199.054 L 182.095 196.341 L 187.043 188.999 L 193.905 182.775 L 202.523 174.795 L 206.194 166.656 L 202.364 155.803 L 197.895 150.537 L 194.863 150.696 L 194.863 158.676 L 192.948 162.826 L 186.404 168.571 L 186.245 168.571 L 186.245 167.933 L 184.17 167.135 L 179.701 165.06 L 180.818 163.145 L 179.861 160.272 L 165.019 155.644 L 152.729 142.238 L 140.919 126.757 L 136.451 124.682 L 138.526 120.533 L 132.78 108.244 L 128.471 104.733 L 118.097 101.222 L 106.766 99.785 L 103.415 101.062 L 108.841 105.052 L 110.437 105.531 L 124.96 110.159 L 127.513 112.074 L 128.152 114.947 L 125.279 118.298 L 110.118 121.331 L 104.212 120.692 L 94.317 116.543 L 89.37 112.872 L 82.667 105.052 L 74.208 95.157 L 71.974 88.933 L 73.251 85.103 L 82.029 75.367 L 87.614 73.452 L 96.552 62.759 L 98.148 56.056 L 106.447 44.725 L 122.247 34.99 L 132.301 25.414 L 135.493 20.307 L 142.994 7.38 L 154.166 -2.994 L 165.178 -21.826 L 171.881 -28.529 L 186.724 -52.15 L 202.683 -64.917 L 209.067 -73.376 L 210.822 -75.77 L 218.164 -82.792 L 222.792 -90.931 L 226.622 -92.048 L 230.612 -89.655 L 233.006 -90.293 L 240.507 -101.465 L 242.901 -108.327 L 249.444 -116.786 L 270.192 -138.012 L 278.491 -143.598 L 290.461 -148.226 L 292.854 -149.982 L 297.961 -153.652 L 307.697 -157.163 L 331.317 -162.111 L 337.701 -159.877 L 342.17 -160.355 L 360.683 -168.654 L 368.503 -169.931 L 380.473 -169.293 L 386.697 -167.537 L 392.283 -161.313 L 395.634 -160.675 L 399.145 -155.248 L 404.412 -151.897 L 407.763 -151.099 L 414.147 -159.877 L 413.03 -169.293 L 415.264 -176.315 L 420.691 -182.858 L 428.191 -189.402 L 442.715 -201.85 L 458.355 -206.159 L 480.539 -209.67 L 486.125 -216.693 L 491.551 -217.65 L 497.137 -221.161 L 512.298 -224.194 L 516.767 -222.598 L 523.789 -222.438 L 531.928 -219.725 L 535.599 -221.64 L 540.387 -221.8 L 547.25 -225.47 L 556.506 -230.737 L 566.401 -228.183 L 567.359 -228.822 L 572.785 -231.375 L 584.755 -241.27 L 587.947 -243.026 L 622.898 -261.698 L 631.676 -261.858 L 646.359 -266.486 L 662.478 -273.987 L 683.704 -278.935 L 716.262 -284.999 L 729.189 -283.723 L 733.657 -284.201 L 736.53 -284.521 L 748.34 -289.787 L 774.354 -293.458 L 786.324 -301.597 L 795.899 -304.31 L 804.837 -309.737 L 812.019 -309.577 L 847.768 -317.397 L 855.11 -319.632 L 867.239 -328.09 L 878.73 -326.654 L 885.592 -328.888 L 898.36 -327.931 L 911.766 -337.506 L 915.277 -338.783 L 925.332 -338.783 L 946.238 -349.636 L 958.847 -353.147 L 962.517 -354.104 L 988.691 -359.052 L 1025.877 -360.807 L 1067.212 -373.575 L 1076.309 -377.724 L 1094.503 -385.864 L 1113.974 -403.898 L 1118.282 -413.314 L 1119.4 -418.262 L 1122.273 -430.072 L 1138.232 -459.916 L 1139.349 -457.363 L 1135.359 -449.542 L 1137.594 -448.904 L 1144.616 -457.522 L 1149.723 -471.407 L 1155.788 -482.738 L 1168.076 -495.506 L 1177.812 -508.114 L 1180.685 -513.061 L 1181.802 -515.136 L 1189.941 -529.659 L 1194.569 -537.639 L 1203.826 -545.619 L 1208.135 -548.332 L 1224.414 -558.706 L 1249.311 -566.047 L 1270.696 -574.187 L 1300.221 -592.061 L 1315.223 -603.233 L 1346.026 -626.215 L 1353.207 -631.481 L 1378.264 -639.461 L 1389.914 -648.718 L 1408.427 -659.73 L 1414.971 -659.73 L 1426.621 -666.114 L 1446.411 -672.178 L 1454.231 -677.604 L 1457.742 -679.839 L 1476.255 -685.903 L 1488.385 -692.926 L 1507.057 -698.671 L 1549.35 -722.451 L 1564.831 -725.643 L 1568.98 -726.6 L 1571.853 -728.515 L 1573.609 -733.782 L 1576.801 -736.495 L 1578.875 -741.762 L 1581.429 -748.465 L 1593.718 -756.125 L 1602.176 -765.542 L 1622.126 -773.521 L 1639.521 -775.117 L 1645.108 -779.426 L 1651.97 -779.107 L 1659.152 -785.012 L 1662.663 -783.735 L 1667.77 -784.214 L 1682.293 -792.194 L 1690.113 -798.578 L 1707.669 -817.091 L 1715.33 -827.784 L 1722.671 -834.008 L 1727.459 -835.125 L 1732.087 -836.083 L 1733.204 -837.2 L 1733.204 -849.329 L 1733.683 -849.489 L 1737.194 -850.925 L 1749.164 -851.883 L 1751.717 -857.469 L 1758.42 -858.586 L 1765.443 -866.725 L 1772.146 -869.279 L 1776.295 -883.164 L 1780.125 -894.654 L 1802.309 -918.275 L 1811.087 -923.382 L 1817.471 -925.456 L 1818.109 -925.616 L 1821.62 -920.349 L 1824.174 -920.668 L 1832.951 -926.095 L 1833.43 -931.84 L 1835.186 -933.755 L 1838.058 -937.107 L 1840.452 -936.788 L 1842.687 -936.309 L 1853.22 -937.905 L 1857.21 -939.82 L 1859.285 -943.81 L 1862.636 -959.291 L 1868.701 -966.313 L 1876.84 -967.749 L 1878.596 -968.068 L 1881.149 -973.016 L 1880.83 -975.091 L 1880.351 -977.165 L 1881.787 -986.262 L 1883.862 -991.369 L 1887.374 -993.125 L 1888.49 -999.03 L 1887.693 -1005.414 L 1889.289 -1014.511 L 1893.119 -1021.373 L 1896.63 -1023.608 L 1896.63 -1028.874 L 1894.077 -1041.961 L 1890.246 -1046.27 L 1884.022 -1046.111 L 1876.521 -1053.771 L 1872.212 -1059.995 L 1873.648 -1078.987 L 1873.329 -1083.296 L 1870.137 -1089.999 L 1871.414 -1098.937 L 1872.212 -1118.726 L 1873.968 -1123.674 L 1877.479 -1125.11 L 1880.83 -1123.355 L 1884.82 -1127.983 L 1880.351 -1142.506 L 1869.18 -1161.498 L 1866.626 -1165.009 L 1860.402 -1173.787 L 1854.656 -1174.425 L 1854.178 -1177.298 L 1856.093 -1181.448 L 1853.22 -1185.597 L 1846.517 -1185.437 L 1840.612 -1190.544 L 1837.42 -1190.864 L 1834.069 -1186.714 L 1831.834 -1187.033 L 1831.196 -1194.056 L 1823.056 -1198.524 L 1818.907 -1202.993 L 1816.194 -1210.175 L 1814.757 -1220.868 L 1812.683 -1235.231 L 1812.683 -1249.435 L 1810.608 -1256.936 L 1810.927 -1264.597 L 1808.533 -1269.225 L 1806.778 -1273.375 L 1809.491 -1274.811 L 1813.64 -1281.674 L 1819.226 -1304.336 L 1820.663 -1309.922 L 1831.515 -1321.732 L 1843.165 -1331.308 L 1848.272 -1333.382 L 1854.975 -1333.382 L 1856.891 -1330.51 L 1859.444 -1326.679 L 1859.604 -1320.296 L 1861.838 -1317.423 L 1869.818 -1316.625 L 1880.032 -1307.368 L 1883.224 -1306.89 L 1888.171 -1300.027 L 1890.725 -1304.017 L 1893.438 -1308.166 L 1894.236 -1317.104 L 1895.353 -1318.381 L 1899.503 -1317.104 L 1902.216 -1318.54 L 1903.971 -1319.657 L 1904.131 -1319.178 L 1906.844 -1311.039 L 1910.674 -1308.326 L 1918.494 -1307.847 L 1920.25 -1306.73 L 1921.527 -1309.762 L 1920.25 -1311.358 L 1914.664 -1313.433 L 1913.068 -1320.455 L 1929.347 -1324.445 L 1934.295 -1331.148 L 1937.007 -1336.894 L 1930.145 -1347.267 L 1930.464 -1352.215 L 1931.581 -1354.449 L 1935.731 -1352.853 L 1941.157 -1350.938 L 1942.594 -1354.449 L 1937.007 -1359.397 L 1936.688 -1362.11 L 1941.476 -1368.015 L 1939.721 -1370.249 L 1940.678 -1372.324 L 1945.466 -1373.441 L 1951.212 -1381.421 L 1960.468 -1384.293 L 1961.426 -1387.326 L 1960.628 -1389.081 L 1955.68 -1389.72 L 1953.127 -1393.071 L 1947.86 -1393.071 L 1944.19 -1395.625 L 1939.402 -1393.39 L 1932.699 -1401.211 L 1931.9 -1404.881 L 1927.113 -1405.041 L 1921.686 -1409.988 L 1920.41 -1409.669 L 1918.654 -1404.083 L 1915.143 -1403.764 L 1914.345 -1403.764 L 1910.834 -1399.295 L 1908.919 -1402.487 L 1905.408 -1403.924 L 1902.854 -1407.275 L 1903.492 -1413.021 L 1900.141 -1417.011 L 1892.002 -1415.734 L 1887.852 -1418.766 L 1883.862 -1416.372 L 1877.159 -1416.372 L 1875.563 -1412.223 L 1877.159 -1406.956 L 1874.287 -1403.126 L 1872.052 -1403.285 L 1862.796 -1413.021 L 1864.392 -1417.489 L 1858.486 -1419.085 L 1848.592 -1430.097 L 1850.507 -1433.928 L 1849.868 -1436.002 L 1845.56 -1436.8 L 1843.804 -1438.716 L 1844.602 -1440.311 L 1842.527 -1445.897 L 1843.804 -1450.845 L 1848.272 -1456.271 L 1847.475 -1457.548 L 1843.804 -1457.229 L 1842.208 -1459.782 L 1847.794 -1468.4 L 1845.719 -1469.837 L 1842.048 -1469.039 L 1841.729 -1470.794 L 1851.145 -1481.328 L 1852.422 -1487.233 L 1851.305 -1489.627 L 1847.475 -1490.265 L 1846.357 -1492.499 L 1852.582 -1498.564 L 1848.113 -1500.16 L 1845.4 -1500.958 L 1845.24 -1501.117 L 1838.058 -1501.437 L 1837.261 -1501.437 L 1827.206 -1501.596 L 1819.545 -1502.873 L 1815.875 -1502.554 L 1811.725 -1502.554 L 1807.735 -1499.681 L 1804.224 -1496.33 L 1803.586 -1494.734 L 1800.394 -1493.138 L 1797.042 -1493.936 L 1793.531 -1494.734 L 1789.541 -1496.01 L 1782.519 -1501.756 L 1780.125 -1502.873 L 1775.178 -1511.651 L 1772.624 -1513.406 L 1767.517 -1517.396 L 1765.921 -1519.152 L 1762.41 -1527.451 L 1760.016 -1533.834 L 1757.941 -1540.218 L 1756.186 -1541.176 L 1752.994 -1541.176 L 1748.206 -1538.303 L 1740.865 -1533.834 L 1737.992 -1534.154 L 1735.758 -1534.313 L 1733.204 -1536.548 L 1707.669 -1528.887 L 1701.604 -1531.76 L 1691.55 -1532.079 L 1674.632 -1521.865 L 1669.845 -1520.428 L 1662.025 -1519.471 L 1643.192 -1522.344 L 1636.329 -1523.301 L 1630.744 -1522.822 L 1627.871 -1520.907 L 1624.2 -1518.354 L 1597.867 -1492.818 L 1591.164 -1478.774 L 1586.216 -1475.423 L 1571.374 -1475.263 L 1547.754 -1481.168 L 1540.891 -1480.849 L 1526.847 -1477.338 L 1518.229 -1475.103 L 1505.302 -1466.645 L 1491.417 -1452.441 L 1485.512 -1448.291 L 1482.479 -1443.663 L 1486.31 -1430.736 L 1497.322 -1418.766 L 1500.514 -1413.5 L 1501.152 -1409.51 L 1499.876 -1406.637 L 1495.088 -1403.764 L 1486.15 -1402.328 L 1477.532 -1403.605 L 1471.148 -1404.562 L 1446.251 -1413.18 L 1425.504 -1416.691 L 1416.088 -1416.532 L 1396.777 -1403.924 L 1386.722 -1402.647 L 1378.742 -1404.722 L 1369.007 -1405.041 L 1361.666 -1409.35 L 1338.684 -1422.756 L 1333.896 -1425.629 L 1332.3 -1428.98 L 1332.14 -1429.14 L 1327.672 -1432.651 L 1310.914 -1452.92 L 1261.121 -1470.635 L 1259.205 -1471.592 L 1250.427 -1476.22 L 1233.191 -1488.35 L 1196.644 -1492.978 L 1182.121 -1490.424 L 1173.981 -1486.754 L 1167.278 -1480.689 L 1157.224 -1477.019 L 1151 -1476.699 L 1145.733 -1478.934 L 1136.317 -1482.764 L 1117.644 -1484.2 L 1104.557 -1469.996 L 1088.917 -1444.461 L 1075.83 -1432.172 L 1059.232 -1422.916 L 1051.252 -1421.001 L 1042.794 -1418.926 L 1032.42 -1417.968 L 1020.61 -1419.085 L 1013.269 -1421.479 L 1008.321 -1426.427 L 988.372 -1436.96 L 983.584 -1441.748 L 979.594 -1451.164 L 980.233 -1462.974 L 977.679 -1471.592 L 974.327 -1482.764 L 971.774 -1487.552 L 970.338 -1490.265 L 970.178 -1490.903 L 969.539 -1494.574 L 969.061 -1496.489 L 966.348 -1499.841 L 961.879 -1505.746 L 953.421 -1512.449 L 944.802 -1513.406 L 941.61 -1511.491 L 937.78 -1509.257 L 931.556 -1509.736 L 903.946 -1527.291 L 893.413 -1538.622 L 880.804 -1547.081 L 837.714 -1546.762 L 835.479 -1547.56 L 814.093 -1554.422 L 808.189 -1560.487 L 792.388 -1549.315 L 785.845 -1550.433 L 772.758 -1559.849 L 770.045 -1560.008 L 768.29 -1557.933 L 764.619 -1545.325 L 765.417 -1542.134 L 752.33 -1527.291 L 739.403 -1525.536 L 721.209 -1517.715 L 710.995 -1511.012 L 698.227 -1512.129 L 681.31 -1497.925 L 658.966 -1493.297 L 657.371 -1492.978 L 628.643 -1496.489 L 627.047 -1496.649 L 625.93 -1497.128 L 624.973 -1497.447 L 620.664 -1498.883 L 611.886 -1505.905 L 608.854 -1525.057 L 596.246 -1539.899 L 595.767 -1542.293 L 597.043 -1547.719 L 617.152 -1564.637 L 619.227 -1567.828 L 620.344 -1573.414 L 619.866 -1577.723 L 608.534 -1596.875 L 603.906 -1598.152 L 594.809 -1596.396 L 591.139 -1598.311 L 589.702 -1610.76 L 594.969 -1620.495 L 597.522 -1631.826 L 593.213 -1643.477 L 593.054 -1647.307 L 599.597 -1652.414 L 602.63 -1661.511 L 584.755 -1707.475 L 564.007 -1744.181 L 548.367 -1755.512 L 544.377 -1759.822 L 544.537 -1766.684 L 541.823 -1770.674 L 536.078 -1774.185 L 526.821 -1774.504 L 491.232 -1774.664 L 468.09 -1772.27 L 454.206 -1777.377 L 447.981 -1777.856 L 432.979 -1773.706 L 425.798 -1770.514 L 413.03 -1764.769 L 408.402 -1764.29 L 400.103 -1766.205 L 386.058 -1778.335 L 379.834 -1790.623 L 376.163 -1804.668 L 371.854 -1809.296 L 371.216 -1809.775 L 353.98 -1830.044 L 346.319 -1836.428 L 319.188 -1837.704 L 312.006 -1840.577 L 291.418 -1838.821 L 280.087 -1839.619 L 266.681 -1844.886 L 266.042 -1845.205 L 264.287 -1850.312 L 262.372 -1855.419 L 256.626 -1858.292 L 252.796 -1857.813 L 241.305 -1847.599 L 237.156 -1846.003 L 217.844 -1853.345 L 200.13 -1866.112 L 172.998 -1880.635 L 158.635 -1885.104 L 134.057 -1892.924 L 118.576 -1894.52 L 96.392 -1905.373 L 92.881 -1907.128 L 68.623 -1918.938 Z M 991.564 -1554.582 L 990.447 -1553.784 L 989.01 -1549.156 L 974.487 -1532.558 L 971.455 -1517.237 L 979.913 -1511.332 L 985.18 -1509.736 L 1010.077 -1507.022 L 1011.992 -1510.853 L 1011.353 -1512.608 L 1010.715 -1514.204 L 1008.96 -1517.077 L 1002.257 -1521.865 L 998.746 -1524.418 L 995.554 -1532.398 L 995.873 -1535.75 L 997.947 -1552.667 L 994.436 -1553.784 L 991.564 -1554.582 Z" id="path221"/>
    
      <path id="path4297" d="M 68.121 -1918.968 L 57.934 -1915.906 L 50.09 -1901.406 L 49.309 -1900.124 L 41.965 -1894.843 L 42.746 -1869.812 L 41.309 -1860.874 L 27.903 -1843.781 L 27.59 -1838.843 L 38.778 -1831.499 L 36.059 -1821.437 L 33.996 -1818.562 L 33.34 -1812.656 L 39.403 -1800.999 L 40.371 -1794.781 L 41.153 -1788.874 L 46.278 -1777.874 L 45.965 -1759.187 L 50.903 -1748.499 L 50.434 -1741.156 L 48.653 -1741.156 L 50.09 -1734.781 L 52.965 -1729.031 L 63.184 -1717.218 L 65.434 -1710.031 L 64.465 -1702.687 L 67.809 -1696.468 L 67.809 -1688.812 L 71.809 -1681.968 L 77.559 -1677.499 L 84.559 -1675.406 L 90.153 -1670.468 L 97.809 -1669.812 L 104.684 -1672.374 L 114.09 -1669.343 L 117.434 -1664.937 L 117.528 -1664.812 L 117.621 -1664.718 L 117.621 -1660.093 L 116.809 -1655.155 L 113.153 -1651.78 L 111.371 -1641.249 L 111.871 -1635.655 L 110.903 -1624.499 L 107.559 -1615.249 L 104.059 -1611.718 L 99.403 -1602.624 L 97.965 -1597.687 L 97.965 -1592.749 L 93.34 -1590.999 L 86.34 -1584.124 L 84.746 -1578.374 L 87.621 -1574.218 L 92.871 -1568.812 L 93.684 -1560.812 L 81.059 -1552.218 L 74.028 -1556.187 L 67.184 -1553.468 L 63.653 -1546.624 L 63.84 -1539.593 L 67.028 -1533.53 L 74.84 -1526.499 L 74.84 -1521.874 L 70.059 -1517.405 L 72.121 -1512.624 L 71.809 -1506.249 L 76.121 -1502.249 L 76.903 -1497.312 L 81.528 -1495.874 L 84.903 -1491.093 L 89.996 -1488.218 L 91.746 -1483.749 L 94.621 -1479.28 L 96.715 -1474.624 L 97.809 -1468.905 L 97.184 -1463.468 L 99.246 -1453.718 L 102.278 -1448.155 L 100.059 -1443.343 L 102.434 -1438.405 L 99.746 -1433.78 L 102.621 -1427.249 L 101.809 -1421.812 L 102.403 -1420.437 L 103.871 -1417.187 L 103.246 -1414.218 L 102.246 -1409.374 L 99.403 -1395.624 L 100.84 -1390.53 L 100.84 -1385.905 L 103.715 -1381.749 L 103.715 -1376.812 L 99.246 -1374.093 L 96.371 -1369.78 L 95.903 -1364.843 L 100.059 -1362.124 L 99.246 -1352.562 L 96.059 -1349.03 L 94.778 -1344.249 L 94.778 -1339.312 L 98.309 -1335.155 L 96.871 -1325.749 L 94.778 -1320.468 L 91.434 -1316.155 L 92.09 -1311.218 L 90.653 -1306.437 L 86.965 -1301.468 L 84.903 -1296.843 L 80.903 -1293.812 L 79.465 -1289.187 L 78.684 -1283.593 L 78.684 -1278.187 L 75.965 -1274.03 L 76.434 -1268.28 L 75.153 -1258.874 L 69.403 -1248.968 L 69.903 -1241.468 L 65.09 -1231.905 L 65.09 -1227.093 L 69.903 -1227.093 L 76.903 -1224.562 L 76.746 -1217.843 L 70.215 -1214.03 L 65.278 -1207.468 L 66.371 -1200.124 L 66.371 -1194.718 L 69.903 -1190.874 L 54.934 -1143.405 L 44.34 -1109.812 L 39.09 -1104.687 L 29.34 -1091.28 L 32.715 -1087.937 L 17.059 -1059.218 L 10.528 -1052.999 L 6.215 -1046.937 L 4.934 -1041.499 L 4.778 -1041.03 L 3.028 -1036.218 L -0.316 -1031.749 L -4.785 -1029.53 L -11.504 -1031.28 L -19.16 -1026.499 L -28.41 -1013.405 L -33.847 -1007.655 L -32.566 -1000.468 L -26.191 -997.78 L -21.566 -992.03 L -11.035 -987.249 L -10.379 -984.53 L -9.254 -979.905 L -9.097 -972.874 L -10.379 -958.812 L -8.004 -950.062 L -5.441 -944.468 L -10.066 -937.749 L -19.191 -932.53 L -20.91 -931.53 L -19.879 -927.999 L -19.472 -926.593 L -19.816 -924.187 L -20.504 -923.999 L -28.754 -921.812 L -37.035 -922.593 L -42.629 -916.843 L -43.91 -910.155 L -44.066 -902.655 L -47.41 -895.624 L -54.129 -892.28 L -61.129 -892.593 L -68.785 -890.999 L -75.66 -888.437 L -94.347 -864.187 L -97.191 -857.968 L -97.847 -849.655 L -99.441 -842.968 L -103.597 -837.53 L -119.379 -834.03 L -133.597 -832.593 L -142.691 -829.874 L -148.91 -826.687 L -154.347 -821.905 L -156.566 -814.874 L -152.91 -808.655 L -160.566 -809.437 L -166.785 -804.655 L -171.097 -797.312 L -172.222 -789.968 L -174.441 -783.28 L -181.316 -780.093 L -186.91 -774.343 L -192.972 -770.343 L -197.441 -763.312 L -202.847 -758.53 L -206.847 -752.312 L -204.285 -745.593 L -203.004 -738.593 L -199.504 -730.437 L -197.285 -723.749 L -184.972 -711.937 L -184.504 -704.593 L -189.129 -698.999 L -189.941 -691.968 L -184.347 -678.249 L -177.16 -675.218 L -169.972 -676.343 L -154.972 -672.499 L -146.691 -675.53 L -132.941 -675.874 L -126.722 -670.749 L -125.941 -662.937 L -131.035 -655.437 L -130.879 -648.562 L -128.972 -641.405 L -118.097 -631.499 L -117.472 -624.468 L -122.91 -619.53 L -135.972 -603.249 L -142.222 -597.812 L -145.879 -591.28 L -149.066 -583.312 L -151.16 -576.28 L -164.879 -570.374 L -171.91 -569.562 L -178.754 -570.374 L -186.097 -568.28 L -191.035 -558.562 L -190.566 -553.78 L -185.316 -545.468 L -184.347 -540.062 L -184.347 -535.249 L -185.129 -529.499 L -188.66 -520.405 L -186.91 -515.312 L -187.535 -509.874 L -191.847 -506.53 L -192.972 -501.593 L -192.316 -496.812 L -194.41 -491.999 L -196.004 -490.562 L -203.347 -484.999 L -206.691 -480.999 L -210.691 -474.624 L -206.535 -469.655 L -199.66 -464.874 L -179.879 -453.562 L -176.379 -446.03 L -170.941 -440.78 L -171.097 -433.749 L -174.941 -427.843 L -178.597 -426.405 L -179.066 -427.062 L -186.41 -420.03 L -189.129 -415.874 L -187.222 -411.249 L -182.597 -409.187 L -178.91 -405.843 L -174.285 -404.562 L -171.91 -399.749 L -175.254 -390.03 L -179.722 -386.999 L -176.847 -385.718 L -171.91 -380.124 L -171.722 -378.968 L -163.16 -379.312 L -162.691 -379.343 L -161.347 -379.374 L -133.629 -375.687 L -126.629 -378.687 L -125.535 -395.874 L -126.097 -417.624 L -119.035 -426.343 L -109.191 -432.249 L -106.379 -435.155 L -100.254 -428.03 L -92.941 -419.562 L -86.722 -409.562 L -83.754 -405.437 L -79.347 -398.249 L -76.285 -391.062 L -60.316 -390.03 L -56.191 -400.218 L -47.847 -411.812 L -46.504 -419.093 L -39.379 -426.28 L -24.785 -417.968 L -20.379 -418.062 L -20.316 -415.187 L -17.191 -406.655 L -8.285 -395.187 L 0.434 -392.468 L 7.746 -391.28 L 15.028 -391.405 L 20.653 -397.249 L 29.215 -400.28 L 37.778 -401.937 L 46.434 -409.187 L 53.559 -407.968 L 56.434 -408.03 L 60.778 -410.968 L 65.153 -412.374 L 70.934 -411.155 L 75.121 -412.562 L 81.09 -411.343 L 89.653 -414.374 L 105.528 -415.999 L 105.434 -420.374 L 108.153 -426.155 L 110.934 -430.593 L 116.653 -432.062 L 119.559 -430.749 L 129.778 -428.093 L 137.153 -425.374 L 140.028 -425.405 L 150.215 -424.093 L 155.934 -425.718 L 159.809 -447.343 L 162.559 -451.593 L 163.809 -456.03 L 173.871 -459.062 L 175.621 -451.843 L 187.559 -434.874 L 203.403 -438.03 L 213.465 -442.624 L 217.653 -444.03 L 223.528 -445.655 L 237.934 -445.937 L 248.059 -447.468 L 252.278 -447.53 L 258.153 -450.499 L 262.246 -454.968 L 259.371 -454.937 L 259.309 -457.78 L 259.184 -462.187 L 266.34 -468.03 L 267.559 -472.437 L 270.246 -479.562 L 274.465 -486.905 L 281.84 -484.155 L 283.153 -485.53 L 283.059 -488.593 L 290.215 -494.437 L 288.746 -498.624 L 298.746 -497.468 L 304.559 -503.28 L 307.434 -503.343 L 310.121 -510.655 L 310.028 -514.843 L 315.778 -514.968 L 318.434 -523.78 L 321.028 -533.749 L 326.746 -535.405 L 329.59 -536.78 L 332.246 -545.624 L 342.278 -551.53 L 336.403 -555.812 L 327.684 -558.499 L 318.871 -565.405 L 314.309 -571.249 L 319.965 -575.53 L 322.778 -578.468 L 313.84 -589.937 L 315.09 -592.812 L 325.465 -585.749 L 332.903 -580.187 L 338.684 -578.749 L 347.496 -571.843 L 354.871 -568.937 L 359.309 -567.687 L 363.559 -566.249 L 365.278 -559.218 L 373.84 -562.218 L 381.059 -565.218 L 380.965 -568.093 L 399.653 -572.812 L 412.559 -578.78 L 418.309 -578.905 L 415.09 -591.812 L 409.215 -595.905 L 407.496 -603.124 L 407.403 -607.53 L 410.278 -607.562 L 411.778 -608.937 L 412.809 -620.405 L 409.934 -620.343 L 408.559 -621.843 L 414.309 -621.968 L 415.809 -623.53 L 415.778 -624.843 L 409.778 -626.28 L 411.246 -629.155 L 427.09 -632.312 L 440.028 -636.749 L 442.59 -648.437 L 446.59 -657.124 L 455.371 -658.812 L 464.09 -656.093 L 468.434 -659.03 L 472.621 -660.468 L 475.59 -656.312 L 484.309 -660.687 L 500.403 -653.718 L 508.903 -659.78 L 514.715 -657.03 L 553.903 -654.718 L 562.653 -650.687 L 565.653 -646.343 L 571.434 -645.093 L 580.215 -646.593 L 580.059 -652.343 L 574.059 -655.093 L 572.496 -663.843 L 572.371 -668.03 L 582.34 -675.468 L 583.403 -686.937 L 573.246 -686.749 L 567.403 -689.499 L 559.996 -693.749 L 558.559 -698.124 L 555.715 -696.562 L 549.934 -697.968 L 548.309 -700.812 L 555.528 -703.812 L 555.465 -706.655 L 568.371 -711.28 L 569.59 -717.03 L 572.371 -719.968 L 594.246 -720.374 L 600.153 -714.749 L 601.371 -718.968 L 604.215 -720.53 L 608.621 -720.624 L 612.996 -722.03 L 614.09 -732.187 L 608.34 -732.062 L 600.809 -740.718 L 596.434 -746.374 L 596.215 -754.937 L 588.84 -759.187 L 591.653 -760.593 L 592.965 -769.218 L 579.903 -770.499 L 579.715 -777.749 L 573.746 -778.968 L 577.934 -787.624 L 564.84 -788.905 L 590.278 -813.812 L 595.996 -815.468 L 591.684 -819.562 L 584.309 -822.499 L 579.778 -826.593 L 585.028 -846.937 L 584.84 -853.999 L 587.653 -857.093 L 591.684 -871.499 L 590.278 -874.343 L 594.309 -881.655 L 608.903 -880.405 L 618.903 -879.249 L 629.059 -880.78 L 627.996 -869.312 L 628.153 -863.593 L 626.715 -859.155 L 621.059 -856.187 L 625.559 -851.905 L 628.465 -851.937 L 629.746 -853.499 L 632.59 -854.874 L 637.09 -852.093 L 636.996 -854.968 L 639.809 -858.062 L 638.059 -866.624 L 639.496 -869.53 L 637.934 -870.812 L 652.59 -868.249 L 657.34 -855.343 L 657.403 -852.468 L 663.153 -852.593 L 666.153 -848.437 L 669.09 -845.624 L 673.559 -844.187 L 670.621 -838.405 L 672.278 -834.062 L 675.153 -834.093 L 673.684 -838.468 L 682.34 -838.624 L 686.215 -851.687 L 693.465 -853.155 L 693.309 -859.062 L 696.215 -857.593 L 701.903 -860.562 L 703.403 -862.124 L 709.309 -856.312 L 717.903 -857.999 L 716.465 -860.843 L 721.996 -869.53 L 718.996 -875.374 L 720.278 -876.749 L 717.403 -876.687 L 717.34 -879.562 L 714.34 -883.874 L 717.028 -891.187 L 729.903 -898.499 L 732.465 -910.187 L 729.465 -915.843 L 739.528 -918.905 L 743.809 -924.718 L 740.84 -927.53 L 743.496 -936.155 L 740.403 -944.874 L 740.371 -946.218 L 734.121 -957.749 L 725.434 -960.437 L 721.153 -961.718 L 712.528 -954.28 L 708.371 -951.343 L 698.028 -958.405 L 703.559 -967.093 L 709.246 -970.062 L 709.34 -965.874 L 710.903 -965.905 L 720.684 -980.405 L 723.59 -979.124 L 732.153 -982.155 L 736.371 -989.28 L 743.278 -996.655 L 748.84 -1004.03 L 751.934 -1004.092 L 756.184 -1002.624 L 759.028 -1004.217 L 751.59 -1017.061 L 755.746 -1019.999 L 755.621 -1024.374 L 752.684 -1027.186 L 755.434 -1031.436 L 755.403 -1032.967 L 753.871 -1040.186 L 757.746 -1053.061 L 759.246 -1054.624 L 762.153 -1053.124 L 763.434 -1056.217 L 767.778 -1059.155 L 770.465 -1066.28 L 771.621 -1080.812 L 769.934 -1086.499 L 774.215 -1092.312 L 778.34 -1095.249 L 784.184 -1099.749 L 789.934 -1099.843 L 791.215 -1102.75 L 788.215 -1107.062 L 789.684 -1109.968 L 787.996 -1115.656 L 785.028 -1118.468 L 780.746 -1121.25 L 777.84 -1115.468 L 776.59 -1111.062 L 772.121 -1113.843 L 771.996 -1118.218 L 773.371 -1123.968 L 774.528 -1131.25 L 784.34 -1145.75 L 784.278 -1148.625 L 784.153 -1153 L 785.528 -1158.75 L 798.684 -1154.593 L 804.371 -1157.781 L 808.465 -1162.031 L 808.246 -1170.625 L 799.59 -1172 L 795.246 -1176.312 L 798.059 -1179.218 L 799.215 -1186.312 L 800.684 -1189.375 L 797.715 -1192.187 L 790.278 -1197.781 L 790.184 -1201.968 L 801.153 -1222.406 L 806.996 -1219.656 L 815.59 -1228.406 L 818.34 -1232.843 L 816.621 -1240.062 L 818.028 -1245.843 L 815.028 -1249.968 L 814.09 -1250.875 L 814.09 -1256.531 L 801.621 -1261.062 L 796.715 -1256.125 L 781.621 -1264.062 L 774.809 -1272.75 L 772.934 -1271.25 L 775.184 -1286.718 L 790.684 -1299.187 L 791.809 -1304.843 L 781.621 -1312.406 L 778.434 -1321.437 L 778.465 -1321.437 L 778.371 -1324.312 L 785.371 -1328.656 L 782.153 -1341.562 L 769.059 -1344.187 L 770.496 -1347.062 L 776.215 -1348.718 L 784.84 -1348.875 L 789.246 -1348.937 L 790.84 -1347.437 L 799.34 -1351.999 L 802.34 -1347.655 L 813.84 -1347.874 L 815.371 -1347.905 L 819.403 -1355.249 L 831.121 -1355.436 L 841.278 -1355.624 L 847.059 -1354.405 L 854.059 -1358.749 L 859.996 -1358.843 L 859.934 -1361.718 L 865.559 -1366.218 L 874.278 -1363.499 L 881.528 -1364.968 L 882.746 -1365.936 C 882.151 -1369.523 881.489 -1373.69 880.965 -1377.843 C 880.418 -1382.181 880.028 -1386.472 880.028 -1389.968 C 880.028 -1391.894 880.513 -1394.818 880.934 -1397.561 C 881.144 -1398.933 881.329 -1400.255 881.434 -1401.374 C 881.539 -1402.493 881.574 -1403.407 881.434 -1403.968 C 881.264 -1404.648 879.849 -1408.332 878.84 -1411.843 C 878.336 -1413.598 877.945 -1415.319 877.84 -1416.593 C 877.788 -1417.23 877.81 -1417.756 877.934 -1418.124 C 878.057 -1418.492 878.271 -1418.686 878.621 -1418.686 C 880.33 -1418.686 881.594 -1418.719 882.559 -1418.811 C 883.524 -1418.904 884.198 -1419.086 884.778 -1419.405 C 885.357 -1419.725 885.82 -1420.162 886.371 -1420.843 C 886.923 -1421.523 887.551 -1422.447 888.434 -1423.624 C 889.724 -1425.344 892.104 -1427.836 893.403 -1430.061 C 893.727 -1430.618 893.964 -1431.151 894.121 -1431.655 C 894.279 -1432.16 894.354 -1432.642 894.278 -1433.061 C 894.201 -1433.481 893.998 -1433.854 893.621 -1434.155 C 893.244 -1434.456 892.679 -1434.663 891.934 -1434.811 C 889.505 -1435.297 887.274 -1435.801 885.184 -1436.624 C 884.139 -1437.035 883.128 -1437.534 882.153 -1438.155 C 881.177 -1438.777 880.225 -1439.521 879.309 -1440.436 C 878.582 -1441.163 877.71 -1441.737 876.746 -1442.124 C 875.782 -1442.511 874.753 -1442.703 873.746 -1442.686 C 872.74 -1442.67 871.756 -1442.45 870.903 -1441.968 C 870.049 -1441.485 869.315 -1440.761 868.809 -1439.749 C 868.549 -1439.229 867.889 -1438.161 866.996 -1436.968 C 866.104 -1435.775 864.976 -1434.432 863.84 -1433.405 C 863.272 -1432.892 862.708 -1432.47 862.153 -1432.155 C 861.597 -1431.841 861.054 -1431.635 860.559 -1431.624 C 860.064 -1431.613 859.601 -1431.789 859.215 -1432.186 C 858.829 -1432.584 858.505 -1433.213 858.278 -1434.124 C 858.012 -1435.187 858.087 -1435.969 858.34 -1436.593 C 858.593 -1437.216 859.04 -1437.692 859.559 -1438.186 C 860.078 -1438.681 860.652 -1439.167 861.184 -1439.843 C 861.716 -1440.518 862.205 -1441.363 862.496 -1442.53 C 862.941 -1444.307 863.343 -1446.856 863.528 -1449.436 C 863.62 -1450.727 863.67 -1452.032 863.621 -1453.249 C 863.573 -1454.466 863.424 -1455.6 863.184 -1456.561 C 862.761 -1458.252 862.039 -1460.496 861.778 -1462.686 C 861.647 -1463.782 861.637 -1464.852 861.84 -1465.843 C 862.044 -1466.834 862.45 -1467.734 863.184 -1468.468 C 863.735 -1469.019 864.11 -1469.503 864.34 -1469.936 C 864.571 -1470.37 864.675 -1470.778 864.653 -1471.124 C 864.63 -1471.47 864.486 -1471.771 864.278 -1472.061 C 864.069 -1472.352 863.792 -1472.607 863.465 -1472.874 C 862.812 -1473.407 861.996 -1473.935 861.278 -1474.561 C 860.918 -1474.875 860.583 -1475.209 860.309 -1475.593 C 860.035 -1475.976 859.805 -1476.42 859.684 -1476.905 C 859.343 -1478.268 858.909 -1479.241 858.403 -1479.999 C 857.896 -1480.757 857.335 -1481.298 856.715 -1481.78 C 856.096 -1482.262 855.426 -1482.683 854.746 -1483.218 C 854.067 -1483.752 853.371 -1484.396 852.684 -1485.311 C 851.958 -1486.279 851.052 -1488.019 849.809 -1489.53 C 849.188 -1490.286 848.482 -1490.993 847.684 -1491.499 C 846.885 -1492.005 845.973 -1492.311 844.965 -1492.311 C 842.781 -1492.311 840.87 -1492.08 839.059 -1491.968 C 838.153 -1491.912 837.281 -1491.895 836.403 -1491.937 C 835.525 -1491.979 834.641 -1492.088 833.746 -1492.312 C 832.182 -1492.703 829.761 -1492.679 827.278 -1492.749 C 826.036 -1492.784 824.797 -1492.861 823.621 -1492.999 C 822.446 -1493.138 821.346 -1493.353 820.434 -1493.718 C 817.772 -1494.783 815.936 -1495.273 814.465 -1496.124 C 813.73 -1496.55 813.089 -1497.051 812.465 -1497.781 C 811.842 -1498.51 811.256 -1499.448 810.621 -1500.718 C 809.907 -1502.147 807.965 -1505.386 806.215 -1508.656 C 805.34 -1510.29 804.514 -1511.934 803.903 -1513.374 C 803.291 -1514.815 802.903 -1516.033 802.903 -1516.843 C 802.903 -1518.103 803.312 -1519.484 803.903 -1520.906 C 804.494 -1522.327 805.274 -1523.809 806.028 -1525.249 C 806.781 -1526.689 807.51 -1528.092 807.996 -1529.406 C 808.24 -1530.062 808.4 -1530.682 808.496 -1531.281 C 808.593 -1531.879 808.632 -1532.446 808.528 -1532.968 C 808.352 -1533.848 807.855 -1534.752 807.246 -1535.656 C 806.638 -1536.559 805.912 -1537.477 805.215 -1538.374 C 804.518 -1539.271 803.844 -1540.14 803.403 -1540.999 C 802.961 -1541.859 802.744 -1542.708 802.903 -1543.499 C 803.259 -1545.281 803.836 -1547.127 804.559 -1548.906 C 805.282 -1550.684 806.163 -1552.385 807.09 -1553.937 C 808.017 -1555.489 808.998 -1556.868 809.965 -1557.968 C 810.007 -1558.015 810.048 -1558.015 810.09 -1558.062 L 807.715 -1560.5 L 791.903 -1549.343 L 785.371 -1550.437 L 772.278 -1559.875 L 769.559 -1560.031 L 767.809 -1557.937 L 764.121 -1545.343 L 764.934 -1542.156 L 751.84 -1527.312 L 738.903 -1525.562 L 720.715 -1517.718 L 710.496 -1511.031 L 704.184 -1511.593 L 697.746 -1512.156 L 680.809 -1497.937 L 658.465 -1493.312 L 656.871 -1493 L 628.153 -1496.5 L 626.559 -1496.656 L 625.434 -1497.156 L 624.496 -1497.468 L 620.184 -1498.906 L 611.403 -1505.906 L 608.371 -1525.062 L 595.746 -1539.906 L 595.278 -1542.312 L 596.559 -1547.75 L 616.653 -1564.656 L 618.746 -1567.843 L 619.871 -1573.437 L 619.371 -1577.75 L 608.059 -1596.875 L 603.434 -1598.156 L 599.309 -1597.375 L 594.309 -1596.406 L 590.653 -1598.312 L 589.215 -1610.781 L 594.496 -1620.5 L 597.028 -1631.843 L 592.715 -1643.5 L 592.559 -1647.312 L 599.121 -1652.437 L 602.153 -1661.531 L 584.278 -1707.5 L 563.528 -1744.187 L 547.871 -1755.531 L 543.903 -1759.843 L 544.059 -1766.687 L 541.34 -1770.687 L 535.59 -1774.187 L 526.34 -1774.531 L 490.746 -1774.687 L 467.59 -1772.281 L 453.715 -1777.406 L 447.496 -1777.875 L 432.496 -1773.718 L 425.309 -1770.531 L 412.528 -1764.781 L 407.903 -1764.312 L 399.621 -1766.218 L 385.559 -1778.343 L 379.34 -1790.625 L 375.684 -1804.687 L 371.371 -1809.312 L 370.715 -1809.781 L 353.496 -1830.062 L 345.84 -1836.437 L 318.715 -1837.718 L 311.528 -1840.593 L 310.528 -1840.499 L 290.934 -1838.843 L 279.59 -1839.624 L 266.184 -1844.906 L 265.559 -1845.218 L 263.809 -1850.312 L 261.871 -1855.437 L 256.153 -1858.312 L 252.309 -1857.843 L 240.809 -1847.624 L 236.653 -1846.031 L 217.371 -1853.374 L 199.653 -1866.124 L 172.496 -1880.656 L 158.153 -1885.124 L 133.559 -1892.937 L 118.09 -1894.531 L 95.903 -1905.374 L 92.403 -1907.156 L 68.121 -1918.968 Z" style="fill:#ffd071;fill-opacity:1;fill-rule:nonzero;stroke:#000000;stroke-width:2;stroke-miterlimit:4;stroke-dasharray:none;stroke-opacity:0"/>
    
  </g>
</svg>