<?xml version="1.0" encoding="utf-8"?>
<svg viewBox="162.037 130.041 2285.43 2269" xmlns="http://www.w3.org/2000/svg">
  <g id="layer1" transform="matrix(1, 0, 0, 1, 486.040802, 2049.008545)">
    <path style="fill:#fff;fill-opacity:1;fill-rule:nonzero;stroke:#bbbbbb;stroke-width:10;stroke-miterlimit:4;stroke-dasharray:none;stroke-opacity:1" d="M 68.623 -1918.938 L 58.409 -1915.906 L 50.588 -1901.383 L 49.791 -1900.106 L 42.449 -1894.839 L 43.247 -1869.783 L 41.811 -1860.845 L 28.405 -1843.769 L 28.086 -1838.821 L 39.257 -1831.48 L 36.544 -1821.426 L 34.469 -1818.553 L 33.831 -1812.648 L 39.896 -1800.997 L 40.853 -1794.773 L 41.651 -1788.868 L 46.758 -1777.856 L 46.439 -1759.183 L 51.387 -1748.49 L 50.908 -1741.149 L 49.152 -1741.149 L 50.588 -1734.765 L 53.461 -1729.019 L 63.675 -1717.21 L 65.909 -1710.028 L 64.952 -1702.687 L 68.304 -1696.462 L 68.304 -1688.802 L 72.293 -1681.939 L 78.039 -1677.471 L 85.061 -1675.396 L 90.647 -1670.448 L 98.308 -1669.81 L 105.17 -1672.364 L 114.586 -1669.331 L 118.097 -1664.703 L 118.097 -1660.075 L 117.299 -1655.127 L 113.629 -1651.776 L 111.873 -1641.242 L 112.352 -1635.656 L 111.394 -1624.485 L 108.043 -1615.228 L 104.532 -1611.717 L 99.904 -1602.62 L 98.467 -1597.673 L 98.467 -1592.725 L 93.839 -1590.97 L 86.817 -1584.107 L 85.221 -1578.362 L 88.094 -1574.212 L 93.36 -1568.786 L 94.158 -1560.806 L 81.55 -1552.188 L 74.528 -1556.178 L 67.665 -1553.465 L 64.154 -1546.602 L 64.314 -1539.58 L 67.505 -1533.515 L 75.326 -1526.493 L 75.326 -1521.865 L 70.538 -1517.396 L 72.612 -1512.608 L 72.293 -1506.224 L 76.603 -1502.235 L 77.4 -1497.287 L 82.029 -1495.851 L 85.38 -1491.063 L 90.487 -1488.19 L 92.243 -1483.721 L 95.116 -1479.253 L 97.19 -1474.625 L 98.308 -1468.879 L 97.669 -1463.453 L 99.744 -1453.718 L 102.776 -1448.132 L 100.542 -1443.344 L 102.936 -1438.396 L 100.223 -1433.768 L 103.095 -1427.225 L 102.297 -1421.798 L 104.372 -1417.17 L 99.904 -1395.625 L 101.34 -1390.518 L 101.34 -1385.889 L 104.212 -1381.74 L 104.212 -1376.792 L 99.744 -1374.079 L 96.871 -1369.77 L 96.392 -1364.823 L 100.542 -1362.11 L 99.744 -1352.534 L 96.552 -1349.023 L 95.275 -1344.235 L 95.275 -1339.288 L 98.786 -1335.138 L 97.35 -1325.722 L 95.275 -1320.455 L 91.924 -1316.146 L 92.562 -1311.199 L 91.126 -1306.411 L 87.455 -1301.463 L 85.38 -1296.835 L 81.391 -1293.803 L 79.954 -1289.175 L 79.156 -1283.589 L 79.156 -1278.162 L 76.443 -1274.013 L 76.922 -1268.268 L 75.645 -1258.851 L 69.9 -1248.956 L 70.378 -1241.455 L 65.59 -1231.88 L 65.59 -1227.092 L 70.378 -1227.092 L 77.4 -1224.538 L 77.241 -1217.835 L 70.697 -1214.005 L 65.75 -1207.462 L 66.867 -1200.12 L 66.867 -1194.694 L 70.378 -1190.864 L 44.843 -1109.789 L 39.576 -1104.682 L 29.841 -1091.276 L 33.193 -1087.925 L 17.552 -1059.197 L 11.009 -1052.973 L 6.7 -1046.908 L 5.423 -1041.482 L 5.263 -1041.003 L 3.508 -1036.216 L 0.156 -1031.747 L -4.313 -1029.513 L -11.016 -1031.268 L -18.676 -1026.48 L -27.933 -1013.393 L -33.359 -1007.648 L -32.082 -1000.466 L -25.698 -997.753 L -21.07 -992.008 L -10.537 -987.22 L -9.898 -984.507 L -8.781 -979.878 L -8.621 -972.856 L -9.898 -958.812 L -7.504 -950.034 L -4.951 -944.448 L -9.579 -937.745 L -20.431 -931.521 L -18.995 -926.573 L -19.315 -924.18 L -28.252 -921.786 L -36.551 -922.584 L -42.136 -916.838 L -43.413 -910.135 L -43.573 -902.634 L -46.924 -895.612 L -53.627 -892.26 L -60.65 -892.58 L -68.31 -890.984 L -75.173 -888.43 L -93.845 -864.172 L -96.718 -857.947 L -97.356 -849.648 L -98.952 -842.945 L -103.102 -837.519 L -118.902 -834.008 L -133.106 -832.572 L -142.203 -829.859 L -148.427 -826.667 L -153.853 -821.879 L -156.088 -814.857 L -152.417 -808.632 L -160.078 -809.43 L -166.302 -804.643 L -170.611 -797.301 L -171.728 -789.96 L -173.962 -783.257 L -180.825 -780.065 L -186.411 -774.319 L -192.475 -770.329 L -196.944 -763.307 L -202.37 -758.519 L -206.361 -752.295 L -203.807 -745.592 L -202.53 -738.57 L -199.019 -730.431 L -196.785 -723.728 L -184.496 -711.917 L -184.017 -704.576 L -188.645 -698.99 L -189.443 -691.968 L -183.857 -678.243 L -176.676 -675.211 L -169.494 -676.328 L -154.492 -672.497 L -146.193 -675.53 L -132.468 -675.849 L -126.244 -670.742 L -125.445 -662.922 L -130.552 -655.421 L -130.393 -648.558 L -128.478 -641.376 L -117.625 -631.481 L -116.987 -624.459 L -122.413 -619.512 L -135.5 -603.233 L -141.724 -597.807 L -145.395 -591.263 L -148.587 -583.283 L -150.661 -576.261 L -164.387 -570.356 L -171.409 -569.558 L -178.272 -570.356 L -185.613 -568.282 L -190.56 -558.546 L -190.082 -553.758 L -184.815 -545.459 L -183.857 -540.033 L -183.857 -535.245 L -184.656 -529.5 L -188.167 -520.403 L -186.411 -515.296 L -187.049 -509.87 L -191.359 -506.518 L -192.475 -501.571 L -191.837 -496.783 L -193.912 -491.995 L -195.508 -490.558 L -202.849 -484.973 L -206.201 -480.983 L -210.191 -474.599 L -206.041 -469.651 L -199.178 -464.864 L -179.389 -453.532 L -175.878 -446.031 L -170.451 -440.765 L -170.611 -433.742 L -174.441 -427.837 L -178.112 -426.401 L -178.591 -427.039 L -185.932 -420.017 L -188.645 -415.868 L -186.73 -411.24 L -182.102 -409.165 L -178.431 -405.813 L -173.803 -404.536 L -171.409 -399.749 L -174.761 -390.013 L -179.229 -386.981 L -176.357 -385.704 L -171.409 -380.118 L -170.132 -372.617 L -166.142 -364.318 L -170.132 -358.733 L -171.728 -351.551 L -169.973 -344.209 L -171.249 -337.028 L -171.409 -329.207 L -178.272 -326.813 L -181.623 -320.43 L -187.209 -315.961 L -200.934 -316.121 L -208.595 -310.535 L -212.584 -304.949 L -215.617 -298.246 L -219.128 -284.521 L -217.532 -276.541 L -219.926 -269.678 L -220.724 -262.656 L -222.479 -255.474 L -227.746 -250.686 L -240.035 -242.547 L -248.334 -240.951 L -254.878 -243.345 L -259.346 -236.482 L -259.186 -229.46 L -263.974 -224.194 L -270.837 -223.555 L -277.061 -228.503 L -283.924 -227.385 L -289.51 -221.8 L -290.786 -215.097 L -290.308 -206.798 L -292.542 -199.775 L -293.819 -192.434 L -291.105 -185.731 L -278.817 -176.634 L -283.924 -167.537 L -283.764 -160.036 L -277.859 -156.525 L -275.625 -149.982 L -279.934 -142.959 L -275.784 -136.895 L -269.56 -133.384 L -263.017 -136.576 L -256.154 -135.458 L -253.92 -127.798 L -246.419 -126.202 L -239.556 -127 L -235.566 -120.776 L -241.791 -115.828 L -248.015 -113.434 L -248.015 -106.412 L -241.472 -102.422 L -241.312 -95.56 L -235.885 -90.133 L -233.173 -83.749 L -231.896 -76.568 L -225.193 -72.897 L -231.417 -68.269 L -233.651 -61.087 L -238.439 -55.182 L -241.791 -49.117 L -239.556 -42.095 L -250.728 -32.041 L -252.962 -25.338 L -252.483 -17.677 L -256.314 -10.814 L -261.581 2.592 L -263.017 9.454 L -253.441 20.466 L -253.282 27.329 L -255.675 40.895 L -252.483 46.959 L -243.387 59.567 L -240.195 65.632 L -242.429 72.335 L -247.217 78.4 L -254.718 90.688 L -260.144 95.955 L -266.528 99.626 L -269.4 114.309 L -274.827 119.894 L -283.126 123.565 L -289.19 127.395 L -302.916 133.141 L -309.619 132.981 L -310.417 139.844 L -316.481 143.195 L -321.269 137.929 L -323.504 145.43 L -318.077 149.42 L -315.364 158.197 L -310.736 160.751 L -303.873 161.07 L -296.372 164.741 L -290.148 160.751 L -284.722 155.963 L -278.498 153.09 L -277.221 161.868 L -276.583 175.593 L -272.592 181.818 L -270.039 188.201 L -263.177 184.531 L -256.314 181.977 L -242.908 188.68 L -231.896 199.054 L -227.108 204.64 L -231.896 210.226 L -237.641 214.694 L -241.631 220.28 L -245.302 226.664 L -246.738 233.207 L -239.876 245.975 L -235.247 251.561 L -228.544 255.072 L -221.682 255.231 L -215.457 257.945 L -210.031 263.052 L -203.328 265.446 L -195.987 266.403 L -183.06 270.872 L -168.855 273.585 L -154.492 273.585 L -149.065 278.373 L -143.799 285.714 L -138.373 291.3 L -132.148 294.971 L -125.924 297.684 L -122.732 303.749 L -126.244 310.452 L -123.69 317.314 L -122.413 324.496 L -116.987 329.284 L -110.124 333.752 L -103.421 333.274 L -97.037 337.423 L -89.217 339.498 L -82.195 342.53 L -76.45 345.882 L -66.874 350.031 L -66.874 349.552 L -64.32 337.902 L -48.042 307.579 L -39.424 300.397 L -24.422 279.65 L -11.016 267.999 L -2.717 257.466 L 1.912 255.71 L 25.372 252.997 L 37.661 252.04 L 46.599 251.401 L 55.695 243.262 L 72.134 243.102 L 76.762 240.868 L 89.21 242.623 L 94.956 245.017 L 95.594 248.369 L 83.944 271.67 L 72.293 283.48 L 67.825 287.789 L 63.516 289.066 L 54.419 287.789 L 49.631 284.757 L 38.459 285.395 L 35.427 287.789 L 33.671 292.258 L 26.17 290.502 L 12.285 292.736 L 6.061 291.3 L 2.071 297.365 L -2.397 297.205 L -3.355 300.237 L -2.238 305.504 L 9.253 310.771 L 19.787 314.761 L 21.702 314.601 L 26.17 314.282 L 43.726 317.314 L 52.503 311.888 L 63.356 302.951 L 75.804 290.502 L 91.764 264.967 L 103.095 242.145 L 103.255 241.985 L 103.893 243.102 L 104.053 242.783 L 105.649 241.666 L 105.808 241.347 L 105.808 240.868 L 105.968 240.708 L 106.447 240.708 L 108.043 238.314 L 107.883 237.836 L 112.831 234.165 L 131.504 225.068 L 136.93 218.844 L 144.91 213.577 L 166.135 211.502 L 173.637 207.832 L 177.626 204.161 L 177.148 199.054 L 182.095 196.341 L 187.043 188.999 L 193.905 182.775 L 202.523 174.795 L 206.194 166.656 L 202.364 155.803 L 197.895 150.537 L 194.863 150.696 L 194.863 158.676 L 192.948 162.826 L 186.404 168.571 L 186.245 168.571 L 186.245 167.933 L 184.17 167.135 L 179.701 165.06 L 180.818 163.145 L 179.861 160.272 L 165.019 155.644 L 152.729 142.238 L 140.919 126.757 L 136.451 124.682 L 138.526 120.533 L 132.78 108.244 L 128.471 104.733 L 118.097 101.222 L 106.766 99.785 L 103.415 101.062 L 108.841 105.052 L 110.437 105.531 L 124.96 110.159 L 127.513 112.074 L 128.152 114.947 L 125.279 118.298 L 110.118 121.331 L 104.212 120.692 L 94.317 116.543 L 89.37 112.872 L 82.667 105.052 L 74.208 95.157 L 71.974 88.933 L 73.251 85.103 L 82.029 75.367 L 87.614 73.452 L 96.552 62.759 L 98.148 56.056 L 106.447 44.725 L 122.247 34.99 L 132.301 25.414 L 135.493 20.307 L 142.994 7.38 L 154.166 -2.994 L 165.178 -21.826 L 171.881 -28.529 L 186.724 -52.15 L 202.683 -64.917 L 209.067 -73.376 L 210.822 -75.77 L 218.164 -82.792 L 222.792 -90.931 L 226.622 -92.048 L 230.612 -89.655 L 233.006 -90.293 L 240.507 -101.465 L 242.901 -108.327 L 249.444 -116.786 L 270.192 -138.012 L 278.491 -143.598 L 290.461 -148.226 L 292.854 -149.982 L 297.961 -153.652 L 307.697 -157.163 L 331.317 -162.111 L 337.701 -159.877 L 342.17 -160.355 L 360.683 -168.654 L 368.503 -169.931 L 380.473 -169.293 L 386.697 -167.537 L 392.283 -161.313 L 395.634 -160.675 L 399.145 -155.248 L 404.412 -151.897 L 407.763 -151.099 L 414.147 -159.877 L 413.03 -169.293 L 415.264 -176.315 L 420.691 -182.858 L 428.191 -189.402 L 442.715 -201.85 L 458.355 -206.159 L 480.539 -209.67 L 486.125 -216.693 L 491.551 -217.65 L 497.137 -221.161 L 512.298 -224.194 L 516.767 -222.598 L 523.789 -222.438 L 531.928 -219.725 L 535.599 -221.64 L 540.387 -221.8 L 547.25 -225.47 L 556.506 -230.737 L 566.401 -228.183 L 567.359 -228.822 L 572.785 -231.375 L 584.755 -241.27 L 587.947 -243.026 L 622.898 -261.698 L 631.676 -261.858 L 646.359 -266.486 L 662.478 -273.987 L 683.704 -278.935 L 716.262 -284.999 L 729.189 -283.723 L 733.657 -284.201 L 736.53 -284.521 L 748.34 -289.787 L 774.354 -293.458 L 786.324 -301.597 L 795.899 -304.31 L 804.837 -309.737 L 812.019 -309.577 L 847.768 -317.397 L 855.11 -319.632 L 867.239 -328.09 L 878.73 -326.654 L 885.592 -328.888 L 898.36 -327.931 L 911.766 -337.506 L 915.277 -338.783 L 925.332 -338.783 L 946.238 -349.636 L 958.847 -353.147 L 962.517 -354.104 L 988.691 -359.052 L 1025.877 -360.807 L 1067.212 -373.575 L 1076.309 -377.724 L 1094.503 -385.864 L 1113.974 -403.898 L 1118.282 -413.314 L 1119.4 -418.262 L 1122.273 -430.072 L 1138.232 -459.916 L 1139.349 -457.363 L 1135.359 -449.542 L 1137.594 -448.904 L 1144.616 -457.522 L 1149.723 -471.407 L 1155.788 -482.738 L 1168.076 -495.506 L 1177.812 -508.114 L 1180.685 -513.061 L 1181.802 -515.136 L 1189.941 -529.659 L 1194.569 -537.639 L 1203.826 -545.619 L 1208.135 -548.332 L 1224.414 -558.706 L 1249.311 -566.047 L 1270.696 -574.187 L 1300.221 -592.061 L 1315.223 -603.233 L 1346.026 -626.215 L 1353.207 -631.481 L 1378.264 -639.461 L 1389.914 -648.718 L 1408.427 -659.73 L 1414.971 -659.73 L 1426.621 -666.114 L 1446.411 -672.178 L 1454.231 -677.604 L 1457.742 -679.839 L 1476.255 -685.903 L 1488.385 -692.926 L 1507.057 -698.671 L 1549.35 -722.451 L 1564.831 -725.643 L 1568.98 -726.6 L 1571.853 -728.515 L 1573.609 -733.782 L 1576.801 -736.495 L 1578.875 -741.762 L 1581.429 -748.465 L 1593.718 -756.125 L 1602.176 -765.542 L 1622.126 -773.521 L 1639.521 -775.117 L 1645.108 -779.426 L 1651.97 -779.107 L 1659.152 -785.012 L 1662.663 -783.735 L 1667.77 -784.214 L 1682.293 -792.194 L 1690.113 -798.578 L 1707.669 -817.091 L 1715.33 -827.784 L 1722.671 -834.008 L 1727.459 -835.125 L 1732.087 -836.083 L 1733.204 -837.2 L 1733.204 -849.329 L 1733.683 -849.489 L 1737.194 -850.925 L 1749.164 -851.883 L 1751.717 -857.469 L 1758.42 -858.586 L 1765.443 -866.725 L 1772.146 -869.279 L 1776.295 -883.164 L 1780.125 -894.654 L 1802.309 -918.275 L 1811.087 -923.382 L 1817.471 -925.456 L 1818.109 -925.616 L 1821.62 -920.349 L 1824.174 -920.668 L 1832.951 -926.095 L 1833.43 -931.84 L 1835.186 -933.755 L 1838.058 -937.107 L 1840.452 -936.788 L 1842.687 -936.309 L 1853.22 -937.905 L 1857.21 -939.82 L 1859.285 -943.81 L 1862.636 -959.291 L 1868.701 -966.313 L 1876.84 -967.749 L 1878.596 -968.068 L 1881.149 -973.016 L 1880.83 -975.091 L 1880.351 -977.165 L 1881.787 -986.262 L 1883.862 -991.369 L 1887.374 -993.125 L 1888.49 -999.03 L 1887.693 -1005.414 L 1889.289 -1014.511 L 1893.119 -1021.373 L 1896.63 -1023.608 L 1896.63 -1028.874 L 1894.077 -1041.961 L 1890.246 -1046.27 L 1884.022 -1046.111 L 1876.521 -1053.771 L 1872.212 -1059.995 L 1873.648 -1078.987 L 1873.329 -1083.296 L 1870.137 -1089.999 L 1871.414 -1098.937 L 1872.212 -1118.726 L 1873.968 -1123.674 L 1877.479 -1125.11 L 1880.83 -1123.355 L 1884.82 -1127.983 L 1880.351 -1142.506 L 1869.18 -1161.498 L 1866.626 -1165.009 L 1860.402 -1173.787 L 1854.656 -1174.425 L 1854.178 -1177.298 L 1856.093 -1181.448 L 1853.22 -1185.597 L 1846.517 -1185.437 L 1840.612 -1190.544 L 1837.42 -1190.864 L 1834.069 -1186.714 L 1831.834 -1187.033 L 1831.196 -1194.056 L 1823.056 -1198.524 L 1818.907 -1202.993 L 1816.194 -1210.175 L 1814.757 -1220.868 L 1812.683 -1235.231 L 1812.683 -1249.435 L 1810.608 -1256.936 L 1810.927 -1264.597 L 1808.533 -1269.225 L 1806.778 -1273.375 L 1809.491 -1274.811 L 1813.64 -1281.674 L 1819.226 -1304.336 L 1820.663 -1309.922 L 1831.515 -1321.732 L 1843.165 -1331.308 L 1848.272 -1333.382 L 1854.975 -1333.382 L 1856.891 -1330.51 L 1859.444 -1326.679 L 1859.604 -1320.296 L 1861.838 -1317.423 L 1869.818 -1316.625 L 1880.032 -1307.368 L 1883.224 -1306.89 L 1888.171 -1300.027 L 1890.725 -1304.017 L 1893.438 -1308.166 L 1894.236 -1317.104 L 1895.353 -1318.381 L 1899.503 -1317.104 L 1902.216 -1318.54 L 1903.971 -1319.657 L 1904.131 -1319.178 L 1906.844 -1311.039 L 1910.674 -1308.326 L 1918.494 -1307.847 L 1920.25 -1306.73 L 1921.527 -1309.762 L 1920.25 -1311.358 L 1914.664 -1313.433 L 1913.068 -1320.455 L 1929.347 -1324.445 L 1934.295 -1331.148 L 1937.007 -1336.894 L 1930.145 -1347.267 L 1930.464 -1352.215 L 1931.581 -1354.449 L 1935.731 -1352.853 L 1941.157 -1350.938 L 1942.594 -1354.449 L 1937.007 -1359.397 L 1936.688 -1362.11 L 1941.476 -1368.015 L 1939.721 -1370.249 L 1940.678 -1372.324 L 1945.466 -1373.441 L 1951.212 -1381.421 L 1960.468 -1384.293 L 1961.426 -1387.326 L 1960.628 -1389.081 L 1955.68 -1389.72 L 1953.127 -1393.071 L 1947.86 -1393.071 L 1944.19 -1395.625 L 1939.402 -1393.39 L 1932.699 -1401.211 L 1931.9 -1404.881 L 1927.113 -1405.041 L 1921.686 -1409.988 L 1920.41 -1409.669 L 1918.654 -1404.083 L 1915.143 -1403.764 L 1914.345 -1403.764 L 1910.834 -1399.295 L 1908.919 -1402.487 L 1905.408 -1403.924 L 1902.854 -1407.275 L 1903.492 -1413.021 L 1900.141 -1417.011 L 1892.002 -1415.734 L 1887.852 -1418.766 L 1883.862 -1416.372 L 1877.159 -1416.372 L 1875.563 -1412.223 L 1877.159 -1406.956 L 1874.287 -1403.126 L 1872.052 -1403.285 L 1862.796 -1413.021 L 1864.392 -1417.489 L 1858.486 -1419.085 L 1848.592 -1430.097 L 1850.507 -1433.928 L 1849.868 -1436.002 L 1845.56 -1436.8 L 1843.804 -1438.716 L 1844.602 -1440.311 L 1842.527 -1445.897 L 1843.804 -1450.845 L 1848.272 -1456.271 L 1847.475 -1457.548 L 1843.804 -1457.229 L 1842.208 -1459.782 L 1847.794 -1468.4 L 1845.719 -1469.837 L 1842.048 -1469.039 L 1841.729 -1470.794 L 1851.145 -1481.328 L 1852.422 -1487.233 L 1851.305 -1489.627 L 1847.475 -1490.265 L 1846.357 -1492.499 L 1852.582 -1498.564 L 1848.113 -1500.16 L 1845.4 -1500.958 L 1845.24 -1501.117 L 1838.058 -1501.437 L 1837.261 -1501.437 L 1827.206 -1501.596 L 1819.545 -1502.873 L 1815.875 -1502.554 L 1811.725 -1502.554 L 1807.735 -1499.681 L 1804.224 -1496.33 L 1803.586 -1494.734 L 1800.394 -1493.138 L 1797.042 -1493.936 L 1793.531 -1494.734 L 1789.541 -1496.01 L 1782.519 -1501.756 L 1780.125 -1502.873 L 1775.178 -1511.651 L 1772.624 -1513.406 L 1767.517 -1517.396 L 1765.921 -1519.152 L 1762.41 -1527.451 L 1760.016 -1533.834 L 1757.941 -1540.218 L 1756.186 -1541.176 L 1752.994 -1541.176 L 1748.206 -1538.303 L 1740.865 -1533.834 L 1737.992 -1534.154 L 1735.758 -1534.313 L 1733.204 -1536.548 L 1707.669 -1528.887 L 1701.604 -1531.76 L 1691.55 -1532.079 L 1674.632 -1521.865 L 1669.845 -1520.428 L 1662.025 -1519.471 L 1643.192 -1522.344 L 1636.329 -1523.301 L 1630.744 -1522.822 L 1627.871 -1520.907 L 1624.2 -1518.354 L 1597.867 -1492.818 L 1591.164 -1478.774 L 1586.216 -1475.423 L 1571.374 -1475.263 L 1547.754 -1481.168 L 1540.891 -1480.849 L 1526.847 -1477.338 L 1518.229 -1475.103 L 1505.302 -1466.645 L 1491.417 -1452.441 L 1485.512 -1448.291 L 1482.479 -1443.663 L 1486.31 -1430.736 L 1497.322 -1418.766 L 1500.514 -1413.5 L 1501.152 -1409.51 L 1499.876 -1406.637 L 1495.088 -1403.764 L 1486.15 -1402.328 L 1477.532 -1403.605 L 1471.148 -1404.562 L 1446.251 -1413.18 L 1425.504 -1416.691 L 1416.088 -1416.532 L 1396.777 -1403.924 L 1386.722 -1402.647 L 1378.742 -1404.722 L 1369.007 -1405.041 L 1361.666 -1409.35 L 1338.684 -1422.756 L 1333.896 -1425.629 L 1332.3 -1428.98 L 1332.14 -1429.14 L 1327.672 -1432.651 L 1310.914 -1452.92 L 1261.121 -1470.635 L 1259.205 -1471.592 L 1250.427 -1476.22 L 1233.191 -1488.35 L 1196.644 -1492.978 L 1182.121 -1490.424 L 1173.981 -1486.754 L 1167.278 -1480.689 L 1157.224 -1477.019 L 1151 -1476.699 L 1145.733 -1478.934 L 1136.317 -1482.764 L 1117.644 -1484.2 L 1104.557 -1469.996 L 1088.917 -1444.461 L 1075.83 -1432.172 L 1059.232 -1422.916 L 1051.252 -1421.001 L 1042.794 -1418.926 L 1032.42 -1417.968 L 1020.61 -1419.085 L 1013.269 -1421.479 L 1008.321 -1426.427 L 988.372 -1436.96 L 983.584 -1441.748 L 979.594 -1451.164 L 980.233 -1462.974 L 977.679 -1471.592 L 974.327 -1482.764 L 971.774 -1487.552 L 970.338 -1490.265 L 970.178 -1490.903 L 969.539 -1494.574 L 969.061 -1496.489 L 966.348 -1499.841 L 961.879 -1505.746 L 953.421 -1512.449 L 944.802 -1513.406 L 941.61 -1511.491 L 937.78 -1509.257 L 931.556 -1509.736 L 903.946 -1527.291 L 893.413 -1538.622 L 880.804 -1547.081 L 837.714 -1546.762 L 835.479 -1547.56 L 814.093 -1554.422 L 808.189 -1560.487 L 792.388 -1549.315 L 785.845 -1550.433 L 772.758 -1559.849 L 770.045 -1560.008 L 768.29 -1557.933 L 764.619 -1545.325 L 765.417 -1542.134 L 752.33 -1527.291 L 739.403 -1525.536 L 721.209 -1517.715 L 710.995 -1511.012 L 698.227 -1512.129 L 681.31 -1497.925 L 658.966 -1493.297 L 657.371 -1492.978 L 628.643 -1496.489 L 627.047 -1496.649 L 625.93 -1497.128 L 624.973 -1497.447 L 620.664 -1498.883 L 611.886 -1505.905 L 608.854 -1525.057 L 596.246 -1539.899 L 595.767 -1542.293 L 597.043 -1547.719 L 617.152 -1564.637 L 619.227 -1567.828 L 620.344 -1573.414 L 619.866 -1577.723 L 608.534 -1596.875 L 603.906 -1598.152 L 594.809 -1596.396 L 591.139 -1598.311 L 589.702 -1610.76 L 594.969 -1620.495 L 597.522 -1631.826 L 593.213 -1643.477 L 593.054 -1647.307 L 599.597 -1652.414 L 602.63 -1661.511 L 584.755 -1707.475 L 564.007 -1744.181 L 548.367 -1755.512 L 544.377 -1759.822 L 544.537 -1766.684 L 541.823 -1770.674 L 536.078 -1774.185 L 526.821 -1774.504 L 491.232 -1774.664 L 468.09 -1772.27 L 454.206 -1777.377 L 447.981 -1777.856 L 432.979 -1773.706 L 425.798 -1770.514 L 413.03 -1764.769 L 408.402 -1764.29 L 400.103 -1766.205 L 386.058 -1778.335 L 379.834 -1790.623 L 376.163 -1804.668 L 371.854 -1809.296 L 371.216 -1809.775 L 353.98 -1830.044 L 346.319 -1836.428 L 319.188 -1837.704 L 312.006 -1840.577 L 291.418 -1838.821 L 280.087 -1839.619 L 266.681 -1844.886 L 266.042 -1845.205 L 264.287 -1850.312 L 262.372 -1855.419 L 256.626 -1858.292 L 252.796 -1857.813 L 241.305 -1847.599 L 237.156 -1846.003 L 217.844 -1853.345 L 200.13 -1866.112 L 172.998 -1880.635 L 158.635 -1885.104 L 134.057 -1892.924 L 118.576 -1894.52 L 96.392 -1905.373 L 92.881 -1907.128 L 68.623 -1918.938 Z M 991.564 -1554.582 L 990.447 -1553.784 L 989.01 -1549.156 L 974.487 -1532.558 L 971.455 -1517.237 L 979.913 -1511.332 L 985.18 -1509.736 L 1010.077 -1507.022 L 1011.992 -1510.853 L 1011.353 -1512.608 L 1010.715 -1514.204 L 1008.96 -1517.077 L 1002.257 -1521.865 L 998.746 -1524.418 L 995.554 -1532.398 L 995.873 -1535.75 L 997.947 -1552.667 L 994.436 -1553.784 L 991.564 -1554.582 Z" id="path221"/>
    <path id="path5845" d="M 937.371 -1386.249 L 928.778 -1384.562 L 926.028 -1380.312 L 921.653 -1378.687 L 915.934 -1377.249 L 914.403 -1377.218 L 908.684 -1375.593 L 905.778 -1377.062 L 900.09 -1374.093 L 891.559 -1369.562 L 887.153 -1369.468 L 881.528 -1364.968 L 874.278 -1363.499 L 865.559 -1366.218 L 859.934 -1361.718 L 859.996 -1358.843 L 854.059 -1358.749 L 847.059 -1354.405 L 841.278 -1355.624 L 831.121 -1355.437 L 819.403 -1355.249 L 815.371 -1347.905 L 813.84 -1347.874 L 802.34 -1347.656 L 799.34 -1351.999 L 790.84 -1347.437 L 789.246 -1348.937 L 784.84 -1348.875 L 776.215 -1348.719 L 770.496 -1347.062 L 769.059 -1344.187 L 782.153 -1341.562 L 785.371 -1328.656 L 778.371 -1324.312 L 778.465 -1321.437 L 778.434 -1321.437 L 781.621 -1312.406 L 791.809 -1304.844 L 790.684 -1299.187 L 775.184 -1286.719 L 772.934 -1271.25 L 774.809 -1272.75 L 781.621 -1264.062 L 796.715 -1256.125 L 801.621 -1261.062 L 814.09 -1256.531 L 814.09 -1250.875 L 815.028 -1249.969 L 818.028 -1245.844 L 816.621 -1240.062 L 818.34 -1232.844 L 815.59 -1228.406 L 806.996 -1219.656 L 801.153 -1222.406 L 790.184 -1201.969 L 790.278 -1197.781 L 797.715 -1192.187 L 800.684 -1189.375 L 799.215 -1186.312 L 798.059 -1179.219 L 795.246 -1176.312 L 799.59 -1172 L 808.246 -1170.625 L 808.465 -1162.031 L 804.371 -1157.781 L 798.684 -1154.594 L 785.528 -1158.75 L 784.153 -1153 L 784.278 -1148.625 L 784.34 -1145.75 L 774.528 -1131.25 L 773.371 -1123.969 L 771.996 -1118.219 L 772.121 -1113.844 L 776.59 -1111.062 L 777.84 -1115.469 L 780.746 -1121.25 L 785.028 -1118.469 L 787.996 -1115.656 L 789.684 -1109.969 L 788.215 -1107.062 L 791.215 -1102.75 L 789.934 -1099.844 L 784.184 -1099.75 L 778.34 -1095.25 L 774.215 -1092.312 L 769.934 -1086.5 L 771.621 -1080.812 L 770.465 -1066.281 L 767.778 -1059.155 L 763.434 -1056.218 L 762.153 -1053.124 L 759.246 -1054.624 L 757.746 -1053.062 L 753.871 -1040.187 L 755.403 -1032.968 L 755.434 -1031.437 L 752.684 -1027.187 L 755.621 -1024.374 L 755.746 -1019.999 L 751.59 -1017.062 L 759.028 -1004.218 L 756.184 -1002.624 L 751.934 -1004.093 L 748.84 -1004.031 L 743.278 -996.656 L 736.371 -989.281 L 732.153 -982.156 L 723.59 -979.125 L 720.684 -980.406 L 710.903 -965.906 L 709.34 -965.875 L 709.246 -970.062 L 703.559 -967.093 L 698.028 -958.406 L 708.371 -951.343 L 712.528 -954.281 L 721.153 -961.718 L 725.434 -960.437 L 734.121 -957.75 L 740.371 -946.218 L 740.403 -944.875 L 743.496 -936.156 L 740.84 -927.531 L 743.809 -924.718 L 739.528 -918.906 L 729.465 -915.843 L 732.465 -910.187 L 729.903 -898.5 L 717.028 -891.187 L 714.34 -883.875 L 717.34 -879.562 L 717.403 -876.687 L 720.278 -876.75 L 718.996 -875.375 L 721.996 -869.531 L 716.465 -860.843 L 717.903 -858 L 709.309 -856.312 L 703.403 -862.125 L 701.903 -860.562 L 696.215 -857.593 L 693.309 -859.062 L 693.465 -853.156 L 686.215 -851.687 L 682.34 -838.625 L 673.684 -838.468 L 675.153 -834.093 L 672.278 -834.062 L 670.621 -838.406 L 673.559 -844.187 L 669.09 -845.625 L 666.153 -848.437 L 663.153 -852.593 L 657.403 -852.468 L 657.34 -855.343 L 652.59 -868.25 L 637.934 -870.812 L 639.496 -869.531 L 638.059 -866.625 L 639.809 -858.062 L 636.996 -854.968 L 637.09 -852.093 L 632.59 -854.875 L 629.746 -853.5 L 628.465 -851.937 L 625.559 -851.906 L 621.059 -856.187 L 626.715 -859.156 L 628.153 -863.593 L 627.996 -869.312 L 629.059 -880.781 L 618.903 -879.25 L 608.903 -880.406 L 594.309 -881.656 L 590.278 -874.343 L 591.684 -871.5 L 587.653 -857.093 L 584.84 -854 L 585.028 -846.937 L 579.778 -826.593 L 584.309 -822.5 L 591.684 -819.562 L 595.996 -815.468 L 590.278 -813.812 L 564.84 -788.906 L 577.934 -787.625 L 573.746 -778.968 L 579.715 -777.75 L 579.903 -770.5 L 592.965 -769.218 L 591.653 -760.593 L 588.84 -759.187 L 596.215 -754.937 L 596.434 -746.375 L 600.809 -740.718 L 608.34 -732.062 L 614.09 -732.187 L 612.996 -722.031 L 608.621 -720.625 L 604.215 -720.531 L 601.371 -718.968 L 600.153 -714.75 L 594.246 -720.375 L 572.371 -719.968 L 569.59 -717.031 L 568.371 -711.281 L 555.465 -706.656 L 555.528 -703.812 L 548.309 -700.812 L 549.934 -697.968 L 555.715 -696.562 L 558.559 -698.125 L 559.996 -693.75 L 567.403 -689.5 L 573.246 -686.75 L 583.403 -686.937 L 582.34 -675.468 L 572.371 -668.031 L 572.496 -663.843 L 583.996 -664.062 L 586.746 -668.312 L 593.996 -669.968 L 617.559 -657.406 L 600.434 -644.125 L 603.434 -639.781 L 612.215 -641.468 L 613.653 -637.093 L 613.965 -625.656 L 605.246 -628.375 L 598.153 -620.968 L 582.153 -623.531 L 577.965 -614.875 L 576.778 -609.125 L 576.934 -603.406 L 579.84 -601.937 L 581.465 -597.75 L 587.309 -595 L 591.59 -592.218 L 593.09 -593.593 L 594.528 -590.75 L 607.621 -588.125 L 616.653 -581.031 L 616.684 -579.718 L 622.434 -579.812 L 626.715 -577.031 L 632.653 -577.125 L 634.184 -569.906 L 640.028 -567.156 L 641.715 -561.468 L 641.934 -552.687 L 629.309 -536.593 L 633.871 -530.968 L 633.934 -528.093 L 648.309 -528.375 L 648.34 -526.843 L 641.153 -523.843 L 636.871 -525.281 L 635.528 -518.031 L 641.371 -515.25 L 640.09 -512.375 L 638.621 -509.468 L 641.59 -506.687 L 644.746 -495.281 L 640.621 -492.156 L 637.934 -485.031 L 635.184 -479.25 L 633.778 -474.843 L 659.528 -488.312 L 666.965 -482.718 L 679.871 -480.093 L 687.403 -471.437 L 690.465 -464.437 L 694.903 -463 L 699.278 -464.593 L 705.09 -461.656 L 705.215 -457.468 L 706.528 -458.812 L 709.434 -457.531 L 711.153 -450.312 L 705.434 -448.875 L 696.871 -438.593 L 701.403 -434.281 L 703.153 -425.718 L 707.559 -418.562 L 707.715 -412.843 L 710.59 -412.875 L 722.434 -407.375 L 722.465 -405.843 L 718.309 -395.656 L 718.434 -391.468 L 719.965 -391.5 L 728.746 -385.937 L 736.09 -383.187 L 738.809 -390.312 L 745.778 -394.843 L 747.34 -393.343 L 747.496 -387.625 L 748.84 -387.625 L 747.684 -380.375 L 743.434 -374.562 L 747.996 -368.906 L 743.715 -363.093 L 743.746 -361.593 L 742.59 -354.5 L 739.715 -354.437 L 733.903 -349.937 L 728.059 -352.687 L 725.184 -352.656 L 725.153 -354.187 L 723.778 -355.5 L 722.184 -356.968 L 704.871 -359.531 L 709.215 -353.875 L 709.371 -348.156 L 715.465 -335.281 L 722.778 -333.906 L 728.496 -335.531 L 734.371 -331.25 L 738.903 -326.937 L 743.403 -322.812 L 749.121 -324.281 L 750.371 -328.687 L 751.84 -331.562 L 757.496 -334.531 L 760.528 -328.875 L 759.403 -320.25 L 762.371 -317.437 L 766.809 -308.75 L 765.496 -307.375 L 762.496 -311.531 L 758.09 -311.437 L 758.309 -302.875 L 761.371 -295.656 L 762.59 -291.875 L 762.996 -291.937 L 773.871 -293.468 L 785.84 -301.625 L 795.403 -304.312 L 804.34 -309.75 L 811.528 -309.593 L 847.278 -317.406 L 854.621 -319.656 L 866.746 -328.093 L 878.246 -326.656 L 885.09 -328.906 L 897.871 -327.937 L 911.278 -337.531 L 914.778 -338.812 L 924.84 -338.812 L 945.746 -349.656 L 958.371 -353.156 L 962.028 -354.125 L 983.871 -358.25 L 988.215 -359.062 L 1025.403 -360.812 L 1066.715 -373.593 L 1075.809 -377.75 L 1094.028 -385.875 L 1113.496 -403.906 L 1117.809 -413.343 L 1118.903 -418.281 L 1119.246 -419.718 L 1121.778 -430.093 L 1137.121 -448.906 L 1144.121 -457.531 L 1149.246 -471.437 L 1155.309 -482.75 L 1167.59 -495.531 L 1177.34 -508.125 L 1180.184 -513.062 L 1181.309 -515.156 L 1189.465 -529.687 L 1194.09 -537.656 L 1203.34 -545.625 L 1207.653 -548.343 L 1217.184 -554.406 L 1223.934 -558.718 L 1248.809 -566.062 L 1270.215 -574.187 L 1299.746 -592.062 L 1314.746 -603.25 L 1345.528 -626.218 L 1352.715 -631.5 L 1377.778 -639.468 L 1389.434 -648.718 L 1407.934 -659.75 L 1414.496 -659.75 L 1426.121 -666.125 L 1445.934 -672.187 L 1453.746 -677.625 L 1457.246 -679.843 L 1475.778 -685.906 L 1487.903 -692.937 L 1506.559 -698.687 L 1548.871 -722.468 L 1564.34 -725.656 L 1568.496 -726.625 L 1571.62 -728.78 L 1573.391 -733.79 L 1568.465 -737.437 L 1565.434 -742.093 L 1565.372 -743.625 L 1559.309 -756.312 L 1567.716 -765.25 L 1569.028 -773.875 L 1563.903 -801.062 L 1572.591 -806.937 L 1572.466 -811.343 L 1547.747 -809.531 L 1533.747 -818.781 L 1533.559 -820.656 L 1521.341 -826.156 L 1512.903 -822.562 L 1499.997 -823.937 L 1498.278 -828.218 L 1491.216 -829.625 L 1493.966 -823.75 L 1491.028 -822.375 L 1483.653 -828.218 L 1474.684 -830.312 L 1471.934 -825.125 L 1463.309 -825.812 L 1459.372 -819.468 L 1448.528 -816.125 L 1448.653 -816.75 L 1432.809 -813.593 L 1429.872 -815.062 L 1423.966 -813.437 L 1412.622 -807.5 L 1402.341 -811.687 L 1399.278 -818.687 L 1400.684 -823.125 L 1396.153 -828.75 L 1388.716 -834.343 L 1390.216 -835.906 L 1387.216 -840.218 L 1390.028 -843.156 L 1388.341 -848.843 L 1373.872 -851.437 L 1372.341 -851.406 L 1363.559 -856.968 L 1353.216 -864.031 L 1355.841 -874.187 L 1344.434 -869.593 L 1335.684 -873.843 L 1333.934 -882.375 L 1325.122 -889.468 L 1316.497 -889.312 L 1313.122 -890.25 L 1308.841 -886.687 L 1294.716 -889.593 L 1287.341 -893.843 L 1279.278 -889.812 L 1265.403 -895.843 L 1258.716 -908.593 L 1260.716 -917.781 L 1252.216 -926.718 L 1245.278 -939.718 L 1250.216 -950.218 L 1247.966 -951.781 L 1244.153 -961.406 L 1253.559 -973.5 L 1268.341 -967 L 1272.341 -968.343 L 1275.934 -965 L 1278.184 -969.031 L 1278.403 -965.875 L 1282.872 -958.5 L 1288.684 -955.593 L 1290.934 -961.406 L 1298.747 -969.468 L 1304.809 -972.593 L 1306.372 -980.218 L 1316.872 -976.625 L 1318.903 -981.312 L 1323.591 -973.718 L 1333.622 -970.718 L 1334.434 -974.593 L 1340.122 -977.562 L 1344.403 -981.843 L 1350.059 -986.343 L 1351.528 -989.218 L 1358.622 -996.625 L 1358.497 -1000.812 L 1358.341 -1006.718 L 1353.653 -1018.093 L 1346.372 -1017.968 L 1344.934 -1020.781 L 1342.028 -1022.281 L 1337.591 -1023.531 L 1333.184 -1023.437 L 1331.903 -1020.562 L 1327.341 -1026.187 L 1330.028 -1033.499 L 1329.903 -1037.874 L 1325.559 -1043.531 L 1321.153 -1043.437 L 1321.028 -1047.655 L 1328.216 -1052.187 L 1331.153 -1049.374 L 1335.403 -1047.905 L 1336.997 -1046.593 L 1339.872 -1046.655 L 1341.434 -1045.155 L 1345.591 -1048.092 L 1354.216 -1048.249 L 1352.716 -1054.155 L 1357.059 -1057.092 L 1356.934 -1061.28 L 1362.622 -1064.249 L 1349.341 -1072.811 L 1355.028 -1075.78 L 1356.466 -1079.999 L 1357.872 -1077.155 L 1359.497 -1074.311 L 1363.622 -1077.249 L 1372.372 -1080.28 L 1370.716 -1084.655 L 1375.059 -1087.592 L 1367.716 -1090.311 L 1367.497 -1098.905 L 1370.372 -1098.967 L 1373.153 -1102.061 L 1375.903 -1107.842 L 1374.497 -1109.154 L 1361.122 -1121.873 L 1358.122 -1127.561 L 1365.091 -1132.061 L 1367.903 -1134.998 L 1367.809 -1137.842 L 1363.465 -1143.498 L 1354.84 -1143.342 L 1350.497 -1140.404 L 1348.809 -1146.092 L 1345.84 -1149.092 L 1338.684 -1151.811 L 1334.247 -1153.061 L 1332.809 -1148.842 L 1319.997 -1139.842 L 1315.809 -1138.404 L 1311.372 -1139.654 L 1303.903 -1146.779 L 1303.809 -1149.654 L 1300.84 -1153.967 L 1294.84 -1162.467 L 1294.809 -1163.811 L 1293.434 -1165.311 L 1297.403 -1175.498 L 1296.028 -1176.811 L 1282.965 -1176.561 L 1279.934 -1182.404 L 1278.778 -1187.186 L 1277.715 -1187.28 L 1273.215 -1191.311 L 1258.653 -1191.967 L 1239.403 -1186.811 L 1236.715 -1180.092 L 1221.934 -1176.311 L 1230.215 -1184.123 L 1225.747 -1185.467 L 1229.778 -1199.592 L 1227.309 -1205.655 L 1219.684 -1201.592 L 1210.715 -1207.436 L 1213.372 -1212.873 L 1211.059 -1212.842 L 1205.247 -1214.061 L 1202.309 -1216.874 L 1197.965 -1213.936 L 1193.84 -1210.999 L 1183.715 -1209.28 L 1180.684 -1215.124 L 1161.965 -1211.936 L 1160.465 -1210.374 L 1159.215 -1205.967 L 1160.715 -1200.249 L 1157.872 -1198.874 L 1154.934 -1201.686 L 1153.497 -1197.249 L 1147.747 -1197.155 L 1143.528 -1197.061 L 1143.372 -1202.811 L 1141.778 -1205.623 L 1124.465 -1206.842 L 1112.903 -1202.217 L 1107.372 -1193.529 L 1098.965 -1184.779 L 1093.122 -1187.561 L 1082.778 -1194.623 L 1081.153 -1197.436 L 1081.09 -1200.311 L 1079.715 -1201.623 L 1079.496 -1210.404 L 1074.965 -1214.498 L 1069.278 -1211.529 L 1059.09 -1212.873 L 1059.153 -1210.029 L 1053.497 -1206.842 L 1051.997 -1205.498 L 1050.622 -1206.811 L 1046.09 -1211.123 L 1043.122 -1213.904 L 1037.403 -1212.467 L 1032.872 -1218.123 L 1026.997 -1222.217 L 1023.809 -1233.811 L 1028.122 -1238.061 L 1029.309 -1244.029 L 1033.622 -1248.279 L 1039.465 -1244.217 L 1049.653 -1244.404 L 1052.372 -1250.154 L 1050.622 -1258.717 L 1053.403 -1261.654 L 1049.153 -1263.092 L 1044.715 -1264.342 L 1042.997 -1278.811 L 1044.215 -1283.029 L 1045.653 -1287.467 L 1038.34 -1288.654 L 1031.122 -1285.654 L 1028.309 -1282.748 L 1023.84 -1292.779 L 1019.278 -1298.436 L 1024.903 -1302.904 L 1026.34 -1307.154 L 1027.434 -1317.279 L 1027.372 -1318.811 L 1032.935 -1326.154 L 1037.122 -1334.842 L 1042.747 -1340.654 L 1044.216 -1343.561 L 1054.216 -1349.467 L 1056.935 -1355.248 L 1052.497 -1356.686 L 1046.653 -1359.436 L 1039.278 -1363.686 L 1033.403 -1367.779 L 1023.122 -1371.998 L 1014.497 -1371.842 L 1007.247 -1370.154 L 1000.122 -1364.311 L 993.028 -1364.186 L 973.935 -1375.467 L 970.966 -1378.279 L 963.841 -1372.404 L 962.122 -1379.436 L 949.028 -1380.717 L 937.372 -1386.248 L 937.371 -1386.249 Z" style="fill:#ffd071;fill-opacity:1;fill-rule:nonzero;stroke:#000000;stroke-width:2;stroke-miterlimit:4;stroke-dasharray:none;stroke-opacity:0"/>
     
  </g>
</svg>