<?xml version="1.0" encoding="utf-8"?>
<svg viewBox="162.037 130.041 2285.43 2269" xmlns="http://www.w3.org/2000/svg">
  <g id="layer1" transform="matrix(1, 0, 0, 1, 486.040802, 2049.008545)">

    <path style="fill:#fff;fill-opacity:1;fill-rule:nonzero;stroke:#bbbbbb;stroke-width:10;stroke-miterlimit:4;stroke-dasharray:none;stroke-opacity:1" d="M 68.623 -1918.938 L 58.409 -1915.906 L 50.588 -1901.383 L 49.791 -1900.106 L 42.449 -1894.839 L 43.247 -1869.783 L 41.811 -1860.845 L 28.405 -1843.769 L 28.086 -1838.821 L 39.257 -1831.48 L 36.544 -1821.426 L 34.469 -1818.553 L 33.831 -1812.648 L 39.896 -1800.997 L 40.853 -1794.773 L 41.651 -1788.868 L 46.758 -1777.856 L 46.439 -1759.183 L 51.387 -1748.49 L 50.908 -1741.149 L 49.152 -1741.149 L 50.588 -1734.765 L 53.461 -1729.019 L 63.675 -1717.21 L 65.909 -1710.028 L 64.952 -1702.687 L 68.304 -1696.462 L 68.304 -1688.802 L 72.293 -1681.939 L 78.039 -1677.471 L 85.061 -1675.396 L 90.647 -1670.448 L 98.308 -1669.81 L 105.17 -1672.364 L 114.586 -1669.331 L 118.097 -1664.703 L 118.097 -1660.075 L 117.299 -1655.127 L 113.629 -1651.776 L 111.873 -1641.242 L 112.352 -1635.656 L 111.394 -1624.485 L 108.043 -1615.228 L 104.532 -1611.717 L 99.904 -1602.62 L 98.467 -1597.673 L 98.467 -1592.725 L 93.839 -1590.97 L 86.817 -1584.107 L 85.221 -1578.362 L 88.094 -1574.212 L 93.36 -1568.786 L 94.158 -1560.806 L 81.55 -1552.188 L 74.528 -1556.178 L 67.665 -1553.465 L 64.154 -1546.602 L 64.314 -1539.58 L 67.505 -1533.515 L 75.326 -1526.493 L 75.326 -1521.865 L 70.538 -1517.396 L 72.612 -1512.608 L 72.293 -1506.224 L 76.603 -1502.235 L 77.4 -1497.287 L 82.029 -1495.851 L 85.38 -1491.063 L 90.487 -1488.19 L 92.243 -1483.721 L 95.116 -1479.253 L 97.19 -1474.625 L 98.308 -1468.879 L 97.669 -1463.453 L 99.744 -1453.718 L 102.776 -1448.132 L 100.542 -1443.344 L 102.936 -1438.396 L 100.223 -1433.768 L 103.095 -1427.225 L 102.297 -1421.798 L 104.372 -1417.17 L 99.904 -1395.625 L 101.34 -1390.518 L 101.34 -1385.889 L 104.212 -1381.74 L 104.212 -1376.792 L 99.744 -1374.079 L 96.871 -1369.77 L 96.392 -1364.823 L 100.542 -1362.11 L 99.744 -1352.534 L 96.552 -1349.023 L 95.275 -1344.235 L 95.275 -1339.288 L 98.786 -1335.138 L 97.35 -1325.722 L 95.275 -1320.455 L 91.924 -1316.146 L 92.562 -1311.199 L 91.126 -1306.411 L 87.455 -1301.463 L 85.38 -1296.835 L 81.391 -1293.803 L 79.954 -1289.175 L 79.156 -1283.589 L 79.156 -1278.162 L 76.443 -1274.013 L 76.922 -1268.268 L 75.645 -1258.851 L 69.9 -1248.956 L 70.378 -1241.455 L 65.59 -1231.88 L 65.59 -1227.092 L 70.378 -1227.092 L 77.4 -1224.538 L 77.241 -1217.835 L 70.697 -1214.005 L 65.75 -1207.462 L 66.867 -1200.12 L 66.867 -1194.694 L 70.378 -1190.864 L 44.843 -1109.789 L 39.576 -1104.682 L 29.841 -1091.276 L 33.193 -1087.925 L 17.552 -1059.197 L 11.009 -1052.973 L 6.7 -1046.908 L 5.423 -1041.482 L 5.263 -1041.003 L 3.508 -1036.216 L 0.156 -1031.747 L -4.313 -1029.513 L -11.016 -1031.268 L -18.676 -1026.48 L -27.933 -1013.393 L -33.359 -1007.648 L -32.082 -1000.466 L -25.698 -997.753 L -21.07 -992.008 L -10.537 -987.22 L -9.898 -984.507 L -8.781 -979.878 L -8.621 -972.856 L -9.898 -958.812 L -7.504 -950.034 L -4.951 -944.448 L -9.579 -937.745 L -20.431 -931.521 L -18.995 -926.573 L -19.315 -924.18 L -28.252 -921.786 L -36.551 -922.584 L -42.136 -916.838 L -43.413 -910.135 L -43.573 -902.634 L -46.924 -895.612 L -53.627 -892.26 L -60.65 -892.58 L -68.31 -890.984 L -75.173 -888.43 L -93.845 -864.172 L -96.718 -857.947 L -97.356 -849.648 L -98.952 -842.945 L -103.102 -837.519 L -118.902 -834.008 L -133.106 -832.572 L -142.203 -829.859 L -148.427 -826.667 L -153.853 -821.879 L -156.088 -814.857 L -152.417 -808.632 L -160.078 -809.43 L -166.302 -804.643 L -170.611 -797.301 L -171.728 -789.96 L -173.962 -783.257 L -180.825 -780.065 L -186.411 -774.319 L -192.475 -770.329 L -196.944 -763.307 L -202.37 -758.519 L -206.361 -752.295 L -203.807 -745.592 L -202.53 -738.57 L -199.019 -730.431 L -196.785 -723.728 L -184.496 -711.917 L -184.017 -704.576 L -188.645 -698.99 L -189.443 -691.968 L -183.857 -678.243 L -176.676 -675.211 L -169.494 -676.328 L -154.492 -672.497 L -146.193 -675.53 L -132.468 -675.849 L -126.244 -670.742 L -125.445 -662.922 L -130.552 -655.421 L -130.393 -648.558 L -128.478 -641.376 L -117.625 -631.481 L -116.987 -624.459 L -122.413 -619.512 L -135.5 -603.233 L -141.724 -597.807 L -145.395 -591.263 L -148.587 -583.283 L -150.661 -576.261 L -164.387 -570.356 L -171.409 -569.558 L -178.272 -570.356 L -185.613 -568.282 L -190.56 -558.546 L -190.082 -553.758 L -184.815 -545.459 L -183.857 -540.033 L -183.857 -535.245 L -184.656 -529.5 L -188.167 -520.403 L -186.411 -515.296 L -187.049 -509.87 L -191.359 -506.518 L -192.475 -501.571 L -191.837 -496.783 L -193.912 -491.995 L -195.508 -490.558 L -202.849 -484.973 L -206.201 -480.983 L -210.191 -474.599 L -206.041 -469.651 L -199.178 -464.864 L -179.389 -453.532 L -175.878 -446.031 L -170.451 -440.765 L -170.611 -433.742 L -174.441 -427.837 L -178.112 -426.401 L -178.591 -427.039 L -185.932 -420.017 L -188.645 -415.868 L -186.73 -411.24 L -182.102 -409.165 L -178.431 -405.813 L -173.803 -404.536 L -171.409 -399.749 L -174.761 -390.013 L -179.229 -386.981 L -176.357 -385.704 L -171.409 -380.118 L -170.132 -372.617 L -166.142 -364.318 L -170.132 -358.733 L -171.728 -351.551 L -169.973 -344.209 L -171.249 -337.028 L -171.409 -329.207 L -178.272 -326.813 L -181.623 -320.43 L -187.209 -315.961 L -200.934 -316.121 L -208.595 -310.535 L -212.584 -304.949 L -215.617 -298.246 L -219.128 -284.521 L -217.532 -276.541 L -219.926 -269.678 L -220.724 -262.656 L -222.479 -255.474 L -227.746 -250.686 L -240.035 -242.547 L -248.334 -240.951 L -254.878 -243.345 L -259.346 -236.482 L -259.186 -229.46 L -263.974 -224.194 L -270.837 -223.555 L -277.061 -228.503 L -283.924 -227.385 L -289.51 -221.8 L -290.786 -215.097 L -290.308 -206.798 L -292.542 -199.775 L -293.819 -192.434 L -291.105 -185.731 L -278.817 -176.634 L -283.924 -167.537 L -283.764 -160.036 L -277.859 -156.525 L -275.625 -149.982 L -279.934 -142.959 L -275.784 -136.895 L -269.56 -133.384 L -263.017 -136.576 L -256.154 -135.458 L -253.92 -127.798 L -246.419 -126.202 L -239.556 -127 L -235.566 -120.776 L -241.791 -115.828 L -248.015 -113.434 L -248.015 -106.412 L -241.472 -102.422 L -241.312 -95.56 L -235.885 -90.133 L -233.173 -83.749 L -231.896 -76.568 L -225.193 -72.897 L -231.417 -68.269 L -233.651 -61.087 L -238.439 -55.182 L -241.791 -49.117 L -239.556 -42.095 L -250.728 -32.041 L -252.962 -25.338 L -252.483 -17.677 L -256.314 -10.814 L -261.581 2.592 L -263.017 9.454 L -253.441 20.466 L -253.282 27.329 L -255.675 40.895 L -252.483 46.959 L -243.387 59.567 L -240.195 65.632 L -242.429 72.335 L -247.217 78.4 L -254.718 90.688 L -260.144 95.955 L -266.528 99.626 L -269.4 114.309 L -274.827 119.894 L -283.126 123.565 L -289.19 127.395 L -302.916 133.141 L -309.619 132.981 L -310.417 139.844 L -316.481 143.195 L -321.269 137.929 L -323.504 145.43 L -318.077 149.42 L -315.364 158.197 L -310.736 160.751 L -303.873 161.07 L -296.372 164.741 L -290.148 160.751 L -284.722 155.963 L -278.498 153.09 L -277.221 161.868 L -276.583 175.593 L -272.592 181.818 L -270.039 188.201 L -263.177 184.531 L -256.314 181.977 L -242.908 188.68 L -231.896 199.054 L -227.108 204.64 L -231.896 210.226 L -237.641 214.694 L -241.631 220.28 L -245.302 226.664 L -246.738 233.207 L -239.876 245.975 L -235.247 251.561 L -228.544 255.072 L -221.682 255.231 L -215.457 257.945 L -210.031 263.052 L -203.328 265.446 L -195.987 266.403 L -183.06 270.872 L -168.855 273.585 L -154.492 273.585 L -149.065 278.373 L -143.799 285.714 L -138.373 291.3 L -132.148 294.971 L -125.924 297.684 L -122.732 303.749 L -126.244 310.452 L -123.69 317.314 L -122.413 324.496 L -116.987 329.284 L -110.124 333.752 L -103.421 333.274 L -97.037 337.423 L -89.217 339.498 L -82.195 342.53 L -76.45 345.882 L -66.874 350.031 L -66.874 349.552 L -64.32 337.902 L -48.042 307.579 L -39.424 300.397 L -24.422 279.65 L -11.016 267.999 L -2.717 257.466 L 1.912 255.71 L 25.372 252.997 L 37.661 252.04 L 46.599 251.401 L 55.695 243.262 L 72.134 243.102 L 76.762 240.868 L 89.21 242.623 L 94.956 245.017 L 95.594 248.369 L 83.944 271.67 L 72.293 283.48 L 67.825 287.789 L 63.516 289.066 L 54.419 287.789 L 49.631 284.757 L 38.459 285.395 L 35.427 287.789 L 33.671 292.258 L 26.17 290.502 L 12.285 292.736 L 6.061 291.3 L 2.071 297.365 L -2.397 297.205 L -3.355 300.237 L -2.238 305.504 L 9.253 310.771 L 19.787 314.761 L 21.702 314.601 L 26.17 314.282 L 43.726 317.314 L 52.503 311.888 L 63.356 302.951 L 75.804 290.502 L 91.764 264.967 L 103.095 242.145 L 103.255 241.985 L 103.893 243.102 L 104.053 242.783 L 105.649 241.666 L 105.808 241.347 L 105.808 240.868 L 105.968 240.708 L 106.447 240.708 L 108.043 238.314 L 107.883 237.836 L 112.831 234.165 L 131.504 225.068 L 136.93 218.844 L 144.91 213.577 L 166.135 211.502 L 173.637 207.832 L 177.626 204.161 L 177.148 199.054 L 182.095 196.341 L 187.043 188.999 L 193.905 182.775 L 202.523 174.795 L 206.194 166.656 L 202.364 155.803 L 197.895 150.537 L 194.863 150.696 L 194.863 158.676 L 192.948 162.826 L 186.404 168.571 L 186.245 168.571 L 186.245 167.933 L 184.17 167.135 L 179.701 165.06 L 180.818 163.145 L 179.861 160.272 L 165.019 155.644 L 152.729 142.238 L 140.919 126.757 L 136.451 124.682 L 138.526 120.533 L 132.78 108.244 L 128.471 104.733 L 118.097 101.222 L 106.766 99.785 L 103.415 101.062 L 108.841 105.052 L 110.437 105.531 L 124.96 110.159 L 127.513 112.074 L 128.152 114.947 L 125.279 118.298 L 110.118 121.331 L 104.212 120.692 L 94.317 116.543 L 89.37 112.872 L 82.667 105.052 L 74.208 95.157 L 71.974 88.933 L 73.251 85.103 L 82.029 75.367 L 87.614 73.452 L 96.552 62.759 L 98.148 56.056 L 106.447 44.725 L 122.247 34.99 L 132.301 25.414 L 135.493 20.307 L 142.994 7.38 L 154.166 -2.994 L 165.178 -21.826 L 171.881 -28.529 L 186.724 -52.15 L 202.683 -64.917 L 209.067 -73.376 L 210.822 -75.77 L 218.164 -82.792 L 222.792 -90.931 L 226.622 -92.048 L 230.612 -89.655 L 233.006 -90.293 L 240.507 -101.465 L 242.901 -108.327 L 249.444 -116.786 L 270.192 -138.012 L 278.491 -143.598 L 290.461 -148.226 L 292.854 -149.982 L 297.961 -153.652 L 307.697 -157.163 L 331.317 -162.111 L 337.701 -159.877 L 342.17 -160.355 L 360.683 -168.654 L 368.503 -169.931 L 380.473 -169.293 L 386.697 -167.537 L 392.283 -161.313 L 395.634 -160.675 L 399.145 -155.248 L 404.412 -151.897 L 407.763 -151.099 L 414.147 -159.877 L 413.03 -169.293 L 415.264 -176.315 L 420.691 -182.858 L 428.191 -189.402 L 442.715 -201.85 L 458.355 -206.159 L 480.539 -209.67 L 486.125 -216.693 L 491.551 -217.65 L 497.137 -221.161 L 512.298 -224.194 L 516.767 -222.598 L 523.789 -222.438 L 531.928 -219.725 L 535.599 -221.64 L 540.387 -221.8 L 547.25 -225.47 L 556.506 -230.737 L 566.401 -228.183 L 567.359 -228.822 L 572.785 -231.375 L 584.755 -241.27 L 587.947 -243.026 L 622.898 -261.698 L 631.676 -261.858 L 646.359 -266.486 L 662.478 -273.987 L 683.704 -278.935 L 716.262 -284.999 L 729.189 -283.723 L 733.657 -284.201 L 736.53 -284.521 L 748.34 -289.787 L 774.354 -293.458 L 786.324 -301.597 L 795.899 -304.31 L 804.837 -309.737 L 812.019 -309.577 L 847.768 -317.397 L 855.11 -319.632 L 867.239 -328.09 L 878.73 -326.654 L 885.592 -328.888 L 898.36 -327.931 L 911.766 -337.506 L 915.277 -338.783 L 925.332 -338.783 L 946.238 -349.636 L 958.847 -353.147 L 962.517 -354.104 L 988.691 -359.052 L 1025.877 -360.807 L 1067.212 -373.575 L 1076.309 -377.724 L 1094.503 -385.864 L 1113.974 -403.898 L 1118.282 -413.314 L 1119.4 -418.262 L 1122.273 -430.072 L 1138.232 -459.916 L 1139.349 -457.363 L 1135.359 -449.542 L 1137.594 -448.904 L 1144.616 -457.522 L 1149.723 -471.407 L 1155.788 -482.738 L 1168.076 -495.506 L 1177.812 -508.114 L 1180.685 -513.061 L 1181.802 -515.136 L 1189.941 -529.659 L 1194.569 -537.639 L 1203.826 -545.619 L 1208.135 -548.332 L 1224.414 -558.706 L 1249.311 -566.047 L 1270.696 -574.187 L 1300.221 -592.061 L 1315.223 -603.233 L 1346.026 -626.215 L 1353.207 -631.481 L 1378.264 -639.461 L 1389.914 -648.718 L 1408.427 -659.73 L 1414.971 -659.73 L 1426.621 -666.114 L 1446.411 -672.178 L 1454.231 -677.604 L 1457.742 -679.839 L 1476.255 -685.903 L 1488.385 -692.926 L 1507.057 -698.671 L 1549.35 -722.451 L 1564.831 -725.643 L 1568.98 -726.6 L 1571.853 -728.515 L 1573.609 -733.782 L 1576.801 -736.495 L 1578.875 -741.762 L 1581.429 -748.465 L 1593.718 -756.125 L 1602.176 -765.542 L 1622.126 -773.521 L 1639.521 -775.117 L 1645.108 -779.426 L 1651.97 -779.107 L 1659.152 -785.012 L 1662.663 -783.735 L 1667.77 -784.214 L 1682.293 -792.194 L 1690.113 -798.578 L 1707.669 -817.091 L 1715.33 -827.784 L 1722.671 -834.008 L 1727.459 -835.125 L 1732.087 -836.083 L 1733.204 -837.2 L 1733.204 -849.329 L 1733.683 -849.489 L 1737.194 -850.925 L 1749.164 -851.883 L 1751.717 -857.469 L 1758.42 -858.586 L 1765.443 -866.725 L 1772.146 -869.279 L 1776.295 -883.164 L 1780.125 -894.654 L 1802.309 -918.275 L 1811.087 -923.382 L 1817.471 -925.456 L 1818.109 -925.616 L 1821.62 -920.349 L 1824.174 -920.668 L 1832.951 -926.095 L 1833.43 -931.84 L 1835.186 -933.755 L 1838.058 -937.107 L 1840.452 -936.788 L 1842.687 -936.309 L 1853.22 -937.905 L 1857.21 -939.82 L 1859.285 -943.81 L 1862.636 -959.291 L 1868.701 -966.313 L 1876.84 -967.749 L 1878.596 -968.068 L 1881.149 -973.016 L 1880.83 -975.091 L 1880.351 -977.165 L 1881.787 -986.262 L 1883.862 -991.369 L 1887.374 -993.125 L 1888.49 -999.03 L 1887.693 -1005.414 L 1889.289 -1014.511 L 1893.119 -1021.373 L 1896.63 -1023.608 L 1896.63 -1028.874 L 1894.077 -1041.961 L 1890.246 -1046.27 L 1884.022 -1046.111 L 1876.521 -1053.771 L 1872.212 -1059.995 L 1873.648 -1078.987 L 1873.329 -1083.296 L 1870.137 -1089.999 L 1871.414 -1098.937 L 1872.212 -1118.726 L 1873.968 -1123.674 L 1877.479 -1125.11 L 1880.83 -1123.355 L 1884.82 -1127.983 L 1880.351 -1142.506 L 1869.18 -1161.498 L 1866.626 -1165.009 L 1860.402 -1173.787 L 1854.656 -1174.425 L 1854.178 -1177.298 L 1856.093 -1181.448 L 1853.22 -1185.597 L 1846.517 -1185.437 L 1840.612 -1190.544 L 1837.42 -1190.864 L 1834.069 -1186.714 L 1831.834 -1187.033 L 1831.196 -1194.056 L 1823.056 -1198.524 L 1818.907 -1202.993 L 1816.194 -1210.175 L 1814.757 -1220.868 L 1812.683 -1235.231 L 1812.683 -1249.435 L 1810.608 -1256.936 L 1810.927 -1264.597 L 1808.533 -1269.225 L 1806.778 -1273.375 L 1809.491 -1274.811 L 1813.64 -1281.674 L 1819.226 -1304.336 L 1820.663 -1309.922 L 1831.515 -1321.732 L 1843.165 -1331.308 L 1848.272 -1333.382 L 1854.975 -1333.382 L 1856.891 -1330.51 L 1859.444 -1326.679 L 1859.604 -1320.296 L 1861.838 -1317.423 L 1869.818 -1316.625 L 1880.032 -1307.368 L 1883.224 -1306.89 L 1888.171 -1300.027 L 1890.725 -1304.017 L 1893.438 -1308.166 L 1894.236 -1317.104 L 1895.353 -1318.381 L 1899.503 -1317.104 L 1902.216 -1318.54 L 1903.971 -1319.657 L 1904.131 -1319.178 L 1906.844 -1311.039 L 1910.674 -1308.326 L 1918.494 -1307.847 L 1920.25 -1306.73 L 1921.527 -1309.762 L 1920.25 -1311.358 L 1914.664 -1313.433 L 1913.068 -1320.455 L 1929.347 -1324.445 L 1934.295 -1331.148 L 1937.007 -1336.894 L 1930.145 -1347.267 L 1930.464 -1352.215 L 1931.581 -1354.449 L 1935.731 -1352.853 L 1941.157 -1350.938 L 1942.594 -1354.449 L 1937.007 -1359.397 L 1936.688 -1362.11 L 1941.476 -1368.015 L 1939.721 -1370.249 L 1940.678 -1372.324 L 1945.466 -1373.441 L 1951.212 -1381.421 L 1960.468 -1384.293 L 1961.426 -1387.326 L 1960.628 -1389.081 L 1955.68 -1389.72 L 1953.127 -1393.071 L 1947.86 -1393.071 L 1944.19 -1395.625 L 1939.402 -1393.39 L 1932.699 -1401.211 L 1931.9 -1404.881 L 1927.113 -1405.041 L 1921.686 -1409.988 L 1920.41 -1409.669 L 1918.654 -1404.083 L 1915.143 -1403.764 L 1914.345 -1403.764 L 1910.834 -1399.295 L 1908.919 -1402.487 L 1905.408 -1403.924 L 1902.854 -1407.275 L 1903.492 -1413.021 L 1900.141 -1417.011 L 1892.002 -1415.734 L 1887.852 -1418.766 L 1883.862 -1416.372 L 1877.159 -1416.372 L 1875.563 -1412.223 L 1877.159 -1406.956 L 1874.287 -1403.126 L 1872.052 -1403.285 L 1862.796 -1413.021 L 1864.392 -1417.489 L 1858.486 -1419.085 L 1848.592 -1430.097 L 1850.507 -1433.928 L 1849.868 -1436.002 L 1845.56 -1436.8 L 1843.804 -1438.716 L 1844.602 -1440.311 L 1842.527 -1445.897 L 1843.804 -1450.845 L 1848.272 -1456.271 L 1847.475 -1457.548 L 1843.804 -1457.229 L 1842.208 -1459.782 L 1847.794 -1468.4 L 1845.719 -1469.837 L 1842.048 -1469.039 L 1841.729 -1470.794 L 1851.145 -1481.328 L 1852.422 -1487.233 L 1851.305 -1489.627 L 1847.475 -1490.265 L 1846.357 -1492.499 L 1852.582 -1498.564 L 1848.113 -1500.16 L 1845.4 -1500.958 L 1845.24 -1501.117 L 1838.058 -1501.437 L 1837.261 -1501.437 L 1827.206 -1501.596 L 1819.545 -1502.873 L 1815.875 -1502.554 L 1811.725 -1502.554 L 1807.735 -1499.681 L 1804.224 -1496.33 L 1803.586 -1494.734 L 1800.394 -1493.138 L 1797.042 -1493.936 L 1793.531 -1494.734 L 1789.541 -1496.01 L 1782.519 -1501.756 L 1780.125 -1502.873 L 1775.178 -1511.651 L 1772.624 -1513.406 L 1767.517 -1517.396 L 1765.921 -1519.152 L 1762.41 -1527.451 L 1760.016 -1533.834 L 1757.941 -1540.218 L 1756.186 -1541.176 L 1752.994 -1541.176 L 1748.206 -1538.303 L 1740.865 -1533.834 L 1737.992 -1534.154 L 1735.758 -1534.313 L 1733.204 -1536.548 L 1707.669 -1528.887 L 1701.604 -1531.76 L 1691.55 -1532.079 L 1674.632 -1521.865 L 1669.845 -1520.428 L 1662.025 -1519.471 L 1643.192 -1522.344 L 1636.329 -1523.301 L 1630.744 -1522.822 L 1627.871 -1520.907 L 1624.2 -1518.354 L 1597.867 -1492.818 L 1591.164 -1478.774 L 1586.216 -1475.423 L 1571.374 -1475.263 L 1547.754 -1481.168 L 1540.891 -1480.849 L 1526.847 -1477.338 L 1518.229 -1475.103 L 1505.302 -1466.645 L 1491.417 -1452.441 L 1485.512 -1448.291 L 1482.479 -1443.663 L 1486.31 -1430.736 L 1497.322 -1418.766 L 1500.514 -1413.5 L 1501.152 -1409.51 L 1499.876 -1406.637 L 1495.088 -1403.764 L 1486.15 -1402.328 L 1477.532 -1403.605 L 1471.148 -1404.562 L 1446.251 -1413.18 L 1425.504 -1416.691 L 1416.088 -1416.532 L 1396.777 -1403.924 L 1386.722 -1402.647 L 1378.742 -1404.722 L 1369.007 -1405.041 L 1361.666 -1409.35 L 1338.684 -1422.756 L 1333.896 -1425.629 L 1332.3 -1428.98 L 1332.14 -1429.14 L 1327.672 -1432.651 L 1310.914 -1452.92 L 1261.121 -1470.635 L 1259.205 -1471.592 L 1250.427 -1476.22 L 1233.191 -1488.35 L 1196.644 -1492.978 L 1182.121 -1490.424 L 1173.981 -1486.754 L 1167.278 -1480.689 L 1157.224 -1477.019 L 1151 -1476.699 L 1145.733 -1478.934 L 1136.317 -1482.764 L 1117.644 -1484.2 L 1104.557 -1469.996 L 1088.917 -1444.461 L 1075.83 -1432.172 L 1059.232 -1422.916 L 1051.252 -1421.001 L 1042.794 -1418.926 L 1032.42 -1417.968 L 1020.61 -1419.085 L 1013.269 -1421.479 L 1008.321 -1426.427 L 988.372 -1436.96 L 983.584 -1441.748 L 979.594 -1451.164 L 980.233 -1462.974 L 977.679 -1471.592 L 974.327 -1482.764 L 971.774 -1487.552 L 970.338 -1490.265 L 970.178 -1490.903 L 969.539 -1494.574 L 969.061 -1496.489 L 966.348 -1499.841 L 961.879 -1505.746 L 953.421 -1512.449 L 944.802 -1513.406 L 941.61 -1511.491 L 937.78 -1509.257 L 931.556 -1509.736 L 903.946 -1527.291 L 893.413 -1538.622 L 880.804 -1547.081 L 837.714 -1546.762 L 835.479 -1547.56 L 814.093 -1554.422 L 808.189 -1560.487 L 792.388 -1549.315 L 785.845 -1550.433 L 772.758 -1559.849 L 770.045 -1560.008 L 768.29 -1557.933 L 764.619 -1545.325 L 765.417 -1542.134 L 752.33 -1527.291 L 739.403 -1525.536 L 721.209 -1517.715 L 710.995 -1511.012 L 698.227 -1512.129 L 681.31 -1497.925 L 658.966 -1493.297 L 657.371 -1492.978 L 628.643 -1496.489 L 627.047 -1496.649 L 625.93 -1497.128 L 624.973 -1497.447 L 620.664 -1498.883 L 611.886 -1505.905 L 608.854 -1525.057 L 596.246 -1539.899 L 595.767 -1542.293 L 597.043 -1547.719 L 617.152 -1564.637 L 619.227 -1567.828 L 620.344 -1573.414 L 619.866 -1577.723 L 608.534 -1596.875 L 603.906 -1598.152 L 594.809 -1596.396 L 591.139 -1598.311 L 589.702 -1610.76 L 594.969 -1620.495 L 597.522 -1631.826 L 593.213 -1643.477 L 593.054 -1647.307 L 599.597 -1652.414 L 602.63 -1661.511 L 584.755 -1707.475 L 564.007 -1744.181 L 548.367 -1755.512 L 544.377 -1759.822 L 544.537 -1766.684 L 541.823 -1770.674 L 536.078 -1774.185 L 526.821 -1774.504 L 491.232 -1774.664 L 468.09 -1772.27 L 454.206 -1777.377 L 447.981 -1777.856 L 432.979 -1773.706 L 425.798 -1770.514 L 413.03 -1764.769 L 408.402 -1764.29 L 400.103 -1766.205 L 386.058 -1778.335 L 379.834 -1790.623 L 376.163 -1804.668 L 371.854 -1809.296 L 371.216 -1809.775 L 353.98 -1830.044 L 346.319 -1836.428 L 319.188 -1837.704 L 312.006 -1840.577 L 291.418 -1838.821 L 280.087 -1839.619 L 266.681 -1844.886 L 266.042 -1845.205 L 264.287 -1850.312 L 262.372 -1855.419 L 256.626 -1858.292 L 252.796 -1857.813 L 241.305 -1847.599 L 237.156 -1846.003 L 217.844 -1853.345 L 200.13 -1866.112 L 172.998 -1880.635 L 158.635 -1885.104 L 134.057 -1892.924 L 118.576 -1894.52 L 96.392 -1905.373 L 92.881 -1907.128 L 68.623 -1918.938 Z M 991.564 -1554.582 L 990.447 -1553.784 L 989.01 -1549.156 L 974.487 -1532.558 L 971.455 -1517.237 L 979.913 -1511.332 L 985.18 -1509.736 L 1010.077 -1507.022 L 1011.992 -1510.853 L 1011.353 -1512.608 L 1010.715 -1514.204 L 1008.96 -1517.077 L 1002.257 -1521.865 L 998.746 -1524.418 L 995.554 -1532.398 L 995.873 -1535.75 L 997.947 -1552.667 L 994.436 -1553.784 L 991.564 -1554.582 Z" id="path221"/>
   
      <path id="path5847" d="M 810.09 -1558.062 C 810.048 -1558.016 810.007 -1558.016 809.965 -1557.968 C 808.998 -1556.868 808.017 -1555.489 807.09 -1553.937 C 806.163 -1552.385 805.282 -1550.684 804.559 -1548.905 C 803.836 -1547.127 803.259 -1545.281 802.903 -1543.499 C 802.744 -1542.708 802.961 -1541.859 803.403 -1540.999 C 803.844 -1540.14 804.518 -1539.271 805.215 -1538.374 C 805.912 -1537.477 806.638 -1536.559 807.246 -1535.655 C 807.855 -1534.752 808.352 -1533.848 808.528 -1532.968 C 808.632 -1532.446 808.593 -1531.879 808.496 -1531.28 C 808.4 -1530.682 808.24 -1530.062 807.996 -1529.405 C 807.51 -1528.092 806.781 -1526.689 806.028 -1525.249 C 805.274 -1523.809 804.494 -1522.327 803.903 -1520.905 C 803.312 -1519.484 802.903 -1518.103 802.903 -1516.843 C 802.903 -1516.033 803.291 -1514.815 803.903 -1513.374 C 804.514 -1511.934 805.34 -1510.29 806.215 -1508.655 C 807.965 -1505.386 809.907 -1502.147 810.621 -1500.718 C 811.256 -1499.448 811.842 -1498.51 812.465 -1497.78 C 813.089 -1497.051 813.73 -1496.55 814.465 -1496.124 C 815.936 -1495.273 817.772 -1494.783 820.434 -1493.718 C 821.346 -1493.353 822.446 -1493.138 823.621 -1492.999 C 824.797 -1492.86 826.036 -1492.784 827.278 -1492.749 C 829.761 -1492.679 832.182 -1492.703 833.746 -1492.312 C 834.641 -1492.088 835.525 -1491.979 836.403 -1491.937 C 837.281 -1491.895 838.153 -1491.912 839.059 -1491.968 C 840.87 -1492.079 842.781 -1492.311 844.965 -1492.311 C 845.973 -1492.311 846.885 -1492.005 847.684 -1491.499 C 848.482 -1490.993 849.188 -1490.286 849.809 -1489.53 C 851.052 -1488.019 851.958 -1486.279 852.684 -1485.311 C 853.371 -1484.396 854.067 -1483.752 854.746 -1483.218 C 855.426 -1482.683 856.096 -1482.262 856.715 -1481.78 C 857.335 -1481.298 857.896 -1480.757 858.403 -1479.999 C 858.909 -1479.241 859.343 -1478.268 859.684 -1476.905 C 859.805 -1476.42 860.035 -1475.976 860.309 -1475.593 C 860.583 -1475.209 860.918 -1474.874 861.278 -1474.561 C 861.996 -1473.935 862.812 -1473.407 863.465 -1472.874 C 863.792 -1472.607 864.069 -1472.352 864.278 -1472.061 C 864.486 -1471.771 864.63 -1471.47 864.653 -1471.124 C 864.676 -1470.778 864.571 -1470.369 864.34 -1469.936 C 864.11 -1469.503 863.735 -1469.019 863.184 -1468.468 C 862.45 -1467.734 862.044 -1466.833 861.84 -1465.843 C 861.637 -1464.852 861.647 -1463.782 861.778 -1462.686 C 862.039 -1460.496 862.761 -1458.252 863.184 -1456.561 C 863.424 -1455.6 863.573 -1454.466 863.621 -1453.249 C 863.67 -1452.032 863.619 -1450.727 863.528 -1449.436 C 863.343 -1446.856 862.941 -1444.307 862.496 -1442.53 C 862.205 -1441.363 861.716 -1440.518 861.184 -1439.843 C 860.652 -1439.167 860.078 -1438.68 859.559 -1438.186 C 859.04 -1437.692 858.593 -1437.216 858.34 -1436.593 C 858.087 -1435.969 858.012 -1435.187 858.278 -1434.124 C 858.505 -1433.213 858.829 -1432.584 859.215 -1432.186 C 859.601 -1431.789 860.064 -1431.613 860.559 -1431.624 C 861.054 -1431.635 861.597 -1431.841 862.153 -1432.155 C 862.708 -1432.47 863.272 -1432.892 863.84 -1433.405 C 864.976 -1434.432 866.104 -1435.775 866.996 -1436.968 C 867.889 -1438.16 868.549 -1439.229 868.809 -1439.749 C 869.315 -1440.761 870.049 -1441.485 870.903 -1441.968 C 871.756 -1442.45 872.74 -1442.67 873.746 -1442.686 C 874.753 -1442.702 875.782 -1442.511 876.746 -1442.124 C 877.71 -1441.737 878.582 -1441.163 879.309 -1440.436 C 880.225 -1439.52 881.177 -1438.777 882.153 -1438.155 C 883.128 -1437.533 884.139 -1437.035 885.184 -1436.624 C 887.274 -1435.801 889.505 -1435.297 891.934 -1434.811 C 892.679 -1434.662 893.244 -1434.456 893.621 -1434.155 C 893.998 -1433.854 894.201 -1433.481 894.278 -1433.061 C 894.354 -1432.642 894.279 -1432.16 894.121 -1431.655 C 893.964 -1431.151 893.727 -1430.618 893.403 -1430.061 C 892.104 -1427.836 889.724 -1425.344 888.434 -1423.624 C 887.551 -1422.447 886.923 -1421.523 886.371 -1420.843 C 885.82 -1420.162 885.357 -1419.724 884.778 -1419.405 C 884.198 -1419.086 883.524 -1418.904 882.559 -1418.811 C 881.594 -1418.719 880.33 -1418.686 878.621 -1418.686 C 878.271 -1418.686 878.057 -1418.492 877.934 -1418.124 C 877.81 -1417.756 877.788 -1417.23 877.84 -1416.593 C 877.945 -1415.319 878.336 -1413.598 878.84 -1411.843 C 879.849 -1408.332 881.264 -1404.648 881.434 -1403.968 C 881.574 -1403.407 881.539 -1402.493 881.434 -1401.374 C 881.329 -1400.255 881.144 -1398.933 880.934 -1397.561 C 880.513 -1394.818 880.028 -1391.894 880.028 -1389.968 C 880.028 -1386.472 880.418 -1382.181 880.965 -1377.843 C 881.489 -1373.69 882.151 -1369.523 882.746 -1365.936 L 887.153 -1369.468 L 891.559 -1369.562 L 900.09 -1374.093 L 905.778 -1377.062 L 908.684 -1375.593 L 914.403 -1377.218 L 915.934 -1377.249 L 921.653 -1378.686 L 926.028 -1380.311 L 928.778 -1384.561 L 937.371 -1386.249 L 949.028 -1380.718 L 962.121 -1379.436 L 963.84 -1372.405 L 970.965 -1378.28 L 973.934 -1375.468 L 993.028 -1364.186 L 1000.121 -1364.311 L 1007.246 -1370.155 L 1014.496 -1371.843 L 1023.121 -1371.999 L 1033.403 -1367.78 L 1039.278 -1363.686 L 1046.653 -1359.436 L 1052.496 -1356.686 L 1056.934 -1355.249 L 1054.215 -1349.468 L 1044.215 -1343.561 L 1042.746 -1340.655 L 1037.121 -1334.843 L 1032.934 -1326.155 L 1027.371 -1318.811 L 1027.433 -1317.28 L 1026.339 -1307.155 L 1024.902 -1302.905 L 1019.277 -1298.436 L 1023.839 -1292.78 L 1028.308 -1282.749 L 1031.121 -1285.655 L 1038.339 -1288.655 L 1045.652 -1287.468 L 1044.214 -1283.03 L 1042.996 -1278.811 L 1044.714 -1264.343 L 1049.152 -1263.093 L 1053.402 -1261.655 L 1050.621 -1258.718 L 1052.371 -1250.155 L 1049.652 -1244.405 L 1039.464 -1244.218 L 1033.621 -1248.28 L 1029.308 -1244.03 L 1028.121 -1238.061 L 1023.808 -1233.811 L 1026.996 -1222.218 L 1032.871 -1218.124 L 1037.402 -1212.468 L 1043.121 -1213.905 L 1046.089 -1211.124 L 1050.621 -1206.811 L 1051.996 -1205.499 L 1053.496 -1206.843 L 1059.152 -1210.03 L 1059.089 -1212.874 L 1069.277 -1211.53 L 1074.964 -1214.499 L 1079.495 -1210.405 L 1079.714 -1201.624 L 1081.089 -1200.311 L 1081.152 -1197.436 L 1082.777 -1194.624 L 1093.121 -1187.561 L 1098.964 -1184.78 L 1107.371 -1193.53 L 1112.902 -1202.218 L 1124.465 -1206.843 L 1141.777 -1205.624 L 1143.371 -1202.811 L 1143.527 -1197.061 L 1147.746 -1197.155 L 1153.496 -1197.249 L 1154.933 -1201.687 L 1157.871 -1198.874 L 1160.714 -1200.249 L 1159.214 -1205.968 L 1160.464 -1210.374 L 1161.964 -1211.937 L 1180.683 -1215.124 L 1183.714 -1209.281 L 1193.839 -1210.999 L 1197.964 -1213.937 L 1202.308 -1216.874 L 1205.246 -1214.062 L 1211.058 -1212.843 L 1213.371 -1212.874 L 1210.714 -1207.437 L 1219.683 -1201.593 L 1227.308 -1205.656 L 1229.777 -1199.593 L 1225.746 -1185.468 L 1230.214 -1184.124 L 1221.933 -1176.312 L 1236.714 -1180.093 L 1239.402 -1186.812 L 1258.652 -1191.968 L 1273.214 -1191.312 L 1277.714 -1187.281 L 1278.777 -1187.187 L 1279.933 -1182.405 L 1282.964 -1176.562 L 1296.027 -1176.812 L 1297.402 -1175.499 L 1293.433 -1165.312 L 1294.808 -1163.812 L 1294.839 -1162.468 L 1300.839 -1153.968 L 1303.808 -1149.655 L 1303.902 -1146.78 L 1311.371 -1139.655 L 1315.808 -1138.405 L 1319.996 -1139.843 L 1332.808 -1148.843 L 1334.246 -1153.062 L 1338.683 -1151.812 L 1345.839 -1149.093 L 1348.808 -1146.093 L 1350.496 -1140.405 L 1354.839 -1143.343 L 1363.464 -1143.499 L 1367.808 -1137.843 L 1367.902 -1134.999 L 1365.09 -1132.062 L 1358.121 -1127.562 L 1361.121 -1121.874 L 1374.496 -1109.155 L 1375.902 -1107.843 L 1373.152 -1102.062 L 1370.371 -1098.968 L 1367.496 -1098.906 L 1367.715 -1090.312 L 1375.058 -1087.593 L 1370.715 -1084.656 L 1372.371 -1080.281 L 1363.621 -1077.25 L 1359.496 -1074.312 L 1357.871 -1077.156 L 1356.465 -1080 L 1355.027 -1075.781 L 1349.34 -1072.812 L 1362.621 -1064.25 L 1356.933 -1061.281 L 1357.058 -1057.093 L 1352.715 -1054.156 L 1354.215 -1048.25 L 1345.59 -1048.093 L 1341.433 -1045.156 L 1339.871 -1046.656 L 1336.996 -1046.594 L 1335.402 -1047.906 L 1331.152 -1049.375 L 1328.215 -1052.188 L 1321.027 -1047.656 L 1321.152 -1043.438 L 1325.558 -1043.532 L 1329.902 -1037.875 L 1330.027 -1033.5 L 1327.34 -1026.188 L 1331.902 -1020.563 L 1333.183 -1023.438 L 1337.59 -1023.532 L 1342.027 -1022.282 L 1344.933 -1020.782 L 1346.371 -1017.969 L 1353.652 -1018.094 L 1358.34 -1006.719 L 1358.496 -1000.813 L 1358.621 -996.626 L 1351.527 -989.219 L 1350.058 -986.344 L 1344.402 -981.844 L 1340.121 -977.563 L 1334.433 -974.594 L 1333.621 -970.719 L 1323.59 -973.719 L 1318.902 -981.313 L 1316.871 -976.626 L 1306.371 -980.219 L 1304.808 -972.594 L 1298.746 -969.469 L 1290.933 -961.407 L 1288.683 -955.594 L 1282.871 -958.501 L 1278.402 -965.876 L 1278.183 -969.032 L 1275.933 -965.001 L 1272.34 -968.344 L 1268.34 -967.001 L 1253.558 -973.501 L 1244.152 -961.407 L 1247.965 -951.782 L 1250.215 -950.219 L 1245.277 -939.719 L 1252.215 -926.719 L 1260.715 -917.782 L 1258.715 -908.594 L 1265.402 -895.844 L 1279.277 -889.813 L 1287.34 -893.844 L 1294.715 -889.594 L 1308.84 -886.688 L 1313.121 -890.251 L 1316.496 -889.313 L 1325.121 -889.469 L 1333.933 -882.376 L 1335.683 -873.844 L 1344.433 -869.594 L 1355.84 -874.188 L 1353.215 -864.032 L 1363.558 -856.969 L 1372.34 -851.407 L 1373.871 -851.438 L 1388.34 -848.844 L 1390.027 -843.157 L 1387.215 -840.219 L 1390.215 -835.907 L 1388.715 -834.344 L 1396.152 -828.751 L 1400.683 -823.126 L 1399.277 -818.688 L 1402.34 -811.688 L 1412.621 -807.501 L 1423.965 -813.438 L 1429.871 -815.063 L 1432.808 -813.594 L 1448.652 -816.751 L 1448.527 -816.126 L 1459.371 -819.469 L 1463.308 -825.813 L 1471.933 -825.126 L 1474.683 -830.313 L 1483.652 -828.219 L 1491.027 -822.376 L 1493.965 -823.751 L 1491.215 -829.626 L 1498.277 -828.219 L 1499.996 -823.938 L 1512.902 -822.563 L 1521.34 -826.157 L 1533.558 -820.657 L 1533.746 -818.782 L 1547.746 -809.532 L 1572.465 -811.344 L 1572.59 -806.938 L 1563.902 -801.063 L 1569.027 -773.876 L 1567.715 -765.251 L 1559.308 -756.313 L 1565.371 -743.626 L 1565.433 -742.094 L 1568.464 -737.438 L 1573.12 -733.813 L 1576.308 -736.501 L 1578.402 -741.782 L 1580.933 -748.469 L 1593.214 -756.157 L 1601.683 -765.563 L 1621.652 -773.532 L 1639.027 -775.126 L 1644.62 -779.438 L 1651.495 -779.126 L 1658.652 -785.032 L 1662.183 -783.751 L 1667.277 -784.219 L 1681.808 -792.219 L 1689.62 -798.594 L 1707.183 -817.094 L 1714.839 -827.813 L 1722.183 -834.032 L 1726.964 -835.126 L 1728.652 -835.469 L 1731.589 -836.094 L 1732.714 -837.219 L 1732.714 -849.344 L 1733.183 -849.501 L 1736.714 -850.938 L 1748.683 -851.907 L 1751.214 -857.469 L 1757.933 -858.594 L 1764.964 -866.751 L 1771.652 -869.282 L 1775.808 -883.188 L 1779.652 -894.657 L 1801.808 -918.282 L 1810.589 -923.407 L 1816.995 -925.469 L 1817.62 -925.626 L 1821.12 -920.376 L 1823.683 -920.688 L 1832.464 -926.126 L 1832.933 -931.844 L 1834.683 -933.782 L 1837.558 -937.126 L 1839.964 -936.813 L 1842.214 -936.313 L 1852.745 -937.907 L 1856.714 -939.844 L 1858.808 -943.813 L 1862.152 -959.313 L 1868.214 -966.313 L 1876.339 -967.751 L 1878.12 -968.094 L 1880.652 -973.032 L 1880.339 -975.094 L 1879.871 -977.188 L 1881.308 -986.282 L 1883.371 -991.376 L 1886.871 -993.126 L 1887.996 -999.032 L 1887.214 -1005.438 L 1888.808 -1014.532 L 1892.621 -1021.376 L 1896.152 -1023.626 L 1896.152 -1028.876 L 1893.589 -1041.969 L 1889.746 -1046.282 L 1883.527 -1046.126 L 1876.027 -1053.782 L 1871.714 -1060 L 1873.152 -1079 L 1872.839 -1083.313 L 1869.652 -1090 L 1870.933 -1098.938 L 1871.714 -1118.75 L 1873.464 -1123.688 L 1876.996 -1125.125 L 1880.339 -1123.375 L 1884.339 -1128 L 1879.871 -1142.532 L 1868.683 -1161.5 L 1866.152 -1165.032 L 1859.902 -1173.813 L 1854.183 -1174.438 L 1853.683 -1177.313 L 1855.589 -1181.469 L 1852.746 -1185.625 L 1846.027 -1185.438 L 1842.589 -1188.407 L 1840.121 -1190.563 L 1836.933 -1190.875 L 1833.589 -1186.719 L 1831.339 -1187.063 L 1830.714 -1194.063 L 1822.558 -1198.532 L 1818.433 -1203 L 1815.714 -1210.188 L 1814.277 -1220.875 L 1812.261 -1234.753 L 1812.183 -1249.438 L 1810.121 -1256.938 L 1810.433 -1264.625 L 1808.058 -1269.25 L 1806.277 -1273.375 L 1808.996 -1274.813 L 1813.152 -1281.688 L 1818.746 -1304.344 L 1820.183 -1309.938 L 1831.027 -1321.75 L 1842.683 -1331.313 L 1847.777 -1333.407 L 1854.496 -1333.407 L 1856.402 -1330.532 L 1858.964 -1326.688 L 1859.121 -1320.313 L 1861.339 -1317.438 L 1869.339 -1316.625 L 1879.558 -1307.375 L 1882.746 -1306.907 L 1887.683 -1300.032 L 1890.246 -1304.032 L 1892.964 -1308.188 L 1893.746 -1317.125 L 1894.871 -1318.407 L 1899.027 -1317.125 L 1901.714 -1318.563 L 1903.496 -1319.688 L 1903.652 -1319.188 L 1906.371 -1311.063 L 1910.183 -1308.344 L 1917.996 -1307.875 L 1919.777 -1306.75 L 1921.027 -1309.782 L 1919.777 -1311.375 L 1914.183 -1313.438 L 1912.589 -1320.469 L 1928.871 -1324.469 L 1933.808 -1331.157 L 1936.527 -1336.907 L 1929.652 -1347.282 L 1929.964 -1352.219 L 1931.089 -1354.469 L 1935.246 -1352.875 L 1940.683 -1350.969 L 1942.089 -1354.469 L 1936.527 -1359.407 L 1936.214 -1362.125 L 1940.996 -1368.032 L 1939.246 -1370.25 L 1940.183 -1372.344 L 1944.964 -1373.469 L 1950.714 -1381.438 L 1959.964 -1384.313 L 1960.933 -1387.344 L 1960.152 -1389.094 L 1955.183 -1389.75 L 1952.652 -1393.094 L 1947.371 -1393.094 L 1943.714 -1395.625 L 1938.902 -1393.407 L 1932.214 -1401.219 L 1931.402 -1404.907 L 1926.621 -1405.063 L 1921.183 -1410 L 1919.933 -1409.688 L 1918.152 -1404.094 L 1914.652 -1403.782 L 1913.871 -1403.782 L 1910.339 -1399.313 L 1908.433 -1402.5 L 1904.933 -1403.938 L 1902.371 -1407.282 L 1902.996 -1413.032 L 1899.652 -1417.032 L 1891.527 -1415.75 L 1887.371 -1418.782 L 1883.371 -1416.375 L 1876.683 -1416.375 L 1875.089 -1412.25 L 1876.683 -1406.969 L 1873.808 -1403.157 L 1871.558 -1403.313 L 1862.308 -1413.032 L 1863.902 -1417.5 L 1857.996 -1419.094 L 1848.089 -1430.125 L 1850.027 -1433.938 L 1849.371 -1436.032 L 1845.058 -1436.813 L 1843.308 -1438.719 L 1844.121 -1440.313 L 1842.027 -1445.907 L 1843.308 -1450.875 L 1847.777 -1456.282 L 1846.996 -1457.563 L 1843.308 -1457.25 L 1841.714 -1459.813 L 1847.308 -1468.407 L 1845.246 -1469.844 L 1841.558 -1469.063 L 1841.246 -1470.813 L 1850.652 -1481.344 L 1851.933 -1487.25 L 1850.808 -1489.657 L 1846.996 -1490.282 L 1845.871 -1492.5 L 1852.089 -1498.594 L 1847.621 -1500.188 L 1844.902 -1500.969 L 1844.746 -1501.125 L 1837.558 -1501.438 L 1836.777 -1501.438 L 1826.714 -1501.625 L 1819.058 -1502.875 L 1815.402 -1502.563 L 1811.246 -1502.563 L 1807.246 -1499.688 L 1803.746 -1496.344 L 1803.089 -1494.75 L 1799.902 -1493.157 L 1796.558 -1493.938 L 1793.058 -1494.75 L 1789.058 -1496.032 L 1782.027 -1501.782 L 1779.652 -1502.875 L 1774.683 -1511.657 L 1772.152 -1513.407 L 1767.027 -1517.407 L 1765.433 -1519.157 L 1761.933 -1527.469 L 1759.527 -1533.844 L 1757.464 -1540.219 L 1755.683 -1541.188 L 1752.496 -1541.188 L 1747.714 -1538.313 L 1740.371 -1533.844 L 1737.496 -1534.157 L 1735.277 -1534.344 L 1732.714 -1536.563 L 1707.183 -1528.907 L 1701.121 -1531.782 L 1691.058 -1532.094 L 1674.152 -1521.875 L 1669.371 -1520.438 L 1661.527 -1519.5 L 1642.714 -1522.344 L 1635.839 -1523.313 L 1630.246 -1522.844 L 1627.371 -1520.938 L 1623.714 -1518.375 L 1597.371 -1492.844 L 1590.683 -1478.782 L 1585.714 -1475.438 L 1570.902 -1475.282 L 1547.277 -1481.188 L 1540.402 -1480.875 L 1526.371 -1477.344 L 1517.746 -1475.125 L 1504.808 -1466.657 L 1490.933 -1452.469 L 1485.027 -1448.313 L 1481.996 -1443.688 L 1485.808 -1430.75 L 1496.839 -1418.782 L 1500.027 -1413.5 L 1500.652 -1409.532 L 1499.402 -1406.657 L 1494.589 -1403.782 L 1485.652 -1402.344 L 1477.058 -1403.625 L 1470.652 -1404.563 L 1445.777 -1413.188 L 1425.027 -1416.719 L 1415.589 -1416.563 L 1396.277 -1403.938 L 1395.527 -1403.844 L 1386.246 -1402.656 L 1381.527 -1403.906 L 1378.246 -1404.75 L 1368.527 -1405.063 L 1361.183 -1409.375 L 1338.183 -1422.781 L 1333.402 -1425.656 L 1331.808 -1429 L 1331.652 -1429.156 L 1327.183 -1432.656 L 1310.433 -1452.938 L 1260.621 -1470.656 L 1258.714 -1471.594 L 1249.933 -1476.25 L 1232.714 -1488.375 L 1196.152 -1493 L 1181.621 -1490.438 L 1173.496 -1486.781 L 1166.777 -1480.719 L 1156.746 -1477.031 L 1150.527 -1476.719 L 1145.246 -1478.938 L 1135.839 -1482.781 L 1117.152 -1484.219 L 1104.058 -1470 L 1088.433 -1444.469 L 1075.339 -1432.188 L 1058.746 -1422.938 L 1050.777 -1421.031 L 1042.308 -1418.938 L 1031.933 -1417.969 L 1020.121 -1419.094 L 1019.089 -1419.438 L 1012.777 -1421.5 L 1007.839 -1426.438 L 987.871 -1436.969 L 983.089 -1441.75 L 979.121 -1451.188 L 979.746 -1463 L 977.183 -1471.594 L 973.839 -1482.781 L 971.277 -1487.563 L 969.839 -1490.281 L 969.683 -1490.906 L 969.058 -1494.594 L 968.558 -1496.5 L 965.871 -1499.844 L 961.402 -1505.75 L 952.933 -1512.469 L 944.308 -1513.406 L 941.121 -1511.5 L 937.277 -1509.281 L 931.058 -1509.75 L 903.464 -1527.313 L 892.933 -1538.625 L 880.308 -1547.094 L 837.214 -1546.781 L 834.996 -1547.563 L 813.589 -1554.438 L 810.089 -1558.063 L 810.09 -1558.062 Z M 991.09 -1554.593 L 989.965 -1553.812 L 988.528 -1549.156 L 973.996 -1532.562 L 970.965 -1517.249 L 979.434 -1511.343 L 984.684 -1509.749 L 1009.59 -1507.031 L 1011.496 -1510.874 L 1010.871 -1512.624 L 1010.215 -1514.218 L 1008.465 -1517.093 L 1001.778 -1521.874 L 998.246 -1524.437 L 995.059 -1532.406 L 995.371 -1535.749 L 997.465 -1552.687 L 993.934 -1553.812 L 991.09 -1554.593 Z M 1021.746 -1202.062 Z" style="fill:#ffd071;fill-opacity:1;fill-rule:nonzero;stroke:#000000;stroke-width:2;stroke-miterlimit:4;stroke-dasharray:none;stroke-opacity:0"/>
      
    
  </g>
</svg>