<?xml version="1.0" encoding="utf-8"?>
<svg viewBox="162.037 130.041 2285.43 2269" xmlns="http://www.w3.org/2000/svg">
  <g id="layer1" transform="matrix(1, 0, 0, 1, 486.040802, 2049.008545)">
    <path style="fill:#fff;fill-opacity:1;fill-rule:nonzero;stroke:#bbbbbb;stroke-width:10;stroke-miterlimit:4;stroke-dasharray:none;stroke-opacity:1" d="M 68.623 -1918.938 L 58.409 -1915.906 L 50.588 -1901.383 L 49.791 -1900.106 L 42.449 -1894.839 L 43.247 -1869.783 L 41.811 -1860.845 L 28.405 -1843.769 L 28.086 -1838.821 L 39.257 -1831.48 L 36.544 -1821.426 L 34.469 -1818.553 L 33.831 -1812.648 L 39.896 -1800.997 L 40.853 -1794.773 L 41.651 -1788.868 L 46.758 -1777.856 L 46.439 -1759.183 L 51.387 -1748.49 L 50.908 -1741.149 L 49.152 -1741.149 L 50.588 -1734.765 L 53.461 -1729.019 L 63.675 -1717.21 L 65.909 -1710.028 L 64.952 -1702.687 L 68.304 -1696.462 L 68.304 -1688.802 L 72.293 -1681.939 L 78.039 -1677.471 L 85.061 -1675.396 L 90.647 -1670.448 L 98.308 -1669.81 L 105.17 -1672.364 L 114.586 -1669.331 L 118.097 -1664.703 L 118.097 -1660.075 L 117.299 -1655.127 L 113.629 -1651.776 L 111.873 -1641.242 L 112.352 -1635.656 L 111.394 -1624.485 L 108.043 -1615.228 L 104.532 -1611.717 L 99.904 -1602.62 L 98.467 -1597.673 L 98.467 -1592.725 L 93.839 -1590.97 L 86.817 -1584.107 L 85.221 -1578.362 L 88.094 -1574.212 L 93.36 -1568.786 L 94.158 -1560.806 L 81.55 -1552.188 L 74.528 -1556.178 L 67.665 -1553.465 L 64.154 -1546.602 L 64.314 -1539.58 L 67.505 -1533.515 L 75.326 -1526.493 L 75.326 -1521.865 L 70.538 -1517.396 L 72.612 -1512.608 L 72.293 -1506.224 L 76.603 -1502.235 L 77.4 -1497.287 L 82.029 -1495.851 L 85.38 -1491.063 L 90.487 -1488.19 L 92.243 -1483.721 L 95.116 -1479.253 L 97.19 -1474.625 L 98.308 -1468.879 L 97.669 -1463.453 L 99.744 -1453.718 L 102.776 -1448.132 L 100.542 -1443.344 L 102.936 -1438.396 L 100.223 -1433.768 L 103.095 -1427.225 L 102.297 -1421.798 L 104.372 -1417.17 L 99.904 -1395.625 L 101.34 -1390.518 L 101.34 -1385.889 L 104.212 -1381.74 L 104.212 -1376.792 L 99.744 -1374.079 L 96.871 -1369.77 L 96.392 -1364.823 L 100.542 -1362.11 L 99.744 -1352.534 L 96.552 -1349.023 L 95.275 -1344.235 L 95.275 -1339.288 L 98.786 -1335.138 L 97.35 -1325.722 L 95.275 -1320.455 L 91.924 -1316.146 L 92.562 -1311.199 L 91.126 -1306.411 L 87.455 -1301.463 L 85.38 -1296.835 L 81.391 -1293.803 L 79.954 -1289.175 L 79.156 -1283.589 L 79.156 -1278.162 L 76.443 -1274.013 L 76.922 -1268.268 L 75.645 -1258.851 L 69.9 -1248.956 L 70.378 -1241.455 L 65.59 -1231.88 L 65.59 -1227.092 L 70.378 -1227.092 L 77.4 -1224.538 L 77.241 -1217.835 L 70.697 -1214.005 L 65.75 -1207.462 L 66.867 -1200.12 L 66.867 -1194.694 L 70.378 -1190.864 L 44.843 -1109.789 L 39.576 -1104.682 L 29.841 -1091.276 L 33.193 -1087.925 L 17.552 -1059.197 L 11.009 -1052.973 L 6.7 -1046.908 L 5.423 -1041.482 L 5.263 -1041.003 L 3.508 -1036.216 L 0.156 -1031.747 L -4.313 -1029.513 L -11.016 -1031.268 L -18.676 -1026.48 L -27.933 -1013.393 L -33.359 -1007.648 L -32.082 -1000.466 L -25.698 -997.753 L -21.07 -992.008 L -10.537 -987.22 L -9.898 -984.507 L -8.781 -979.878 L -8.621 -972.856 L -9.898 -958.812 L -7.504 -950.034 L -4.951 -944.448 L -9.579 -937.745 L -20.431 -931.521 L -18.995 -926.573 L -19.315 -924.18 L -28.252 -921.786 L -36.551 -922.584 L -42.136 -916.838 L -43.413 -910.135 L -43.573 -902.634 L -46.924 -895.612 L -53.627 -892.26 L -60.65 -892.58 L -68.31 -890.984 L -75.173 -888.43 L -93.845 -864.172 L -96.718 -857.947 L -97.356 -849.648 L -98.952 -842.945 L -103.102 -837.519 L -118.902 -834.008 L -133.106 -832.572 L -142.203 -829.859 L -148.427 -826.667 L -153.853 -821.879 L -156.088 -814.857 L -152.417 -808.632 L -160.078 -809.43 L -166.302 -804.643 L -170.611 -797.301 L -171.728 -789.96 L -173.962 -783.257 L -180.825 -780.065 L -186.411 -774.319 L -192.475 -770.329 L -196.944 -763.307 L -202.37 -758.519 L -206.361 -752.295 L -203.807 -745.592 L -202.53 -738.57 L -199.019 -730.431 L -196.785 -723.728 L -184.496 -711.917 L -184.017 -704.576 L -188.645 -698.99 L -189.443 -691.968 L -183.857 -678.243 L -176.676 -675.211 L -169.494 -676.328 L -154.492 -672.497 L -146.193 -675.53 L -132.468 -675.849 L -126.244 -670.742 L -125.445 -662.922 L -130.552 -655.421 L -130.393 -648.558 L -128.478 -641.376 L -117.625 -631.481 L -116.987 -624.459 L -122.413 -619.512 L -135.5 -603.233 L -141.724 -597.807 L -145.395 -591.263 L -148.587 -583.283 L -150.661 -576.261 L -164.387 -570.356 L -171.409 -569.558 L -178.272 -570.356 L -185.613 -568.282 L -190.56 -558.546 L -190.082 -553.758 L -184.815 -545.459 L -183.857 -540.033 L -183.857 -535.245 L -184.656 -529.5 L -188.167 -520.403 L -186.411 -515.296 L -187.049 -509.87 L -191.359 -506.518 L -192.475 -501.571 L -191.837 -496.783 L -193.912 -491.995 L -195.508 -490.558 L -202.849 -484.973 L -206.201 -480.983 L -210.191 -474.599 L -206.041 -469.651 L -199.178 -464.864 L -179.389 -453.532 L -175.878 -446.031 L -170.451 -440.765 L -170.611 -433.742 L -174.441 -427.837 L -178.112 -426.401 L -178.591 -427.039 L -185.932 -420.017 L -188.645 -415.868 L -186.73 -411.24 L -182.102 -409.165 L -178.431 -405.813 L -173.803 -404.536 L -171.409 -399.749 L -174.761 -390.013 L -179.229 -386.981 L -176.357 -385.704 L -171.409 -380.118 L -170.132 -372.617 L -166.142 -364.318 L -170.132 -358.733 L -171.728 -351.551 L -169.973 -344.209 L -171.249 -337.028 L -171.409 -329.207 L -178.272 -326.813 L -181.623 -320.43 L -187.209 -315.961 L -200.934 -316.121 L -208.595 -310.535 L -212.584 -304.949 L -215.617 -298.246 L -219.128 -284.521 L -217.532 -276.541 L -219.926 -269.678 L -220.724 -262.656 L -222.479 -255.474 L -227.746 -250.686 L -240.035 -242.547 L -248.334 -240.951 L -254.878 -243.345 L -259.346 -236.482 L -259.186 -229.46 L -263.974 -224.194 L -270.837 -223.555 L -277.061 -228.503 L -283.924 -227.385 L -289.51 -221.8 L -290.786 -215.097 L -290.308 -206.798 L -292.542 -199.775 L -293.819 -192.434 L -291.105 -185.731 L -278.817 -176.634 L -283.924 -167.537 L -283.764 -160.036 L -277.859 -156.525 L -275.625 -149.982 L -279.934 -142.959 L -275.784 -136.895 L -269.56 -133.384 L -263.017 -136.576 L -256.154 -135.458 L -253.92 -127.798 L -246.419 -126.202 L -239.556 -127 L -235.566 -120.776 L -241.791 -115.828 L -248.015 -113.434 L -248.015 -106.412 L -241.472 -102.422 L -241.312 -95.56 L -235.885 -90.133 L -233.173 -83.749 L -231.896 -76.568 L -225.193 -72.897 L -231.417 -68.269 L -233.651 -61.087 L -238.439 -55.182 L -241.791 -49.117 L -239.556 -42.095 L -250.728 -32.041 L -252.962 -25.338 L -252.483 -17.677 L -256.314 -10.814 L -261.581 2.592 L -263.017 9.454 L -253.441 20.466 L -253.282 27.329 L -255.675 40.895 L -252.483 46.959 L -243.387 59.567 L -240.195 65.632 L -242.429 72.335 L -247.217 78.4 L -254.718 90.688 L -260.144 95.955 L -266.528 99.626 L -269.4 114.309 L -274.827 119.894 L -283.126 123.565 L -289.19 127.395 L -302.916 133.141 L -309.619 132.981 L -310.417 139.844 L -316.481 143.195 L -321.269 137.929 L -323.504 145.43 L -318.077 149.42 L -315.364 158.197 L -310.736 160.751 L -303.873 161.07 L -296.372 164.741 L -290.148 160.751 L -284.722 155.963 L -278.498 153.09 L -277.221 161.868 L -276.583 175.593 L -272.592 181.818 L -270.039 188.201 L -263.177 184.531 L -256.314 181.977 L -242.908 188.68 L -231.896 199.054 L -227.108 204.64 L -231.896 210.226 L -237.641 214.694 L -241.631 220.28 L -245.302 226.664 L -246.738 233.207 L -239.876 245.975 L -235.247 251.561 L -228.544 255.072 L -221.682 255.231 L -215.457 257.945 L -210.031 263.052 L -203.328 265.446 L -195.987 266.403 L -183.06 270.872 L -168.855 273.585 L -154.492 273.585 L -149.065 278.373 L -143.799 285.714 L -138.373 291.3 L -132.148 294.971 L -125.924 297.684 L -122.732 303.749 L -126.244 310.452 L -123.69 317.314 L -122.413 324.496 L -116.987 329.284 L -110.124 333.752 L -103.421 333.274 L -97.037 337.423 L -89.217 339.498 L -82.195 342.53 L -76.45 345.882 L -66.874 350.031 L -66.874 349.552 L -64.32 337.902 L -48.042 307.579 L -39.424 300.397 L -24.422 279.65 L -11.016 267.999 L -2.717 257.466 L 1.912 255.71 L 25.372 252.997 L 37.661 252.04 L 46.599 251.401 L 55.695 243.262 L 72.134 243.102 L 76.762 240.868 L 89.21 242.623 L 94.956 245.017 L 95.594 248.369 L 83.944 271.67 L 72.293 283.48 L 67.825 287.789 L 63.516 289.066 L 54.419 287.789 L 49.631 284.757 L 38.459 285.395 L 35.427 287.789 L 33.671 292.258 L 26.17 290.502 L 12.285 292.736 L 6.061 291.3 L 2.071 297.365 L -2.397 297.205 L -3.355 300.237 L -2.238 305.504 L 9.253 310.771 L 19.787 314.761 L 21.702 314.601 L 26.17 314.282 L 43.726 317.314 L 52.503 311.888 L 63.356 302.951 L 75.804 290.502 L 91.764 264.967 L 103.095 242.145 L 103.255 241.985 L 103.893 243.102 L 104.053 242.783 L 105.649 241.666 L 105.808 241.347 L 105.808 240.868 L 105.968 240.708 L 106.447 240.708 L 108.043 238.314 L 107.883 237.836 L 112.831 234.165 L 131.504 225.068 L 136.93 218.844 L 144.91 213.577 L 166.135 211.502 L 173.637 207.832 L 177.626 204.161 L 177.148 199.054 L 182.095 196.341 L 187.043 188.999 L 193.905 182.775 L 202.523 174.795 L 206.194 166.656 L 202.364 155.803 L 197.895 150.537 L 194.863 150.696 L 194.863 158.676 L 192.948 162.826 L 186.404 168.571 L 186.245 168.571 L 186.245 167.933 L 184.17 167.135 L 179.701 165.06 L 180.818 163.145 L 179.861 160.272 L 165.019 155.644 L 152.729 142.238 L 140.919 126.757 L 136.451 124.682 L 138.526 120.533 L 132.78 108.244 L 128.471 104.733 L 118.097 101.222 L 106.766 99.785 L 103.415 101.062 L 108.841 105.052 L 110.437 105.531 L 124.96 110.159 L 127.513 112.074 L 128.152 114.947 L 125.279 118.298 L 110.118 121.331 L 104.212 120.692 L 94.317 116.543 L 89.37 112.872 L 82.667 105.052 L 74.208 95.157 L 71.974 88.933 L 73.251 85.103 L 82.029 75.367 L 87.614 73.452 L 96.552 62.759 L 98.148 56.056 L 106.447 44.725 L 122.247 34.99 L 132.301 25.414 L 135.493 20.307 L 142.994 7.38 L 154.166 -2.994 L 165.178 -21.826 L 171.881 -28.529 L 186.724 -52.15 L 202.683 -64.917 L 209.067 -73.376 L 210.822 -75.77 L 218.164 -82.792 L 222.792 -90.931 L 226.622 -92.048 L 230.612 -89.655 L 233.006 -90.293 L 240.507 -101.465 L 242.901 -108.327 L 249.444 -116.786 L 270.192 -138.012 L 278.491 -143.598 L 290.461 -148.226 L 292.854 -149.982 L 297.961 -153.652 L 307.697 -157.163 L 331.317 -162.111 L 337.701 -159.877 L 342.17 -160.355 L 360.683 -168.654 L 368.503 -169.931 L 380.473 -169.293 L 386.697 -167.537 L 392.283 -161.313 L 395.634 -160.675 L 399.145 -155.248 L 404.412 -151.897 L 407.763 -151.099 L 414.147 -159.877 L 413.03 -169.293 L 415.264 -176.315 L 420.691 -182.858 L 428.191 -189.402 L 442.715 -201.85 L 458.355 -206.159 L 480.539 -209.67 L 486.125 -216.693 L 491.551 -217.65 L 497.137 -221.161 L 512.298 -224.194 L 516.767 -222.598 L 523.789 -222.438 L 531.928 -219.725 L 535.599 -221.64 L 540.387 -221.8 L 547.25 -225.47 L 556.506 -230.737 L 566.401 -228.183 L 567.359 -228.822 L 572.785 -231.375 L 584.755 -241.27 L 587.947 -243.026 L 622.898 -261.698 L 631.676 -261.858 L 646.359 -266.486 L 662.478 -273.987 L 683.704 -278.935 L 716.262 -284.999 L 729.189 -283.723 L 733.657 -284.201 L 736.53 -284.521 L 748.34 -289.787 L 774.354 -293.458 L 786.324 -301.597 L 795.899 -304.31 L 804.837 -309.737 L 812.019 -309.577 L 847.768 -317.397 L 855.11 -319.632 L 867.239 -328.09 L 878.73 -326.654 L 885.592 -328.888 L 898.36 -327.931 L 911.766 -337.506 L 915.277 -338.783 L 925.332 -338.783 L 946.238 -349.636 L 958.847 -353.147 L 962.517 -354.104 L 988.691 -359.052 L 1025.877 -360.807 L 1067.212 -373.575 L 1076.309 -377.724 L 1094.503 -385.864 L 1113.974 -403.898 L 1118.282 -413.314 L 1119.4 -418.262 L 1122.273 -430.072 L 1138.232 -459.916 L 1139.349 -457.363 L 1135.359 -449.542 L 1137.594 -448.904 L 1144.616 -457.522 L 1149.723 -471.407 L 1155.788 -482.738 L 1168.076 -495.506 L 1177.812 -508.114 L 1180.685 -513.061 L 1181.802 -515.136 L 1189.941 -529.659 L 1194.569 -537.639 L 1203.826 -545.619 L 1208.135 -548.332 L 1224.414 -558.706 L 1249.311 -566.047 L 1270.696 -574.187 L 1300.221 -592.061 L 1315.223 -603.233 L 1346.026 -626.215 L 1353.207 -631.481 L 1378.264 -639.461 L 1389.914 -648.718 L 1408.427 -659.73 L 1414.971 -659.73 L 1426.621 -666.114 L 1446.411 -672.178 L 1454.231 -677.604 L 1457.742 -679.839 L 1476.255 -685.903 L 1488.385 -692.926 L 1507.057 -698.671 L 1549.35 -722.451 L 1564.831 -725.643 L 1568.98 -726.6 L 1571.853 -728.515 L 1573.609 -733.782 L 1576.801 -736.495 L 1578.875 -741.762 L 1581.429 -748.465 L 1593.718 -756.125 L 1602.176 -765.542 L 1622.126 -773.521 L 1639.521 -775.117 L 1645.108 -779.426 L 1651.97 -779.107 L 1659.152 -785.012 L 1662.663 -783.735 L 1667.77 -784.214 L 1682.293 -792.194 L 1690.113 -798.578 L 1707.669 -817.091 L 1715.33 -827.784 L 1722.671 -834.008 L 1727.459 -835.125 L 1732.087 -836.083 L 1733.204 -837.2 L 1733.204 -849.329 L 1733.683 -849.489 L 1737.194 -850.925 L 1749.164 -851.883 L 1751.717 -857.469 L 1758.42 -858.586 L 1765.443 -866.725 L 1772.146 -869.279 L 1776.295 -883.164 L 1780.125 -894.654 L 1802.309 -918.275 L 1811.087 -923.382 L 1817.471 -925.456 L 1818.109 -925.616 L 1821.62 -920.349 L 1824.174 -920.668 L 1832.951 -926.095 L 1833.43 -931.84 L 1835.186 -933.755 L 1838.058 -937.107 L 1840.452 -936.788 L 1842.687 -936.309 L 1853.22 -937.905 L 1857.21 -939.82 L 1859.285 -943.81 L 1862.636 -959.291 L 1868.701 -966.313 L 1876.84 -967.749 L 1878.596 -968.068 L 1881.149 -973.016 L 1880.83 -975.091 L 1880.351 -977.165 L 1881.787 -986.262 L 1883.862 -991.369 L 1887.374 -993.125 L 1888.49 -999.03 L 1887.693 -1005.414 L 1889.289 -1014.511 L 1893.119 -1021.373 L 1896.63 -1023.608 L 1896.63 -1028.874 L 1894.077 -1041.961 L 1890.246 -1046.27 L 1884.022 -1046.111 L 1876.521 -1053.771 L 1872.212 -1059.995 L 1873.648 -1078.987 L 1873.329 -1083.296 L 1870.137 -1089.999 L 1871.414 -1098.937 L 1872.212 -1118.726 L 1873.968 -1123.674 L 1877.479 -1125.11 L 1880.83 -1123.355 L 1884.82 -1127.983 L 1880.351 -1142.506 L 1869.18 -1161.498 L 1866.626 -1165.009 L 1860.402 -1173.787 L 1854.656 -1174.425 L 1854.178 -1177.298 L 1856.093 -1181.448 L 1853.22 -1185.597 L 1846.517 -1185.437 L 1840.612 -1190.544 L 1837.42 -1190.864 L 1834.069 -1186.714 L 1831.834 -1187.033 L 1831.196 -1194.056 L 1823.056 -1198.524 L 1818.907 -1202.993 L 1816.194 -1210.175 L 1814.757 -1220.868 L 1812.683 -1235.231 L 1812.683 -1249.435 L 1810.608 -1256.936 L 1810.927 -1264.597 L 1808.533 -1269.225 L 1806.778 -1273.375 L 1809.491 -1274.811 L 1813.64 -1281.674 L 1819.226 -1304.336 L 1820.663 -1309.922 L 1831.515 -1321.732 L 1843.165 -1331.308 L 1848.272 -1333.382 L 1854.975 -1333.382 L 1856.891 -1330.51 L 1859.444 -1326.679 L 1859.604 -1320.296 L 1861.838 -1317.423 L 1869.818 -1316.625 L 1880.032 -1307.368 L 1883.224 -1306.89 L 1888.171 -1300.027 L 1890.725 -1304.017 L 1893.438 -1308.166 L 1894.236 -1317.104 L 1895.353 -1318.381 L 1899.503 -1317.104 L 1902.216 -1318.54 L 1903.971 -1319.657 L 1904.131 -1319.178 L 1906.844 -1311.039 L 1910.674 -1308.326 L 1918.494 -1307.847 L 1920.25 -1306.73 L 1921.527 -1309.762 L 1920.25 -1311.358 L 1914.664 -1313.433 L 1913.068 -1320.455 L 1929.347 -1324.445 L 1934.295 -1331.148 L 1937.007 -1336.894 L 1930.145 -1347.267 L 1930.464 -1352.215 L 1931.581 -1354.449 L 1935.731 -1352.853 L 1941.157 -1350.938 L 1942.594 -1354.449 L 1937.007 -1359.397 L 1936.688 -1362.11 L 1941.476 -1368.015 L 1939.721 -1370.249 L 1940.678 -1372.324 L 1945.466 -1373.441 L 1951.212 -1381.421 L 1960.468 -1384.293 L 1961.426 -1387.326 L 1960.628 -1389.081 L 1955.68 -1389.72 L 1953.127 -1393.071 L 1947.86 -1393.071 L 1944.19 -1395.625 L 1939.402 -1393.39 L 1932.699 -1401.211 L 1931.9 -1404.881 L 1927.113 -1405.041 L 1921.686 -1409.988 L 1920.41 -1409.669 L 1918.654 -1404.083 L 1915.143 -1403.764 L 1914.345 -1403.764 L 1910.834 -1399.295 L 1908.919 -1402.487 L 1905.408 -1403.924 L 1902.854 -1407.275 L 1903.492 -1413.021 L 1900.141 -1417.011 L 1892.002 -1415.734 L 1887.852 -1418.766 L 1883.862 -1416.372 L 1877.159 -1416.372 L 1875.563 -1412.223 L 1877.159 -1406.956 L 1874.287 -1403.126 L 1872.052 -1403.285 L 1862.796 -1413.021 L 1864.392 -1417.489 L 1858.486 -1419.085 L 1848.592 -1430.097 L 1850.507 -1433.928 L 1849.868 -1436.002 L 1845.56 -1436.8 L 1843.804 -1438.716 L 1844.602 -1440.311 L 1842.527 -1445.897 L 1843.804 -1450.845 L 1848.272 -1456.271 L 1847.475 -1457.548 L 1843.804 -1457.229 L 1842.208 -1459.782 L 1847.794 -1468.4 L 1845.719 -1469.837 L 1842.048 -1469.039 L 1841.729 -1470.794 L 1851.145 -1481.328 L 1852.422 -1487.233 L 1851.305 -1489.627 L 1847.475 -1490.265 L 1846.357 -1492.499 L 1852.582 -1498.564 L 1848.113 -1500.16 L 1845.4 -1500.958 L 1845.24 -1501.117 L 1838.058 -1501.437 L 1837.261 -1501.437 L 1827.206 -1501.596 L 1819.545 -1502.873 L 1815.875 -1502.554 L 1811.725 -1502.554 L 1807.735 -1499.681 L 1804.224 -1496.33 L 1803.586 -1494.734 L 1800.394 -1493.138 L 1797.042 -1493.936 L 1793.531 -1494.734 L 1789.541 -1496.01 L 1782.519 -1501.756 L 1780.125 -1502.873 L 1775.178 -1511.651 L 1772.624 -1513.406 L 1767.517 -1517.396 L 1765.921 -1519.152 L 1762.41 -1527.451 L 1760.016 -1533.834 L 1757.941 -1540.218 L 1756.186 -1541.176 L 1752.994 -1541.176 L 1748.206 -1538.303 L 1740.865 -1533.834 L 1737.992 -1534.154 L 1735.758 -1534.313 L 1733.204 -1536.548 L 1707.669 -1528.887 L 1701.604 -1531.76 L 1691.55 -1532.079 L 1674.632 -1521.865 L 1669.845 -1520.428 L 1662.025 -1519.471 L 1643.192 -1522.344 L 1636.329 -1523.301 L 1630.744 -1522.822 L 1627.871 -1520.907 L 1624.2 -1518.354 L 1597.867 -1492.818 L 1591.164 -1478.774 L 1586.216 -1475.423 L 1571.374 -1475.263 L 1547.754 -1481.168 L 1540.891 -1480.849 L 1526.847 -1477.338 L 1518.229 -1475.103 L 1505.302 -1466.645 L 1491.417 -1452.441 L 1485.512 -1448.291 L 1482.479 -1443.663 L 1486.31 -1430.736 L 1497.322 -1418.766 L 1500.514 -1413.5 L 1501.152 -1409.51 L 1499.876 -1406.637 L 1495.088 -1403.764 L 1486.15 -1402.328 L 1477.532 -1403.605 L 1471.148 -1404.562 L 1446.251 -1413.18 L 1425.504 -1416.691 L 1416.088 -1416.532 L 1396.777 -1403.924 L 1386.722 -1402.647 L 1378.742 -1404.722 L 1369.007 -1405.041 L 1361.666 -1409.35 L 1338.684 -1422.756 L 1333.896 -1425.629 L 1332.3 -1428.98 L 1332.14 -1429.14 L 1327.672 -1432.651 L 1310.914 -1452.92 L 1261.121 -1470.635 L 1259.205 -1471.592 L 1250.427 -1476.22 L 1233.191 -1488.35 L 1196.644 -1492.978 L 1182.121 -1490.424 L 1173.981 -1486.754 L 1167.278 -1480.689 L 1157.224 -1477.019 L 1151 -1476.699 L 1145.733 -1478.934 L 1136.317 -1482.764 L 1117.644 -1484.2 L 1104.557 -1469.996 L 1088.917 -1444.461 L 1075.83 -1432.172 L 1059.232 -1422.916 L 1051.252 -1421.001 L 1042.794 -1418.926 L 1032.42 -1417.968 L 1020.61 -1419.085 L 1013.269 -1421.479 L 1008.321 -1426.427 L 988.372 -1436.96 L 983.584 -1441.748 L 979.594 -1451.164 L 980.233 -1462.974 L 977.679 -1471.592 L 974.327 -1482.764 L 971.774 -1487.552 L 970.338 -1490.265 L 970.178 -1490.903 L 969.539 -1494.574 L 969.061 -1496.489 L 966.348 -1499.841 L 961.879 -1505.746 L 953.421 -1512.449 L 944.802 -1513.406 L 941.61 -1511.491 L 937.78 -1509.257 L 931.556 -1509.736 L 903.946 -1527.291 L 893.413 -1538.622 L 880.804 -1547.081 L 837.714 -1546.762 L 835.479 -1547.56 L 814.093 -1554.422 L 808.189 -1560.487 L 792.388 -1549.315 L 785.845 -1550.433 L 772.758 -1559.849 L 770.045 -1560.008 L 768.29 -1557.933 L 764.619 -1545.325 L 765.417 -1542.134 L 752.33 -1527.291 L 739.403 -1525.536 L 721.209 -1517.715 L 710.995 -1511.012 L 698.227 -1512.129 L 681.31 -1497.925 L 658.966 -1493.297 L 657.371 -1492.978 L 628.643 -1496.489 L 627.047 -1496.649 L 625.93 -1497.128 L 624.973 -1497.447 L 620.664 -1498.883 L 611.886 -1505.905 L 608.854 -1525.057 L 596.246 -1539.899 L 595.767 -1542.293 L 597.043 -1547.719 L 617.152 -1564.637 L 619.227 -1567.828 L 620.344 -1573.414 L 619.866 -1577.723 L 608.534 -1596.875 L 603.906 -1598.152 L 594.809 -1596.396 L 591.139 -1598.311 L 589.702 -1610.76 L 594.969 -1620.495 L 597.522 -1631.826 L 593.213 -1643.477 L 593.054 -1647.307 L 599.597 -1652.414 L 602.63 -1661.511 L 584.755 -1707.475 L 564.007 -1744.181 L 548.367 -1755.512 L 544.377 -1759.822 L 544.537 -1766.684 L 541.823 -1770.674 L 536.078 -1774.185 L 526.821 -1774.504 L 491.232 -1774.664 L 468.09 -1772.27 L 454.206 -1777.377 L 447.981 -1777.856 L 432.979 -1773.706 L 425.798 -1770.514 L 413.03 -1764.769 L 408.402 -1764.29 L 400.103 -1766.205 L 386.058 -1778.335 L 379.834 -1790.623 L 376.163 -1804.668 L 371.854 -1809.296 L 371.216 -1809.775 L 353.98 -1830.044 L 346.319 -1836.428 L 319.188 -1837.704 L 312.006 -1840.577 L 291.418 -1838.821 L 280.087 -1839.619 L 266.681 -1844.886 L 266.042 -1845.205 L 264.287 -1850.312 L 262.372 -1855.419 L 256.626 -1858.292 L 252.796 -1857.813 L 241.305 -1847.599 L 237.156 -1846.003 L 217.844 -1853.345 L 200.13 -1866.112 L 172.998 -1880.635 L 158.635 -1885.104 L 134.057 -1892.924 L 118.576 -1894.52 L 96.392 -1905.373 L 92.881 -1907.128 L 68.623 -1918.938 Z M 991.564 -1554.582 L 990.447 -1553.784 L 989.01 -1549.156 L 974.487 -1532.558 L 971.455 -1517.237 L 979.913 -1511.332 L 985.18 -1509.736 L 1010.077 -1507.022 L 1011.992 -1510.853 L 1011.353 -1512.608 L 1010.715 -1514.204 L 1008.96 -1517.077 L 1002.257 -1521.865 L 998.746 -1524.418 L 995.554 -1532.398 L 995.873 -1535.75 L 997.947 -1552.667 L 994.436 -1553.784 L 991.564 -1554.582 Z" id="path221"/>
  
      <path id="path4283" d="M 593.996 -669.968 L 586.746 -668.312 L 583.996 -664.062 L 572.496 -663.843 L 574.059 -655.093 L 580.059 -652.343 L 580.215 -646.593 L 571.434 -645.093 L 565.653 -646.343 L 562.653 -650.687 L 553.903 -654.718 L 514.715 -657.031 L 508.903 -659.781 L 500.403 -653.718 L 484.309 -660.687 L 475.59 -656.312 L 472.621 -660.468 L 468.434 -659.031 L 464.09 -656.093 L 455.371 -658.812 L 446.59 -657.125 L 442.59 -648.437 L 440.028 -636.75 L 427.09 -632.312 L 411.246 -629.156 L 409.778 -626.281 L 415.778 -624.843 L 415.809 -623.531 L 414.309 -621.968 L 408.559 -621.843 L 409.934 -620.343 L 412.809 -620.406 L 411.778 -608.937 L 410.278 -607.562 L 407.403 -607.531 L 407.496 -603.125 L 409.215 -595.906 L 415.09 -591.812 L 418.309 -578.906 L 412.559 -578.781 L 399.653 -572.812 L 380.965 -568.093 L 381.059 -565.218 L 373.84 -562.218 L 365.278 -559.218 L 363.559 -566.25 L 359.309 -567.687 L 354.871 -568.937 L 347.496 -571.843 L 338.684 -578.75 L 332.903 -580.187 L 325.465 -585.75 L 315.09 -592.812 L 313.84 -589.937 L 322.778 -578.468 L 319.965 -575.531 L 314.309 -571.25 L 318.871 -565.406 L 327.684 -558.5 L 336.403 -555.812 L 342.278 -551.531 L 332.246 -545.625 L 329.59 -536.781 L 326.746 -535.406 L 321.028 -533.75 L 318.434 -523.781 L 315.778 -514.968 L 310.028 -514.843 L 310.121 -510.656 L 307.434 -503.343 L 304.559 -503.281 L 298.746 -497.468 L 288.746 -498.625 L 290.215 -494.437 L 283.059 -488.593 L 283.153 -485.531 L 281.84 -484.156 L 274.465 -486.906 L 270.246 -479.562 L 267.559 -472.437 L 266.34 -468.031 L 259.184 -462.187 L 259.309 -457.781 L 259.371 -454.937 L 262.246 -454.968 L 258.153 -450.5 L 252.278 -447.531 L 248.059 -447.468 L 237.934 -445.937 L 223.528 -445.656 L 217.653 -444.031 L 213.465 -442.625 L 203.403 -438.031 L 187.559 -434.875 L 175.621 -451.843 L 173.871 -459.062 L 163.809 -456.031 L 162.559 -451.593 L 159.809 -447.343 L 155.934 -425.718 L 150.215 -424.093 L 140.028 -425.406 L 137.153 -425.375 L 129.778 -428.093 L 119.559 -430.75 L 116.653 -432.062 L 110.934 -430.593 L 108.153 -426.156 L 105.434 -420.375 L 105.528 -416 L 89.653 -414.375 L 81.09 -411.343 L 75.121 -412.562 L 70.934 -411.156 L 65.153 -412.375 L 60.778 -410.968 L 56.434 -408.031 L 53.559 -407.968 L 46.434 -409.187 L 37.778 -401.937 L 29.215 -400.281 L 20.653 -397.25 L 15.028 -391.406 L 7.746 -391.281 L 0.434 -392.468 L -8.285 -395.187 L -17.191 -406.656 L -20.316 -415.187 L -20.379 -418.062 L -24.785 -417.968 L -39.379 -426.281 L -46.504 -419.093 L -47.847 -411.812 L -56.191 -400.218 L -60.316 -390.031 L -76.285 -391.062 L -79.347 -398.25 L -83.754 -405.437 L -86.722 -409.562 L -92.941 -419.562 L -100.254 -428.031 L -106.379 -435.156 L -109.191 -432.25 L -119.035 -426.343 L -126.097 -417.625 L -125.535 -395.875 L -126.629 -378.687 L -133.629 -375.687 L -161.347 -379.375 L -162.691 -379.343 L -163.16 -379.312 L -171.722 -378.968 L -171.66 -378.625 L -170.629 -372.625 L -166.629 -364.343 L -170.629 -358.75 L -172.222 -351.562 L -170.472 -344.218 L -171.097 -340.593 L -171.722 -337.031 L -171.754 -336.031 L -171.91 -329.656 L -171.91 -329.218 L -178.754 -326.843 L -182.097 -320.437 L -187.691 -315.968 L -201.41 -316.125 L -209.097 -310.562 L -213.066 -304.968 L -216.097 -298.25 L -219.629 -284.531 L -218.035 -276.562 L -220.41 -269.687 L -221.222 -262.656 L -222.972 -255.5 L -228.222 -250.687 L -240.535 -242.562 L -248.816 -240.968 L -255.379 -243.375 L -259.847 -236.5 L -259.66 -229.468 L -264.472 -224.218 L -271.316 -223.562 L -277.535 -228.531 L -284.41 -227.406 L -290.004 -221.812 L -291.285 -215.125 L -290.785 -206.812 L -293.035 -199.781 L -294.316 -192.437 L -291.597 -185.75 L -279.316 -176.656 L -284.41 -167.562 L -284.254 -160.062 L -278.347 -156.531 L -276.097 -150 L -280.41 -142.968 L -276.285 -136.906 L -270.035 -133.406 L -263.504 -136.593 L -256.629 -135.468 L -254.41 -127.812 L -246.91 -126.218 L -240.035 -127 L -236.066 -120.781 L -242.285 -115.843 L -248.504 -113.437 L -248.504 -106.437 L -241.972 -102.437 L -241.785 -95.562 L -236.379 -90.156 L -233.66 -83.75 L -232.379 -76.593 L -225.691 -72.906 L -231.91 -68.281 L -234.129 -61.093 L -238.941 -55.187 L -242.285 -49.125 L -240.035 -42.125 L -251.222 -32.062 L -253.441 -25.343 L -252.972 -17.687 L -256.816 -10.843 L -262.066 2.563 L -263.504 9.438 L -253.941 20.438 L -253.754 27.313 L -256.16 40.875 L -252.972 46.938 L -243.879 59.563 L -241.535 64.032 L -240.691 65.625 L -242.91 72.313 L -247.691 78.375 L -255.191 90.688 L -260.629 95.938 L -264.004 97.875 L -267.004 99.625 L -269.879 114.282 L -275.316 119.875 L -283.597 123.563 L -289.691 127.375 L -303.41 133.125 L -310.097 132.969 L -310.91 139.844 L -316.972 143.188 L -321.754 137.907 L -324.004 145.407 L -318.566 149.407 L -315.847 158.188 L -311.222 160.75 L -304.347 161.063 L -296.847 164.719 L -290.629 160.75 L -285.222 155.938 L -278.972 153.063 L -277.722 161.844 L -277.066 175.594 L -273.066 181.813 L -270.535 188.188 L -263.66 184.5 L -256.816 181.969 L -243.41 188.657 L -232.379 199.032 L -227.597 204.625 L -232.379 210.219 L -238.129 214.688 L -242.129 220.25 L -245.785 226.657 L -247.222 233.188 L -240.347 245.969 L -235.722 251.532 L -229.035 255.063 L -222.16 255.219 L -215.941 257.938 L -210.504 263.032 L -203.816 265.438 L -196.472 266.375 L -183.535 270.844 L -169.347 273.563 L -154.972 273.563 L -149.566 278.344 L -144.285 285.688 L -138.847 291.282 L -132.629 294.969 L -126.41 297.657 L -123.222 303.719 L -126.722 310.438 L -124.191 317.313 L -122.91 324.469 L -117.472 329.282 L -110.597 333.75 L -103.91 333.25 L -97.535 337.407 L -89.691 339.469 L -82.691 342.5 L -76.941 345.875 L -67.347 350.032 L -67.347 349.532 L -64.816 337.875 L -48.535 307.563 L -39.91 300.375 L -24.91 279.625 L -11.504 267.969 L -3.191 257.438 L 1.434 255.688 L 24.871 252.969 L 37.184 252.032 L 46.121 251.375 L 55.215 243.25 L 71.653 243.094 L 76.278 240.844 L 88.715 242.594 L 94.465 245 L 95.121 248.344 L 83.465 271.657 L 71.809 283.469 L 67.34 287.782 L 63.028 289.063 L 53.934 287.782 L 49.153 284.75 L 37.965 285.375 L 34.934 287.782 L 33.184 292.25 L 25.684 290.5 L 11.809 292.719 L 5.559 291.282 L 1.59 297.344 L -2.879 297.188 L -3.847 300.219 L -2.722 305.5 L 8.778 310.75 L 19.309 314.75 L 21.215 314.594 L 25.684 314.282 L 43.246 317.313 L 52.028 311.875 L 62.871 302.938 L 75.309 290.5 L 91.278 264.938 L 102.621 242.125 L 102.778 241.969 L 103.403 243.094 L 103.559 242.782 L 105.153 241.657 L 105.309 241.344 L 105.309 240.844 L 105.465 240.688 L 105.965 240.688 L 107.559 238.313 L 107.403 237.813 L 112.34 234.157 L 131.028 225.063 L 136.434 218.844 L 144.434 213.563 L 165.653 211.5 L 173.153 207.813 L 177.153 204.157 L 176.653 199.032 L 181.621 196.313 L 186.559 188.969 L 193.403 182.75 L 202.028 174.782 L 205.621 166.875 L 205.715 166.657 L 201.871 155.782 L 197.403 150.532 L 194.371 150.688 L 194.371 158.657 L 192.528 162.719 L 192.465 162.813 L 185.903 168.563 L 185.746 168.563 L 185.746 167.907 L 183.684 167.125 L 179.215 165.032 L 179.59 164.407 L 180.34 163.125 L 179.371 160.25 L 164.528 155.625 L 152.246 142.219 L 140.434 126.75 L 135.965 124.657 L 138.028 120.532 L 132.278 108.219 L 127.996 104.719 L 117.621 101.219 L 106.278 99.782 L 102.934 101.032 L 108.34 105.032 L 109.965 105.532 L 124.465 110.157 L 127.028 112.063 L 127.653 114.938 L 124.778 118.282 L 109.621 121.313 L 103.715 120.688 L 93.84 116.532 L 88.871 112.844 L 82.184 105.032 L 73.715 95.157 L 71.496 88.907 L 72.778 85.094 L 81.528 75.344 L 87.121 73.438 L 96.059 62.75 L 97.653 56.032 L 105.965 44.719 L 121.746 34.969 L 131.809 25.407 L 134.996 20.282 L 142.496 7.375 L 153.684 -3 L 164.684 -21.843 L 171.403 -28.531 L 181.996 -45.375 L 182.153 -45.593 L 186.246 -52.156 L 202.184 -64.937 L 208.59 -73.406 L 210.34 -75.781 L 217.684 -82.812 L 222.309 -90.937 L 226.121 -92.062 L 230.121 -89.656 L 232.528 -90.312 L 240.028 -101.468 L 242.403 -108.343 L 248.965 -116.812 L 269.715 -138.031 L 277.996 -143.625 L 289.965 -148.25 L 292.371 -150 L 297.465 -153.656 L 309.17 -157.622 L 330.84 -162.125 L 337.215 -159.906 L 341.684 -160.375 L 360.184 -168.656 L 368.028 -169.937 L 376.184 -169.5 L 379.996 -169.312 L 386.215 -167.562 L 391.809 -161.343 L 395.153 -160.687 L 398.653 -155.25 L 403.934 -151.906 L 407.278 -151.125 L 413.653 -159.906 L 412.528 -169.312 L 414.778 -176.343 L 420.215 -182.875 L 427.715 -189.406 L 442.215 -201.875 L 457.871 -206.187 L 480.059 -209.687 L 485.653 -216.718 L 491.059 -217.656 L 496.653 -221.187 L 511.809 -224.218 L 516.278 -222.625 L 523.309 -222.468 L 531.434 -219.75 L 535.121 -221.656 L 539.903 -221.812 L 546.778 -225.5 L 556.028 -230.75 L 565.903 -228.187 L 566.871 -228.843 L 572.309 -231.406 L 584.278 -241.281 L 587.465 -243.031 L 622.403 -261.718 L 631.184 -261.875 L 645.871 -266.5 L 650.809 -268.812 L 661.996 -274 L 683.215 -278.937 L 715.778 -285 L 728.715 -283.75 L 733.184 -284.218 L 736.028 -284.531 L 747.84 -289.812 L 762.59 -291.875 L 761.371 -295.656 L 758.309 -302.875 L 758.09 -311.437 L 762.496 -311.531 L 765.496 -307.375 L 766.809 -308.75 L 762.371 -317.437 L 759.403 -320.25 L 760.528 -328.875 L 757.496 -334.531 L 751.84 -331.562 L 750.371 -328.687 L 749.121 -324.281 L 743.403 -322.812 L 738.903 -326.937 L 734.371 -331.25 L 728.496 -335.531 L 722.778 -333.906 L 715.465 -335.281 L 709.371 -348.156 L 709.215 -353.875 L 704.871 -359.531 L 722.184 -356.968 L 723.778 -355.5 L 725.153 -354.187 L 725.184 -352.656 L 728.059 -352.687 L 733.903 -349.937 L 739.715 -354.437 L 742.59 -354.5 L 743.746 -361.593 L 743.715 -363.093 L 747.996 -368.906 L 743.434 -374.562 L 747.684 -380.375 L 748.84 -387.625 L 747.496 -387.625 L 747.403 -392 L 747.34 -393.343 L 745.778 -394.843 L 738.809 -390.312 L 736.09 -383.187 L 728.746 -385.937 L 719.965 -391.5 L 718.434 -391.468 L 718.309 -395.656 L 722.465 -405.843 L 722.434 -407.375 L 710.59 -412.875 L 707.715 -412.843 L 707.559 -418.562 L 703.153 -425.718 L 701.403 -434.281 L 696.871 -438.593 L 705.434 -448.875 L 711.153 -450.312 L 709.434 -457.531 L 706.528 -458.812 L 705.215 -457.468 L 705.09 -461.656 L 699.278 -464.593 L 694.903 -463 L 690.465 -464.437 L 687.403 -471.437 L 679.871 -480.093 L 666.965 -482.718 L 659.528 -488.312 L 633.778 -474.843 L 635.184 -479.25 L 637.934 -485.031 L 640.621 -492.156 L 644.746 -495.281 L 641.59 -506.687 L 638.621 -509.468 L 640.09 -512.375 L 641.371 -515.25 L 635.528 -518.031 L 636.871 -525.281 L 641.153 -523.843 L 648.34 -526.843 L 648.309 -528.375 L 633.934 -528.093 L 633.871 -530.968 L 629.309 -536.593 L 641.934 -552.687 L 641.715 -561.468 L 640.028 -567.156 L 634.184 -569.906 L 632.653 -577.125 L 626.715 -577.031 L 622.434 -579.812 L 616.684 -579.718 L 616.653 -581.031 L 607.621 -588.125 L 594.528 -590.75 L 593.09 -593.593 L 591.59 -592.218 L 587.309 -595 L 581.465 -597.75 L 579.84 -601.937 L 576.934 -603.406 L 576.778 -609.125 L 577.965 -614.875 L 582.153 -623.531 L 598.153 -620.968 L 605.246 -628.375 L 613.965 -625.656 L 613.653 -637.093 L 612.215 -641.468 L 603.434 -639.781 L 600.434 -644.125 L 617.559 -657.406 L 593.996 -669.968 Z" style="fill:#ffd071;fill-opacity:1;fill-rule:nonzero;stroke:#000000;stroke-width:2;stroke-miterlimit:4;stroke-dasharray:none;stroke-opacity:0"/>
  </g>
</svg>